<svg id="Layer_1" data-name="Layer 1" xmlns="http://www.w3.org/2000/svg" xmlns:xlink="http://www.w3.org/1999/xlink" viewBox="0 0 1410 1080"><defs><style>.cls-1{fill:none;}.cls-2,.cls-90{fill-rule:evenodd;}.cls-2,.cls-32,.cls-90{opacity:0.2;}.cls-2{fill:url(#linear-gradient);}.cls-3{fill:#3264fa;}.cls-4{fill:url(#linear-gradient-2);}.cls-5{clip-path:url(#clip-path);}.cls-6{fill:#f6f6fe;}.cls-7{fill:url(#_ÂÁ_Ï_ÌÌ_È_ËÂÌÚ_760);}.cls-8{fill:#62699d;}.cls-30,.cls-31,.cls-32,.cls-9{fill:#fff;}.cls-10{fill:url(#_ÂÁ_Ï_ÌÌ_È_ËÂÌÚ_200);}.cls-11{fill:url(#_ÂÁ_Ï_ÌÌ_È_ËÂÌÚ_21);}.cls-12{fill:url(#_ÂÁ_Ï_ÌÌ_È_ËÂÌÚ_200-2);}.cls-13{fill:url(#_ÂÁ_Ï_ÌÌ_È_ËÂÌÚ_237);}.cls-14{fill:url(#_ÂÁ_Ï_ÌÌ_È_ËÂÌÚ_164);}.cls-15{fill:#94633d;}.cls-16{fill:#000046;}.cls-17{fill:url(#_ÂÁ_Ï_ÌÌ_È_ËÂÌÚ_193);}.cls-18{fill:#02007d;}.cls-19{fill:url(#_ÂÁ_Ï_ÌÌ_È_ËÂÌÚ_193-2);}.cls-20{fill:url(#_ÂÁ_Ï_ÌÌ_È_ËÂÌÚ_193-3);}.cls-21{fill:url(#_ÂÁ_Ï_ÌÌ_È_ËÂÌÚ_193-4);}.cls-22{fill:url(#_ÂÁ_Ï_ÌÌ_È_ËÂÌÚ_193-5);}.cls-23{fill:url(#_ÂÁ_Ï_ÌÌ_È_ËÂÌÚ_122);}.cls-24{fill:url(#_ÂÁ_Ï_ÌÌ_È_ËÂÌÚ_193-6);}.cls-25{fill:#fed6d6;}.cls-26{fill:url(#_ÂÁ_Ï_ÌÌ_È_ËÂÌÚ_193-7);}.cls-27{fill:url(#_ÂÁ_Ï_ÌÌ_È_ËÂÌÚ_760-2);}.cls-28{fill:url(#_ÂÁ_Ï_ÌÌ_È_ËÂÌÚ_760-3);}.cls-29{fill:#ffb06d;}.cls-30{opacity:0.6;}.cls-31{opacity:0.4;}.cls-33{fill:url(#_ÂÁ_Ï_ÌÌ_È_ËÂÌÚ_200-3);}.cls-34{fill:url(#_ÂÁ_Ï_ÌÌ_È_ËÂÌÚ_200-4);}.cls-35{fill:url(#_ÂÁ_Ï_ÌÌ_È_ËÂÌÚ_200-5);}.cls-36{fill:url(#_ÂÁ_Ï_ÌÌ_È_ËÂÌÚ_200-6);}.cls-37{fill:url(#_ÂÁ_Ï_ÌÌ_È_ËÂÌÚ_200-7);}.cls-38{fill:url(#_ÂÁ_Ï_ÌÌ_È_ËÂÌÚ_200-8);}.cls-39{fill:url(#_ÂÁ_Ï_ÌÌ_È_ËÂÌÚ_760-5);}.cls-40{fill:url(#_ÂÁ_Ï_ÌÌ_È_ËÂÌÚ_760-6);}.cls-41{fill:url(#_ÂÁ_Ï_ÌÌ_È_ËÂÌÚ_760-7);}.cls-42{fill:url(#_ÂÁ_Ï_ÌÌ_È_ËÂÌÚ_760-8);}.cls-43{fill:url(#_ÂÁ_Ï_ÌÌ_È_ËÂÌÚ_760-9);}.cls-44{fill:url(#_ÂÁ_Ï_ÌÌ_È_ËÂÌÚ_760-10);}.cls-45{fill:url(#_ÂÁ_Ï_ÌÌ_È_ËÂÌÚ_760-11);}.cls-46{fill:url(#_ÂÁ_Ï_ÌÌ_È_ËÂÌÚ_760-12);}.cls-47{fill:url(#_ÂÁ_Ï_ÌÌ_È_ËÂÌÚ_760-13);}.cls-48{fill:url(#_ÂÁ_Ï_ÌÌ_È_ËÂÌÚ_760-14);}.cls-49{fill:url(#_ÂÁ_Ï_ÌÌ_È_ËÂÌÚ_760-15);}.cls-50{fill:url(#_ÂÁ_Ï_ÌÌ_È_ËÂÌÚ_193-8);}.cls-51{fill:url(#_ÂÁ_Ï_ÌÌ_È_ËÂÌÚ_200-9);}.cls-52{fill:url(#_ÂÁ_Ï_ÌÌ_È_ËÂÌÚ_200-10);}.cls-53{fill:url(#_ÂÁ_Ï_ÌÌ_È_ËÂÌÚ_200-11);}.cls-54{fill:url(#_ÂÁ_Ï_ÌÌ_È_ËÂÌÚ_200-12);}.cls-55{fill:url(#_ÂÁ_Ï_ÌÌ_È_ËÂÌÚ_189);}.cls-56{fill:url(#_ÂÁ_Ï_ÌÌ_È_ËÂÌÚ_200-13);}.cls-57{fill:url(#_ÂÁ_Ï_ÌÌ_È_ËÂÌÚ_200-14);}.cls-58{fill:#5469fa;}.cls-59{fill:url(#_ÂÁ_Ï_ÌÌ_È_ËÂÌÚ_193-9);}.cls-60{fill:url(#_ÂÁ_Ï_ÌÌ_È_ËÂÌÚ_200-15);}.cls-61{fill:url(#_ÂÁ_Ï_ÌÌ_È_ËÂÌÚ_193-10);}.cls-62{fill:url(#_ÂÁ_Ï_ÌÌ_È_ËÂÌÚ_200-16);}.cls-63{fill:url(#_ÂÁ_Ï_ÌÌ_È_ËÂÌÚ_193-11);}.cls-64{fill:url(#_ÂÁ_Ï_ÌÌ_È_ËÂÌÚ_200-17);}.cls-65{fill:url(#_ÂÁ_Ï_ÌÌ_È_ËÂÌÚ_200-18);}.cls-66{fill:url(#_ÂÁ_Ï_ÌÌ_È_ËÂÌÚ_200-19);}.cls-67{fill:url(#_ÂÁ_Ï_ÌÌ_È_ËÂÌÚ_193-12);}.cls-68{fill:url(#_ÂÁ_Ï_ÌÌ_È_ËÂÌÚ_200-20);}.cls-69{fill:url(#_ÂÁ_Ï_ÌÌ_È_ËÂÌÚ_189-2);}.cls-70{fill:url(#_ÂÁ_Ï_ÌÌ_È_ËÂÌÚ_189-3);}.cls-71{fill:url(#_ÂÁ_Ï_ÌÌ_È_ËÂÌÚ_189-4);}.cls-72{fill:url(#_ÂÁ_Ï_ÌÌ_È_ËÂÌÚ_200-21);}.cls-73{fill:url(#_ÂÁ_Ï_ÌÌ_È_ËÂÌÚ_200-22);}.cls-74{fill:url(#_ÂÁ_Ï_ÌÌ_È_ËÂÌÚ_193-13);}.cls-75{fill:url(#_ÂÁ_Ï_ÌÌ_È_ËÂÌÚ_200-23);}.cls-76{fill:url(#_ÂÁ_Ï_ÌÌ_È_ËÂÌÚ_200-24);}.cls-77{fill:url(#_ÂÁ_Ï_ÌÌ_È_ËÂÌÚ_193-14);}.cls-78{fill:url(#_ÂÁ_Ï_ÌÌ_È_ËÂÌÚ_237-2);}.cls-79{fill:url(#_ÂÁ_Ï_ÌÌ_È_ËÂÌÚ_237-3);}.cls-80{fill:url(#_ÂÁ_Ï_ÌÌ_È_ËÂÌÚ_237-4);}.cls-81{fill:url(#_ÂÁ_Ï_ÌÌ_È_ËÂÌÚ_760-16);}.cls-82{fill:#003689;}.cls-83{fill:url(#_ÂÁ_Ï_ÌÌ_È_ËÂÌÚ_189-5);}.cls-84{fill:url(#_ÂÁ_Ï_ÌÌ_È_ËÂÌÚ_760-17);}.cls-85{fill:url(#_ÂÁ_Ï_ÌÌ_È_ËÂÌÚ_760-18);}.cls-86{fill:url(#_ÂÁ_Ï_ÌÌ_È_ËÂÌÚ_189-6);}.cls-87{fill:url(#_ÂÁ_Ï_ÌÌ_È_ËÂÌÚ_760-19);}.cls-88{fill:url(#_ÂÁ_Ï_ÌÌ_È_ËÂÌÚ_189-7);}.cls-89{fill:url(#_ÂÁ_Ï_ÌÌ_È_ËÂÌÚ_189-8);}.cls-90{fill:url(#linear-gradient-3);}.cls-91{fill:url(#_ÂÁ_Ï_ÌÌ_È_ËÂÌÚ_201);}.cls-92{fill:url(#_ÂÁ_Ï_ÌÌ_È_ËÂÌÚ_4);}.cls-93{fill:url(#_ÂÁ_Ï_ÌÌ_È_ËÂÌÚ_4-2);}.cls-94{fill:url(#_ÂÁ_Ï_ÌÌ_È_ËÂÌÚ_4-3);}.cls-95{fill:url(#_ÂÁ_Ï_ÌÌ_È_ËÂÌÚ_4-4);}.cls-96{fill:url(#_ÂÁ_Ï_ÌÌ_È_ËÂÌÚ_4-5);}.cls-97{fill:url(#_ÂÁ_Ï_ÌÌ_È_ËÂÌÚ_193-15);}.cls-98{fill:url(#_ÂÁ_Ï_ÌÌ_È_ËÂÌÚ_237-5);}.cls-99{fill:url(#_ÂÁ_Ï_ÌÌ_È_ËÂÌÚ_237-6);}.cls-100{fill:url(#_ÂÁ_Ï_ÌÌ_È_ËÂÌÚ_200-25);}.cls-101{fill:url(#_ÂÁ_Ï_ÌÌ_È_ËÂÌÚ_200-26);}.cls-102{fill:url(#_ÂÁ_Ï_ÌÌ_È_ËÂÌÚ_200-27);}.cls-103{fill:url(#_ÂÁ_Ï_ÌÌ_È_ËÂÌÚ_200-28);}</style><linearGradient id="linear-gradient" x1="897.06" y1="981.19" x2="1009.25" y2="737.25" gradientUnits="userSpaceOnUse"><stop offset="0"/><stop offset="1" stop-opacity="0"/></linearGradient><linearGradient id="linear-gradient-2" x1="508.35" y1="416.31" x2="508.35" y2="818.32" gradientUnits="userSpaceOnUse"><stop offset="0" stop-color="#00fafa"/><stop offset="1" stop-color="#3264fa"/></linearGradient><clipPath id="clip-path"><path class="cls-1" d="M64.07,721.55,369.21,896.11a49.74,49.74,0,0,0,50-.35L953,580.34a26.17,26.17,0,0,0-.31-45.24L776.58,110c-15.52-8.88-636,216-651.42,225.07L63.75,676.31A26.17,26.17,0,0,0,64.07,721.55Z"/></clipPath><linearGradient id="_ÂÁ_Ï_ÌÌ_È_ËÂÌÚ_760" x1="508.36" y1="980.25" x2="508.36" y2="649.76" gradientUnits="userSpaceOnUse"><stop offset="0" stop-color="#b6bae9"/><stop offset="0.99" stop-color="#d9dcff"/></linearGradient><linearGradient id="_ÂÁ_Ï_ÌÌ_È_ËÂÌÚ_200" x1="407.49" y1="610.05" x2="622.14" y2="610.05" gradientUnits="userSpaceOnUse"><stop offset="0" stop-color="#cfd3f9"/><stop offset="1" stop-color="#b6bae9"/></linearGradient><linearGradient id="_ÂÁ_Ï_ÌÌ_È_ËÂÌÚ_21" x1="510.33" y1="539.87" x2="562.48" y2="627.63" gradientUnits="userSpaceOnUse"><stop offset="0" stop-color="#b6bae9"/><stop offset="0.26" stop-color="#cccff0"/><stop offset="0.74" stop-color="#f1f2fb"/><stop offset="1" stop-color="#fff"/></linearGradient><linearGradient id="_ÂÁ_Ï_ÌÌ_È_ËÂÌÚ_200-2" x1="269.43" y1="371.88" x2="704.57" y2="371.88" xlink:href="#_ÂÁ_Ï_ÌÌ_È_ËÂÌÚ_200"/><linearGradient id="_ÂÁ_Ï_ÌÌ_È_ËÂÌÚ_237" x1="260.12" y1="396.77" x2="731.67" y2="355.51" gradientUnits="userSpaceOnUse"><stop offset="0" stop-color="#fff"/><stop offset="0.26" stop-color="#f1f2fb"/><stop offset="0.74" stop-color="#cccff0"/><stop offset="1" stop-color="#b6bae9"/></linearGradient><linearGradient id="_ÂÁ_Ï_ÌÌ_È_ËÂÌÚ_164" x1="384.11" y1="616.7" x2="612.32" y2="125.53" gradientUnits="userSpaceOnUse"><stop offset="0" stop-color="#5469fa"/><stop offset="0.12" stop-color="#4959e3"/><stop offset="0.41" stop-color="#3238b4"/><stop offset="0.66" stop-color="#211f92"/><stop offset="0.86" stop-color="#17107d"/><stop offset="1" stop-color="#130b75"/></linearGradient><linearGradient id="_ÂÁ_Ï_ÌÌ_È_ËÂÌÚ_193" x1="861.27" y1="731.42" x2="861.27" y2="956.31" gradientUnits="userSpaceOnUse"><stop offset="0" stop-color="#ff426b"/><stop offset="1" stop-color="#ffcb68"/></linearGradient><linearGradient id="_ÂÁ_Ï_ÌÌ_È_ËÂÌÚ_193-2" x1="815.31" y1="731.42" x2="815.31" y2="956.31" xlink:href="#_ÂÁ_Ï_ÌÌ_È_ËÂÌÚ_193"/><linearGradient id="_ÂÁ_Ï_ÌÌ_È_ËÂÌÚ_193-3" x1="771.52" y1="731.43" x2="771.52" y2="956.31" xlink:href="#_ÂÁ_Ï_ÌÌ_È_ËÂÌÚ_193"/><linearGradient id="_ÂÁ_Ï_ÌÌ_È_ËÂÌÚ_193-4" x1="783.97" y1="731.41" x2="783.97" y2="956.31" xlink:href="#_ÂÁ_Ï_ÌÌ_È_ËÂÌÚ_193"/><linearGradient id="_ÂÁ_Ï_ÌÌ_È_ËÂÌÚ_193-5" x1="914.8" y1="936.65" x2="946.53" y2="936.65" xlink:href="#_ÂÁ_Ï_ÌÌ_È_ËÂÌÚ_193"/><linearGradient id="_ÂÁ_Ï_ÌÌ_È_ËÂÌÚ_122" x1="921.66" y1="959.71" x2="951.2" y2="959.71" gradientUnits="userSpaceOnUse"><stop offset="0" stop-color="#130b75"/><stop offset="1" stop-color="#3f36a8"/></linearGradient><linearGradient id="_ÂÁ_Ï_ÌÌ_È_ËÂÌÚ_193-6" x1="903.47" y1="731.42" x2="903.47" y2="956.31" xlink:href="#_ÂÁ_Ï_ÌÌ_È_ËÂÌÚ_193"/><linearGradient id="_ÂÁ_Ï_ÌÌ_È_ËÂÌÚ_193-7" x1="829.56" y1="724.74" x2="829.56" y2="940.68" xlink:href="#_ÂÁ_Ï_ÌÌ_È_ËÂÌÚ_193"/><linearGradient id="_ÂÁ_Ï_ÌÌ_È_ËÂÌÚ_760-2" x1="747.32" y1="81.42" x2="811.25" y2="81.42" xlink:href="#_ÂÁ_Ï_ÌÌ_È_ËÂÌÚ_760"/><linearGradient id="_ÂÁ_Ï_ÌÌ_È_ËÂÌÚ_760-3" x1="789.91" y1="64.02" x2="802.49" y2="64.02" xlink:href="#_ÂÁ_Ï_ÌÌ_È_ËÂÌÚ_760"/><linearGradient id="_ÂÁ_Ï_ÌÌ_È_ËÂÌÚ_200-3" x1="314" y1="325.62" x2="458.95" y2="325.62" xlink:href="#_ÂÁ_Ï_ÌÌ_È_ËÂÌÚ_200"/><linearGradient id="_ÂÁ_Ï_ÌÌ_È_ËÂÌÚ_200-4" x1="466.18" y1="276.84" x2="471.08" y2="276.84" xlink:href="#_ÂÁ_Ï_ÌÌ_È_ËÂÌÚ_200"/><linearGradient id="_ÂÁ_Ï_ÌÌ_È_ËÂÌÚ_200-5" x1="487.09" y1="428.77" x2="512.16" y2="428.77" xlink:href="#_ÂÁ_Ï_ÌÌ_È_ËÂÌÚ_200"/><linearGradient id="_ÂÁ_Ï_ÌÌ_È_ËÂÌÚ_200-6" x1="487.09" y1="431.86" x2="531.49" y2="431.86" xlink:href="#_ÂÁ_Ï_ÌÌ_È_ËÂÌÚ_200"/><linearGradient id="_ÂÁ_Ï_ÌÌ_È_ËÂÌÚ_200-7" x1="487.09" y1="443.8" x2="520.99" y2="443.8" xlink:href="#_ÂÁ_Ï_ÌÌ_È_ËÂÌÚ_200"/><linearGradient id="_ÂÁ_Ï_ÌÌ_È_ËÂÌÚ_200-8" x1="487.09" y1="457.49" x2="504.61" y2="457.49" xlink:href="#_ÂÁ_Ï_ÌÌ_È_ËÂÌÚ_200"/><linearGradient id="_ÂÁ_Ï_ÌÌ_È_ËÂÌÚ_760-5" x1="202.45" y1="385" x2="217.44" y2="385" xlink:href="#_ÂÁ_Ï_ÌÌ_È_ËÂÌÚ_760"/><linearGradient id="_ÂÁ_Ï_ÌÌ_È_ËÂÌÚ_760-6" x1="202.45" y1="389.78" x2="241.13" y2="389.78" xlink:href="#_ÂÁ_Ï_ÌÌ_È_ËÂÌÚ_760"/><linearGradient id="_ÂÁ_Ï_ÌÌ_È_ËÂÌÚ_760-7" x1="202.45" y1="401.59" x2="241.13" y2="401.59" xlink:href="#_ÂÁ_Ï_ÌÌ_È_ËÂÌÚ_760"/><linearGradient id="_ÂÁ_Ï_ÌÌ_È_ËÂÌÚ_760-8" x1="245.79" y1="384.87" x2="254.09" y2="384.87" xlink:href="#_ÂÁ_Ï_ÌÌ_È_ËÂÌÚ_760"/><linearGradient id="_ÂÁ_Ï_ÌÌ_È_ËÂÌÚ_760-9" x1="202.45" y1="415.06" x2="235.55" y2="415.06" xlink:href="#_ÂÁ_Ï_ÌÌ_È_ËÂÌÚ_760"/><linearGradient id="_ÂÁ_Ï_ÌÌ_È_ËÂÌÚ_760-10" x1="797.32" y1="336.22" x2="820.05" y2="336.22" xlink:href="#_ÂÁ_Ï_ÌÌ_È_ËÂÌÚ_760"/><linearGradient id="_ÂÁ_Ï_ÌÌ_È_ËÂÌÚ_760-11" x1="797.32" y1="343.29" x2="836" y2="343.29" xlink:href="#_ÂÁ_Ï_ÌÌ_È_ËÂÌÚ_760"/><linearGradient id="_ÂÁ_Ï_ÌÌ_È_ËÂÌÚ_760-12" x1="797.32" y1="361.68" x2="813.85" y2="361.68" xlink:href="#_ÂÁ_Ï_ÌÌ_È_ËÂÌÚ_760"/><linearGradient id="_ÂÁ_Ï_ÌÌ_È_ËÂÌÚ_760-13" x1="818.51" y1="351.54" x2="826.8" y2="351.54" xlink:href="#_ÂÁ_Ï_ÌÌ_È_ËÂÌÚ_760"/><linearGradient id="_ÂÁ_Ï_ÌÌ_È_ËÂÌÚ_760-14" x1="797.32" y1="368.58" x2="830.42" y2="368.58" xlink:href="#_ÂÁ_Ï_ÌÌ_È_ËÂÌÚ_760"/><linearGradient id="_ÂÁ_Ï_ÌÌ_È_ËÂÌÚ_760-15" x1="836" y1="351.44" x2="849.46" y2="351.44" xlink:href="#_ÂÁ_Ï_ÌÌ_È_ËÂÌÚ_760"/><linearGradient id="_ÂÁ_Ï_ÌÌ_È_ËÂÌÚ_193-8" x1="330.52" y1="594.22" x2="425.71" y2="594.22" xlink:href="#_ÂÁ_Ï_ÌÌ_È_ËÂÌÚ_193"/><linearGradient id="_ÂÁ_Ï_ÌÌ_È_ËÂÌÚ_200-9" x1="367.06" y1="435.42" x2="394.99" y2="435.42" xlink:href="#_ÂÁ_Ï_ÌÌ_È_ËÂÌÚ_200"/><linearGradient id="_ÂÁ_Ï_ÌÌ_È_ËÂÌÚ_200-10" x1="332.37" y1="494.13" x2="356.34" y2="494.13" xlink:href="#_ÂÁ_Ï_ÌÌ_È_ËÂÌÚ_200"/><linearGradient id="_ÂÁ_Ï_ÌÌ_È_ËÂÌÚ_200-11" x1="400.68" y1="453.56" x2="424.65" y2="453.56" xlink:href="#_ÂÁ_Ï_ÌÌ_È_ËÂÌÚ_200"/><linearGradient id="_ÂÁ_Ï_ÌÌ_È_ËÂÌÚ_200-12" x1="368.57" y1="471.94" x2="392.54" y2="471.94" xlink:href="#_ÂÁ_Ï_ÌÌ_È_ËÂÌÚ_200"/><linearGradient id="_ÂÁ_Ï_ÌÌ_È_ËÂÌÚ_189" x1="277.42" y1="581.05" x2="277.42" y2="410.23" gradientUnits="userSpaceOnUse"><stop offset="0" stop-color="#5469fa"/><stop offset="1" stop-color="#130b75"/></linearGradient><linearGradient id="_ÂÁ_Ï_ÌÌ_È_ËÂÌÚ_200-13" x1="240.89" y1="465.51" x2="262.39" y2="465.51" xlink:href="#_ÂÁ_Ï_ÌÌ_È_ËÂÌÚ_200"/><linearGradient id="_ÂÁ_Ï_ÌÌ_È_ËÂÌÚ_200-14" x1="240.89" y1="468.7" x2="286.65" y2="468.7" xlink:href="#_ÂÁ_Ï_ÌÌ_È_ËÂÌÚ_200"/><linearGradient id="_ÂÁ_Ï_ÌÌ_È_ËÂÌÚ_193-9" x1="259.83" y1="476.99" x2="274.79" y2="476.99" xlink:href="#_ÂÁ_Ï_ÌÌ_È_ËÂÌÚ_193"/><linearGradient id="_ÂÁ_Ï_ÌÌ_È_ËÂÌÚ_200-15" x1="277.42" y1="462.63" x2="305.57" y2="462.63" xlink:href="#_ÂÁ_Ï_ÌÌ_È_ËÂÌÚ_200"/><linearGradient id="_ÂÁ_Ï_ÌÌ_È_ËÂÌÚ_193-10" x1="240.89" y1="496.69" x2="262.39" y2="496.69" xlink:href="#_ÂÁ_Ï_ÌÌ_È_ËÂÌÚ_193"/><linearGradient id="_ÂÁ_Ï_ÌÌ_È_ËÂÌÚ_200-16" x1="253.02" y1="502.72" x2="264.94" y2="502.72" xlink:href="#_ÂÁ_Ï_ÌÌ_È_ËÂÌÚ_200"/><linearGradient id="_ÂÁ_Ï_ÌÌ_È_ËÂÌÚ_193-11" x1="268.56" y1="489.06" x2="295.41" y2="489.06" xlink:href="#_ÂÁ_Ï_ÌÌ_È_ËÂÌÚ_193"/><linearGradient id="_ÂÁ_Ï_ÌÌ_È_ËÂÌÚ_200-17" x1="284.06" y1="494.09" x2="297.96" y2="494.09" xlink:href="#_ÂÁ_Ï_ÌÌ_È_ËÂÌÚ_200"/><linearGradient id="_ÂÁ_Ï_ÌÌ_È_ËÂÌÚ_200-18" x1="301.71" y1="485.1" x2="310.59" y2="485.1" xlink:href="#_ÂÁ_Ï_ÌÌ_È_ËÂÌÚ_200"/><linearGradient id="_ÂÁ_Ï_ÌÌ_È_ËÂÌÚ_200-19" x1="253.02" y1="523.51" x2="264.94" y2="523.51" xlink:href="#_ÂÁ_Ï_ÌÌ_È_ËÂÌÚ_200"/><linearGradient id="_ÂÁ_Ï_ÌÌ_È_ËÂÌÚ_193-12" x1="240.89" y1="538.26" x2="262.39" y2="538.26" xlink:href="#_ÂÁ_Ï_ÌÌ_È_ËÂÌÚ_193"/><linearGradient id="_ÂÁ_Ï_ÌÌ_È_ËÂÌÚ_200-20" x1="525.56" y1="469.79" x2="556.62" y2="469.79" xlink:href="#_ÂÁ_Ï_ÌÌ_È_ËÂÌÚ_200"/><linearGradient id="_ÂÁ_Ï_ÌÌ_È_ËÂÌÚ_189-2" x1="807.24" y1="263.64" x2="807.24" y2="249.82" xlink:href="#_ÂÁ_Ï_ÌÌ_È_ËÂÌÚ_189"/><linearGradient id="_ÂÁ_Ï_ÌÌ_È_ËÂÌÚ_189-3" x1="719.47" y1="439.43" x2="719.47" y2="255.81" xlink:href="#_ÂÁ_Ï_ÌÌ_È_ËÂÌÚ_189"/><linearGradient id="_ÂÁ_Ï_ÌÌ_È_ËÂÌÚ_189-4" x1="627.5" y1="478.81" x2="627.5" y2="334.96" xlink:href="#_ÂÁ_Ï_ÌÌ_È_ËÂÌÚ_189"/><linearGradient id="_ÂÁ_Ï_ÌÌ_È_ËÂÌÚ_200-21" x1="586.76" y1="414.38" x2="668.24" y2="414.38" xlink:href="#_ÂÁ_Ï_ÌÌ_È_ËÂÌÚ_200"/><linearGradient id="_ÂÁ_Ï_ÌÌ_È_ËÂÌÚ_200-22" x1="587.55" y1="445.68" x2="607.81" y2="445.68" xlink:href="#_ÂÁ_Ï_ÌÌ_È_ËÂÌÚ_200"/><linearGradient id="_ÂÁ_Ï_ÌÌ_È_ËÂÌÚ_193-13" x1="611.92" y1="431.95" x2="632.19" y2="431.95" xlink:href="#_ÂÁ_Ï_ÌÌ_È_ËÂÌÚ_193"/><linearGradient id="_ÂÁ_Ï_ÌÌ_È_ËÂÌÚ_200-23" x1="587.55" y1="453.36" x2="607.81" y2="453.36" xlink:href="#_ÂÁ_Ï_ÌÌ_È_ËÂÌÚ_200"/><linearGradient id="_ÂÁ_Ï_ÌÌ_È_ËÂÌÚ_200-24" x1="587.55" y1="461.04" x2="607.81" y2="461.04" xlink:href="#_ÂÁ_Ï_ÌÌ_È_ËÂÌÚ_200"/><linearGradient id="_ÂÁ_Ï_ÌÌ_È_ËÂÌÚ_193-14" x1="611.92" y1="447.31" x2="632.19" y2="447.31" xlink:href="#_ÂÁ_Ï_ÌÌ_È_ËÂÌÚ_193"/><linearGradient id="_ÂÁ_Ï_ÌÌ_È_ËÂÌÚ_237-2" x1="515.35" y1="391.95" x2="519.6" y2="391.95" xlink:href="#_ÂÁ_Ï_ÌÌ_È_ËÂÌÚ_237"/><linearGradient id="_ÂÁ_Ï_ÌÌ_È_ËÂÌÚ_237-3" x1="527.98" y1="384.52" x2="532.46" y2="384.52" xlink:href="#_ÂÁ_Ï_ÌÌ_È_ËÂÌÚ_237"/><linearGradient id="_ÂÁ_Ï_ÌÌ_È_ËÂÌÚ_237-4" x1="521.52" y1="388.03" x2="526.67" y2="388.03" xlink:href="#_ÂÁ_Ï_ÌÌ_È_ËÂÌÚ_237"/><linearGradient id="_ÂÁ_Ï_ÌÌ_È_ËÂÌÚ_760-16" x1="806.14" y1="187.77" x2="821.66" y2="187.77" xlink:href="#_ÂÁ_Ï_ÌÌ_È_ËÂÌÚ_760"/><linearGradient id="_ÂÁ_Ï_ÌÌ_È_ËÂÌÚ_189-5" x1="784.77" y1="220.03" x2="784.77" y2="207.99" xlink:href="#_ÂÁ_Ï_ÌÌ_È_ËÂÌÚ_189"/><linearGradient id="_ÂÁ_Ï_ÌÌ_È_ËÂÌÚ_760-17" x1="762.03" y1="230.97" x2="780.54" y2="230.97" xlink:href="#_ÂÁ_Ï_ÌÌ_È_ËÂÌÚ_760"/><linearGradient id="_ÂÁ_Ï_ÌÌ_È_ËÂÌÚ_760-18" x1="772.47" y1="236.16" x2="782.73" y2="236.16" xlink:href="#_ÂÁ_Ï_ÌÌ_È_ËÂÌÚ_760"/><linearGradient id="_ÂÁ_Ï_ÌÌ_È_ËÂÌÚ_189-6" x1="797.4" y1="233.47" x2="797.4" y2="215.35" xlink:href="#_ÂÁ_Ï_ÌÌ_È_ËÂÌÚ_189"/><linearGradient id="_ÂÁ_Ï_ÌÌ_È_ËÂÌÚ_760-19" x1="813" y1="212.06" x2="823.39" y2="212.06" xlink:href="#_ÂÁ_Ï_ÌÌ_È_ËÂÌÚ_760"/><linearGradient id="_ÂÁ_Ï_ÌÌ_È_ËÂÌÚ_189-7" x1="792.97" y1="239.98" x2="792.97" y2="231.98" xlink:href="#_ÂÁ_Ï_ÌÌ_È_ËÂÌÚ_189"/><linearGradient id="_ÂÁ_Ï_ÌÌ_È_ËÂÌÚ_189-8" x1="818.2" y1="225.47" x2="818.2" y2="216.53" xlink:href="#_ÂÁ_Ï_ÌÌ_È_ËÂÌÚ_189"/><linearGradient id="linear-gradient-3" x1="1212.14" y1="752.65" x2="1271.75" y2="623.04" xlink:href="#linear-gradient"/><linearGradient id="_ÂÁ_Ï_ÌÌ_È_ËÂÌÚ_201" x1="895.98" y1="575.27" x2="1083.9" y2="575.27" gradientUnits="userSpaceOnUse"><stop offset="0" stop-color="#ffcb68"/><stop offset="1" stop-color="#ff426b"/></linearGradient><linearGradient id="_ÂÁ_Ï_ÌÌ_È_ËÂÌÚ_4" x1="1151.02" y1="512.38" x2="1151.02" y2="719.79" gradientUnits="userSpaceOnUse"><stop offset="0" stop-color="#b6bae9"/><stop offset="1" stop-color="#fff"/></linearGradient><linearGradient id="_ÂÁ_Ï_ÌÌ_È_ËÂÌÚ_4-2" x1="1155.06" y1="512.39" x2="1155.06" y2="719.78" xlink:href="#_ÂÁ_Ï_ÌÌ_È_ËÂÌÚ_4"/><linearGradient id="_ÂÁ_Ï_ÌÌ_È_ËÂÌÚ_4-3" x1="1180.63" y1="512.37" x2="1180.63" y2="719.78" xlink:href="#_ÂÁ_Ï_ÌÌ_È_ËÂÌÚ_4"/><linearGradient id="_ÂÁ_Ï_ÌÌ_È_ËÂÌÚ_4-4" x1="1193.14" y1="512.37" x2="1193.14" y2="719.79" xlink:href="#_ÂÁ_Ï_ÌÌ_È_ËÂÌÚ_4"/><linearGradient id="_ÂÁ_Ï_ÌÌ_È_ËÂÌÚ_4-5" x1="1167.15" y1="512.38" x2="1167.15" y2="719.78" xlink:href="#_ÂÁ_Ï_ÌÌ_È_ËÂÌÚ_4"/><linearGradient id="_ÂÁ_Ï_ÌÌ_È_ËÂÌÚ_193-15" x1="1174" y1="398.84" x2="1174" y2="502.83" xlink:href="#_ÂÁ_Ï_ÌÌ_È_ËÂÌÚ_193"/><linearGradient id="_ÂÁ_Ï_ÌÌ_È_ËÂÌÚ_237-5" x1="1079.98" y1="493.94" x2="1110.84" y2="493.94" xlink:href="#_ÂÁ_Ï_ÌÌ_È_ËÂÌÚ_237"/><linearGradient id="_ÂÁ_Ï_ÌÌ_È_ËÂÌÚ_237-6" x1="1041.86" y1="482.06" x2="1187.68" y2="482.06" xlink:href="#_ÂÁ_Ï_ÌÌ_È_ËÂÌÚ_237"/><linearGradient id="_ÂÁ_Ï_ÌÌ_È_ËÂÌÚ_200-25" x1="1041.71" y1="502.91" x2="1187.68" y2="502.91" xlink:href="#_ÂÁ_Ï_ÌÌ_È_ËÂÌÚ_200"/><linearGradient id="_ÂÁ_Ï_ÌÌ_È_ËÂÌÚ_200-26" x1="1050.55" y1="485.83" x2="1161.24" y2="485.83" xlink:href="#_ÂÁ_Ï_ÌÌ_È_ËÂÌÚ_200"/><linearGradient id="_ÂÁ_Ï_ÌÌ_È_ËÂÌÚ_200-27" x1="1053.26" y1="486.51" x2="1159.05" y2="486.51" xlink:href="#_ÂÁ_Ï_ÌÌ_È_ËÂÌÚ_200"/><linearGradient id="_ÂÁ_Ï_ÌÌ_È_ËÂÌÚ_200-28" x1="1043.94" y1="462.95" x2="1133.23" y2="462.95" xlink:href="#_ÂÁ_Ï_ÌÌ_È_ËÂÌÚ_200"/></defs><title>hero-corporate-refresh-and-extend-your-legacy</title><path class="cls-2" d="M1142.66,784.51l-70.52-44a51,51,0,0,0-49.64.09L738.32,899.46c-34.92,19.52-34.82,69.8.17,89.19l72.3,45a51,51,0,0,0,49.86-.23l282.41-159.82C1177.77,853.92,1177.54,803.84,1142.66,784.51Z"/><path class="cls-3" d="M954.33,523.32,648,348.06a49.92,49.92,0,0,0-50.2.35L62.06,665.06a26.24,26.24,0,0,0-10.37,33.82,25.89,25.89,0,0,1,10.37-11.41L597.83,370.81a50,50,0,0,1,50.2-.35l306.3,175.26A25.93,25.93,0,0,1,965,557.32,26.24,26.24,0,0,0,954.33,523.32Z"/><path class="cls-4" d="M952.64,535.1,647.49,360.5a49.74,49.74,0,0,0-50,.35L63.75,676.31a26.17,26.17,0,0,0,.32,45.24L369.21,896.11a49.77,49.77,0,0,0,50-.35L953,580.34A26.17,26.17,0,0,0,952.64,535.1Z"/><g class="cls-5"><path class="cls-6" d="M815.51,512.57,650.37,420.92c-14.92-8.62-37.71-9.56-50.64-2.1L197.56,651c-12.93,7.46-11.3,20.62,3.63,29.24L366.33,771.9c14.93,8.62,37.72,9.56,50.64,2.1L819.15,541.81C832.07,534.34,830.44,521.19,815.51,512.57Z"/><path class="cls-7" d="M819.13,541.82,417,774c-12.94,7.46-35.72,6.52-50.64-2.08L201.17,680.25c-8.13-4.68-12.33-10.77-12.33-16.54,0,0,0,293.53,0,293.62-.28,5.91,3.88,12.24,12.34,17.1l165.11,92c14.92,8.6,37.7,9.55,50.64,2.08L819.13,836.33c5.77-3.31,8.6-7.75,8.74-12.42V529.68C827.64,534.21,824.75,538.56,819.13,541.82Z"/><path class="cls-8" d="M819.13,673,417,905.24c-12.94,7.46-35.72,6.52-50.64-2.13L188.88,804.32v8.53l177.45,98.79c14.92,8.6,37.7,9.54,50.64,2.08L819.13,681.55c5.86-3.35,8.69-7.89,8.74-12.61v-8.1C827.68,665.42,824.8,669.77,819.13,673Z"/><path class="cls-9" d="M819.13,670.31,417,902.52C404,910,381.25,909,366.33,900.39L188.88,801.6v8.53l177.45,98.79c14.92,8.6,37.7,9.55,50.64,2.08L819.13,678.83c5.86-3.35,8.69-7.89,8.74-12.61v-8.1C827.68,662.7,824.8,667.05,819.13,670.31Z"/><path class="cls-8" d="M819.13,641.72,417,873.94c-12.94,7.46-35.72,6.52-50.64-2.13L188.88,773v8.53l177.45,98.79c14.92,8.6,37.7,9.54,50.64,2.08L819.13,650.25c5.86-3.36,8.69-7.89,8.74-12.61v-8.11C827.68,634.12,824.8,638.46,819.13,641.72Z"/><path class="cls-9" d="M819.13,639,417,871.22c-12.94,7.46-35.72,6.52-50.64-2.13L188.88,770.3v8.53l177.45,98.79c14.92,8.6,37.7,9.54,50.64,2.08L819.13,647.53c5.86-3.35,8.69-7.89,8.74-12.61v-8.1C827.68,631.4,824.8,635.75,819.13,639Z"/></g><polygon class="cls-10" points="407.49 595.47 517.62 660.18 622.14 599.95 469.6 559.92 407.49 595.47"/><path class="cls-11" d="M569.39,523V510.39l-104.1,60.78v12.69a62.1,62.1,0,0,0,28.26,52.06l24.05,15.5,104.54-60.25-24.27-15.65A62.56,62.56,0,0,1,569.39,523Z"/><polygon class="cls-6" points="517.52 651.31 517.64 660.18 622.14 599.95 622.02 591.08 517.52 651.31"/><path class="cls-12" d="M681.73,75.83l-399,227.86c-7.33,4.19-13.33,14.39-13.3,22.79l.62,327.14c0,4.18,1.51,7.13,3.92,8.51l13.27,7.63c-2.41-1.39-3.91-4.33-3.92-8.51l-.62-327.14c0-8.4,6-18.6,13.31-22.79L695,83.45c3.74-2.13,7.13-2.33,9.56-.93L691.3,74.89C688.86,73.49,685.47,73.69,681.73,75.83Z"/><path class="cls-13" d="M695,83.45,296,311.32c-7.34,4.19-13.33,14.39-13.31,22.79l.62,327.14c0,8.4,6.06,11.8,13.39,7.61L695.71,441c7.4-4.22,13.39-14.48,13.37-22.89L708.46,91C708.44,82.57,702.41,79.23,695,83.45Z"/><path class="cls-14" d="M303.4,324.28c-2.71,1.54-5.79,6.76-5.78,9.8l.6,316.74L688.32,428c2.74-1.56,5.85-6.83,5.84-9.91l-.6-316.67Z"/><path class="cls-15" d="M876.92,746.75c.73,6.14-.41,21.27-.49,24.13s-2.18,15-2.69,17.78.46,5.19,2.13,4.46c1.89-.83,5.85-17.39,6.45-18.07,2.46-2.78,12.13-2.58,13.83-4.5,5.65-6.4-4.38-23.12-5.62-25.86S876.18,740.56,876.92,746.75Z"/><path class="cls-16" d="M850.32,612.31a15.44,15.44,0,0,0-2.45,1.3c-6.15,4-13,10.3-9.67,17.17,7.12,14.82,24.31,45.23,29.91,58.56,1.65,3.92,26.66-1.47,26.13-6.62-1.88-18.19-14.86-52.31-21.29-69.24C869.9,605.46,858.2,609,850.32,612.31Z"/><path class="cls-16" d="M866.81,686.3c.35,13.2,7.23,61.43,7.23,61.43,5.88,4.89,21.22.7,21.5-2.07.89-8.72,2.24-44.16-1.31-62.52C892.61,674.71,866.75,683.94,866.81,686.3Z"/><path class="cls-15" d="M690.09,561.45c-5-3.57-15.5-14.57-17.57-16.54s-9.64-11.66-11.39-13.92-4.16-3.14-4.74-1.4c-.65,1.95,9,16,9.08,16.89.42,3.69-6.21,10.74-5.93,13.28,1,8.49,20.09,12.26,23,13.17S695.18,565.05,690.09,561.45Z"/><path class="cls-17" d="M876.45,726.44l-50.47,25s14.73,72.94,35.13,105.38l35.44-16.14-14.4-64.28C891.78,754.12,878.45,736.12,876.45,726.44Z"/><path class="cls-18" d="M776.28,963.14l-27.76-15.61c-4.27-3.38-19.65-8.95-25.61-8.15-5.38.72-6,6.86-1.39,9.8,8.22,5.3,28.37,15.93,36.52,21.33,4.54,3,11.81,4.47,16.85,2.43S780.55,966.52,776.28,963.14Z"/><path class="cls-18" d="M755.77,938.54c-7.52,10.86-24.85-6.67-36.73,3.26,0,0,56.52,37.43,60.08,26.37,3.34-10.34,6.33-29.16,6.33-29.16l-27.39-9.29S756.79,937.07,755.77,938.54Z"/><path class="cls-19" d="M801.82,733.54c-13,17.85-26.5,87.3-26.5,87.3l38.26,16.66s52-75.31,39.88-104C850.9,727.5,809.42,723.11,801.82,733.54Z"/><path class="cls-20" d="M786.25,941.87c-6-5.52-17.5-10-25.64-10s-9.85,4.48-3.83,10,17.5,10,25.64,10S792.28,947.4,786.25,941.87Z"/><path class="cls-21" d="M809.5,821.09c-3.84-5-8.62-10-14.84-10.9a18.33,18.33,0,0,0-18.72,9.2c-3.65,6.7-22.46,111-22.58,115.49s36.18,14.3,36.18,14.3c10.16-29.16,25.7-109.73,25-113.63C813.79,831.13,812.22,824.64,809.5,821.09Z"/><path class="cls-22" d="M942.17,924.85a11.59,11.59,0,0,0-5.16,1c-.71.27-1.42.56-2.12.87A47.42,47.42,0,0,0,920,937.2c-.66.69-1.32,1.43-1.92,2.19-1.6,2-3.59,4.28-3.18,6.86.48,3,5.2,2.46,8.79,1.45a30,30,0,0,0,4.34-1.59,47.86,47.86,0,0,0,15.35-11,17,17,0,0,0,1.94-2.39,8.38,8.38,0,0,0,.77-1.41,5.05,5.05,0,0,0,.28-3.58A4.81,4.81,0,0,0,942.17,924.85Z"/><path class="cls-18" d="M932,921.22c-6.29,2.76-13.66,11.16-18.45,16.12-.75.78,8.5,6.95,8.15,11.58-.13,1.64-.71,15.88-1.81,23-.83,5.41-2.08,10.74,2.21,12.94l28.38-47.8C947.79,928.47,939,931.4,932,921.22Z"/><path class="cls-23" d="M934.34,947.39c-2.21,8.73-7.43,27.08-11.93,34.31-4.68,7.51,13.71,2.34,21.67-16.08,1.13-2.63,10.56-22.23,5.78-29.88C947.68,932.26,937.4,935.35,934.34,947.39Z"/><path class="cls-24" d="M861,856.52c2.48,7.23,52.11,89.78,54.33,90.72-2-6.91,25.7-29.34,30.74-19.69-14.65-27.18-46.79-84.77-50.62-89.15C892.51,835,858.52,849.3,861,856.52Z"/><path class="cls-16" d="M855,599.48c-9.67-1.42-88,2.23-71.38,30.75,7,12,4,91.57,8.4,117.77,1.38,8.18,86.45,4.83,86.45-19.89,0-6.8-1.94-96.55-2.42-103.66C875.33,613.45,867.61,601.34,855,599.48Z"/><path class="cls-15" d="M833.94,544.39A13.94,13.94,0,0,0,830,542c-5.07-2.25-10.65-3.78-16.13-2.95s-10.77,4.47-12.35,9.81a22.93,22.93,0,0,0-.72,5.6c-.46,12.7.42,25.6,4.25,37.7.17.52.34,1,.54,1.57v0a12.07,12.07,0,0,0,4.07,6,10.83,10.83,0,0,0,4.38,1.64,18.49,18.49,0,0,0,4.7.19,19.73,19.73,0,0,0,13.13-6.58,26.33,26.33,0,0,0,5.53-12.12,79.32,79.32,0,0,0,1.15-13.43c.18-6.76-.59-20.49-1.81-21.81C835.79,546.63,835,545.37,833.94,544.39Z"/><path class="cls-25" d="M809.85,602.67a1.15,1.15,0,0,1,0-.19Z"/><path class="cls-15" d="M814.66,576.76s5.09,15.31,1,29.66c-2.12,7.49,31.19,1.24,31.19,1.24l-1-40.66Z"/><path class="cls-15" d="M842.22,602.82c-6.17-2.22-16.05-2-22.09.57s-6,6.39.22,8.61,16,2,22.09-.58S848.38,605,842.22,602.82Z"/><path class="cls-26" d="M839.68,527.82c-21.5-9.48-48.54,13.25-40.69,27.93.86,1.61,6,.38,7.7,2.9,1.58,2.32-1.94,15.71,1.08,17.77,1.91,1.29,5.28-11.8,8.46-11.08,6,1.36,5.4,9,5.4,10.84,0,18.57,2.94,22.69,3.35,23,6.83,4.35,19.43,3.33,22.49-4.08C849.59,589.9,882.45,546.66,839.68,527.82Z"/><path class="cls-15" d="M820.3,563.16c-5.12-3.28-8.58,3.39-8.93,6.42-.32,2.71.71,12.79,3.81,13.82,3.94,1.31,5.75-3.55,6-5.75C821.56,573.48,825.8,566.68,820.3,563.16Z"/><path class="cls-16" d="M802.08,610.5c-15.76-4.66-49.85-12.3-63.49-17.08-4-1.41-16.79,20.76-12.61,23.81,14.75,10.81,48.77,24.06,65.64,30.64,8,3.12,13.19-7.94,16-16a14.53,14.53,0,0,0,.68-2.69C809.51,621.94,809.4,612.65,802.08,610.5Z"/><path class="cls-16" d="M691.3,558.66c-7.58,1.08-14.75,15.28-12.89,17.34,5.88,6.51,31.26,31.27,47.26,41,7.34,4.44,17.83-20.92,16.05-22.46C731.69,585.9,691.3,558.66,691.3,558.66Z"/><path class="cls-27" d="M747.32,122.84l63.93-38V40L747.32,78Zm3.08-43.63,57.76-34.3V83.63l-57.76,34.3Z"/><polygon class="cls-28" points="789.91 63.65 800.31 67.87 802.49 64.4 792.09 60.18 789.91 63.65"/><polygon class="cls-28" points="789.91 71.87 792.09 72.75 802.49 56.18 800.31 55.29 789.91 71.87"/><polygon class="cls-6" points="730.52 232.7 627.7 293.76 627.7 295.52 732.29 233.41 732.29 104.35 779.77 76.16 779.77 74.39 730.52 103.64 730.52 232.7"/><polygon class="cls-29" points="573.05 328.43 552.29 340.76 552.29 393.18 612.33 357.52 612.33 317.72 580.33 336.72 573.05 328.43"/><path class="cls-9" d="M608.05,291.21c-5,3-9.14,9.52-9.14,14.55s4.1,6.7,9.14,3.71,9.13-9.52,9.13-14.55S613.08,288.22,608.05,291.21Zm0,16.6c-4.12,2.44-7.47,1.08-7.47-3s3.35-9.45,7.47-11.9,7.46-1.08,7.46,3S612.16,305.36,608.05,307.81Z"/><polygon class="cls-9" points="603.88 305.81 605.05 306.28 612.21 294.87 611.04 294.39 603.88 305.81"/><polygon class="cls-9" points="603.88 299.82 611.04 302.73 612.21 300.86 605.05 297.95 603.88 299.82"/><path class="cls-9" d="M470.21,355.14c-5.9,3.51-10.7,11.16-10.7,17.06s4.8,7.85,10.7,4.35,10.7-11.16,10.7-17.06S476.12,351.64,470.21,355.14Zm0,19.65c-4.93,2.93-8.94,1.29-8.94-3.64s4-11.32,8.94-14.25,9-1.29,9,3.64S475.14,371.86,470.21,374.79Z"/><path class="cls-30" d="M470.21,345c-11.48,6.82-20.83,21.72-20.83,33.21s9.35,15.28,20.83,8.46,20.84-21.72,20.84-33.21S481.7,338.19,470.21,345Zm0,39.91c-10.51,6.25-19.07,2.77-19.07-7.75s8.56-24.15,19.07-30.4,19.08-2.77,19.08,7.75S480.73,378.67,470.21,384.92Z"/><path class="cls-31" d="M470.21,333c-18.11,10.76-32.85,34.25-32.85,52.37s14.74,24.1,32.85,13.34,32.86-34.25,32.86-52.36S488.33,322.23,470.21,333Zm0,63.95c-17.14,10.18-31.09,4.52-31.09-12.63s13.95-39.38,31.09-49.56,31.1-4.52,31.1,12.63S487.36,386.76,470.21,396.94Z"/><path class="cls-32" d="M470.21,313.57c-28.82,17.11-52.27,54.49-52.27,83.32s23.45,38.35,52.27,21.23,52.28-54.49,52.28-83.32S499,296.45,470.21,313.57Zm0,101.75c-27.28,16.2-49.47,7.19-49.47-20.09s22.19-62.66,49.47-78.86,49.48-7.19,49.48,20.1S497.5,399.12,470.21,415.32Z"/><polygon class="cls-33" points="314 371 458.95 284.93 458.95 280.24 314 366.32 314 371"/><polygon class="cls-34" points="466.18 280.64 471.08 277.73 471.08 273.04 466.18 275.95 466.18 280.64"/><polygon class="cls-35" points="487.09 438.76 512.16 423.86 512.16 418.77 487.09 433.67 487.09 438.76"/><polygon class="cls-36" points="487.09 447.58 531.49 421.22 531.49 416.13 487.09 442.5 487.09 447.58"/><polygon class="cls-37" points="487.09 456.41 520.99 436.28 520.99 431.19 487.09 451.32 487.09 456.41"/><polygon class="cls-38" points="487.09 465.24 504.62 454.83 504.62 449.74 487.09 460.15 487.09 465.24"/><polygon class="cls-9" points="355 382.66 371.59 381.36 371.59 378.89 357.61 380.19 357.61 380.11 371.59 364.81 371.59 362.34 355 380.73 355 382.66"/><polygon class="cls-9" points="373.91 383.71 376.31 382.29 386.31 350.43 383.88 351.88 373.91 383.71"/><polygon class="cls-9" points="388.57 354.72 402.65 353.37 402.65 353.44 388.57 368.81 388.57 371.27 405.15 352.92 405.15 350.92 388.57 352.26 388.57 354.72"/><polygon class="cls-39" points="202.45 392.8 217.44 383.9 217.44 377.2 202.45 386.1 202.45 392.8"/><polygon class="cls-40" points="202.45 404.61 241.13 381.64 241.13 374.95 202.45 397.91 202.45 404.61"/><polygon class="cls-41" points="202.45 416.42 241.13 393.46 241.13 386.76 202.45 409.73 202.45 416.42"/><polygon class="cls-42" points="245.79 390.69 254.09 385.76 254.09 379.06 245.79 383.99 245.79 390.69"/><polygon class="cls-43" points="202.45 428.24 235.55 408.58 235.55 401.89 202.45 421.54 202.45 428.24"/><polygon class="cls-44" points="797.32 346.31 820.05 332.82 820.05 326.12 797.32 339.62 797.32 346.31"/><polygon class="cls-45" points="797.32 358.13 836 335.16 836 328.46 797.32 351.43 797.32 358.13"/><polygon class="cls-46" points="797.32 369.94 813.85 360.13 813.85 353.43 797.32 363.24 797.32 369.94"/><polygon class="cls-47" points="818.51 357.35 826.8 352.43 826.8 345.73 818.51 350.66 818.51 357.35"/><polygon class="cls-48" points="797.32 381.75 830.42 362.1 830.42 355.4 797.32 375.05 797.32 381.75"/><polygon class="cls-49" points="836 358.78 849.46 350.79 849.46 344.09 836 352.09 836 358.78"/><path class="cls-9" d="M544.93,277.09c-8.64,5.13-17.38,12.38-17.38,16.33,0,2.37,3.33,2.35,9.13-.08a69.14,69.14,0,0,0,8.25-4.23,84.66,84.66,0,0,0,8.24-5.57c5.8-4.46,9.13-8.38,9.13-10.76C562.3,268.84,553.56,272,544.93,277.09Zm7.94,4.9a81.47,81.47,0,0,1-7.94,5.36,65.5,65.5,0,0,1-7.95,4.07c-5,2.11-7.66,2.07-7.66.95,0-1.77,5.93-7.78,15.61-13.52s15.61-6.8,15.61-5C560.54,275,557.9,278.12,552.87,282Z"/><path class="cls-9" d="M552.87,282a81.47,81.47,0,0,1-7.94,5.36,65.5,65.5,0,0,1-7.95,4.07c-5,2.11-7.66,2.07-7.66.95l-1.77,1.05v8.94c0,2.37,3.33,2.34,9.13-.08a69,69,0,0,0,8.25-4.22,84.72,84.72,0,0,0,8.24-5.58c5.8-4.46,9.13-8.38,9.13-10.75v-9l-1.76,1.05C560.54,275,557.9,278.12,552.87,282Zm7.67.78c0,1.12-2.64,4.28-7.67,8.16a81.47,81.47,0,0,1-7.94,5.36,65.5,65.5,0,0,1-7.95,4.07c-5,2.11-7.66,2.07-7.66.95v-6.16c1.53.18,4-.43,7.36-1.81a69.14,69.14,0,0,0,8.25-4.23,84.66,84.66,0,0,0,8.24-5.57,40.83,40.83,0,0,0,7.37-6.93Z"/><path class="cls-9" d="M552.87,290.93a81.47,81.47,0,0,1-7.94,5.36,65.5,65.5,0,0,1-7.95,4.07c-5,2.11-7.66,2.07-7.66.95l-1.77,1.05v8.94c0,2.37,3.33,2.34,9.13-.09l.08,0a67.82,67.82,0,0,0,8.17-4.19,82.43,82.43,0,0,0,8.16-5.51l.08-.05c5.8-4.47,9.13-8.39,9.13-10.76v-8.94l-1.76,1C560.54,283.89,557.9,287.05,552.87,290.93Zm7.67.78c0,1.12-2.61,4.26-7.6,8.1l-.08.06a80.11,80.11,0,0,1-7.93,5.36A65.42,65.42,0,0,1,537,309.3l-.08,0c-5,2.08-7.59,2-7.59.92v-6.17c1.53.19,4-.42,7.36-1.8a69,69,0,0,0,8.25-4.22,84.72,84.72,0,0,0,8.24-5.58,40.48,40.48,0,0,0,7.37-6.94Z"/><path class="cls-9" d="M552.94,299.81l-.08.06a80.11,80.11,0,0,1-7.93,5.36A65.42,65.42,0,0,1,537,309.3l-.08,0c-5,2.08-7.59,2-7.59.92l-1.77,1.05v8.94c0,3.95,8.74.82,17.38-4.31s17.37-12.38,17.37-16.32v-8.94l-1.76,1C560.54,292.83,557.93,296,552.94,299.81Zm7.6.84c0,1.78-5.94,7.78-15.61,13.52s-15.61,6.8-15.61,5V313c1.54.18,4-.43,7.36-1.82l.08,0a67.82,67.82,0,0,0,8.17-4.19,82.43,82.43,0,0,0,8.16-5.51l.08-.05a41.18,41.18,0,0,0,7.37-6.94Z"/><path class="cls-29" d="M539.6,227.48l-2.44,1.45c-.41-3.84-3.08-5.66-6.75-5h0q.06-.73.06-1.44c0-8.76-7.1-11.65-15.86-6.45-8,4.74-14.58,14.56-15.7,22.89h0c-6.42,5-11.47,13.06-12.67,20.19l-3.1,1.84c-2.73,1.62-4.94,5.14-4.94,7.88s2.21,3.64,4.94,2l56.46-33.53c2.72-1.62,4.93-5.14,4.93-7.88S542.32,225.86,539.6,227.48Z"/><path class="cls-9" d="M544.53,267.92a5.53,5.53,0,0,0-2.6,4.16c0,1.43,1.16,1.91,2.6,1.05a5.51,5.51,0,0,0,2.61-4.15C547.14,267.54,546,267.07,544.53,267.92Z"/><path class="cls-9" d="M510.72,259.1a5.53,5.53,0,0,0-2.6,4.15c0,1.44,1.16,1.92,2.6,1.06a5.51,5.51,0,0,0,2.61-4.15C513.33,258.72,512.16,258.25,510.72,259.1Z"/><polygon class="cls-9" points="511.16 261.44 510.28 261.97 510.28 277.14 544.1 257.06 544.1 270.79 544.97 270.27 544.97 255.66 511.16 275.74 511.16 261.44"/><polygon class="cls-50" points="330.52 680.92 425.71 624.39 425.71 507.52 330.52 564.05 330.52 680.92"/><polygon class="cls-29" points="341.1 581.44 394.93 549.48 394.93 540.26 341.1 572.22 341.1 581.44"/><polygon class="cls-29" points="341.1 601.13 391.44 571.24 391.44 562.01 341.1 591.91 341.1 601.13"/><polygon class="cls-29" points="341.1 620.81 382.22 596.4 382.22 587.18 341.1 611.59 341.1 620.81"/><polygon class="cls-29" points="341.1 640.5 367.26 624.96 367.26 615.74 341.1 631.28 341.1 640.5"/><polygon class="cls-29" points="341.1 660.19 394.93 628.23 394.93 619.01 341.1 650.97 341.1 660.19"/><polygon class="cls-9" points="380.08 503.31 381.97 502.19 381.97 401.59 380.08 402.72 380.08 503.31"/><polygon class="cls-29" points="367.06 518.83 394.99 502.24 394.99 490.46 367.06 507.05 367.06 518.83"/><polygon class="cls-29" points="367.06 414.07 394.99 397.48 394.99 385.7 367.06 402.29 367.06 414.07"/><polygon class="cls-51" points="367.06 449.6 394.99 433.02 394.99 421.24 367.06 437.83 367.06 449.6"/><polygon class="cls-9" points="345.3 436.93 381.51 415.43 381.51 413.54 343.41 436.16 343.41 495.64 406.21 458.35 406.21 456.45 345.3 492.62 345.3 436.93"/><polygon class="cls-52" points="332.37 506.3 356.34 492.06 356.34 481.96 332.37 496.19 332.37 506.3"/><polygon class="cls-53" points="400.68 465.74 424.65 451.5 424.65 441.39 400.68 455.63 400.68 465.74"/><polygon class="cls-54" points="368.57 484.11 392.54 469.88 392.54 459.77 368.57 474.01 368.57 484.11"/><polygon class="cls-55" points="233.36 581.05 321.47 528.73 321.47 410.23 233.36 462.55 233.36 581.05"/><polygon class="cls-56" points="240.89 474.45 262.39 461.68 262.39 456.57 240.89 469.34 240.89 474.45"/><polygon class="cls-57" points="240.89 484.84 286.65 457.67 286.65 452.56 240.89 479.73 240.89 484.84"/><polygon class="cls-58" points="292.15 454.4 310.18 443.69 310.18 438.58 292.15 449.29 292.15 454.4"/><polygon class="cls-29" points="240.89 495.23 254.09 487.39 254.09 482.29 240.89 490.13 240.89 495.23"/><polygon class="cls-59" points="259.83 483.98 274.79 475.1 274.79 469.99 259.83 478.87 259.83 483.98"/><polygon class="cls-60" points="277.42 473.54 305.57 456.82 305.57 451.71 277.42 468.43 277.42 473.54"/><polygon class="cls-61" points="240.89 505.63 262.39 492.86 262.39 487.75 240.89 500.52 240.89 505.63"/><polygon class="cls-62" points="253.02 508.82 264.94 501.73 264.94 496.63 253.02 503.71 253.02 508.82"/><polygon class="cls-63" points="268.56 499.59 295.4 483.64 295.4 478.54 268.56 494.48 268.56 499.59"/><polygon class="cls-58" points="300.12 480.85 312.19 473.68 312.19 468.57 300.12 475.74 300.12 480.85"/><polygon class="cls-29" points="253.02 519.21 270.92 508.58 270.92 503.47 253.02 514.1 253.02 519.21"/><polygon class="cls-58" points="273.31 507.16 280.36 502.97 280.36 497.87 273.31 502.05 273.31 507.16"/><polygon class="cls-64" points="284.06 500.77 297.96 492.52 297.96 487.42 284.06 495.67 284.06 500.77"/><polygon class="cls-65" points="301.71 490.3 310.59 485.02 310.59 479.91 301.71 485.19 301.71 490.3"/><polygon class="cls-66" points="253.02 529.6 264.94 522.52 264.94 517.41 253.02 524.5 253.02 529.6"/><polygon class="cls-29" points="268.83 520.21 280.76 513.13 280.76 508.02 268.83 515.11 268.83 520.21"/><polygon class="cls-67" points="240.89 547.2 262.39 534.43 262.39 529.32 240.89 542.09 240.89 547.2"/><polygon class="cls-9" points="314.87 353.4 321.59 352.87 321.59 351.88 315.93 352.4 315.93 352.37 321.59 346.17 321.59 345.17 314.87 352.62 314.87 353.4"/><path class="cls-9" d="M327.12,342.43a5.38,5.38,0,0,0-1.31,1.13,5.78,5.78,0,0,0-.91,1.44l0,0v-4.37l-1.27.75v10.28l1.27-.76V346.7A2,2,0,0,1,325,346a4.07,4.07,0,0,1,1.71-2.29c1.2-.72,1.62,0,1.62,1.12v4l1.27-.76V344C329.56,341.55,328.06,341.87,327.12,342.43Z"/><path class="cls-9" d="M333.11,337l-1.24,1.08v1.68l-1.09.64v1l1.09-.64v3.82c0,.82.13,1.37.49,1.53s.78.07,1.37-.28a5.58,5.58,0,0,0,1.13-.85l-.06-.92a4.37,4.37,0,0,1-.74.53c-.7.42-.95.07-.95-.8V340l1.83-1.09v-1L333.11,339Z"/><path class="cls-9" d="M344.07,332.36a5,5,0,0,0-1.55,1.41,6.29,6.29,0,0,0-.78,1.38l0,0c-.3-.65-1-.8-2-.23a5.51,5.51,0,0,0-2.19,2.59l0,0-.06-1.09-1.11.66c0,.55.06,1.13.06,1.86v5.11l1.24-.74v-4.23a2.38,2.38,0,0,1,.1-.68,3.91,3.91,0,0,1,1.58-2.21c1-.58,1.46-.06,1.46,1.06v4.19l1.25-.73v-4.33a2.69,2.69,0,0,1,.1-.7,3.74,3.74,0,0,1,1.5-2.05c1-.61,1.52-.09,1.52,1.25v4l1.25-.74V334C346.37,331.6,345,331.81,344.07,332.36Z"/><polygon class="cls-9" points="348.44 336.93 349.71 336.17 349.71 325.89 348.44 326.65 348.44 336.93"/><polygon class="cls-9" points="351.75 328.26 357.46 327.71 357.46 327.74 351.75 333.96 351.75 334.96 358.47 327.53 358.47 326.72 351.75 327.26 351.75 328.26"/><path class="cls-6" d="M512.32,488.45a10,10,0,0,0-.73-1.5l1.56-6.78-5.78-1.93-5.72,5.41a19.19,19.19,0,0,0-4,1.46l-4.28-1.74-7.54,6.81-1.12,6.61a40.36,40.36,0,0,0-2.79,4.68l-5.86,5-1.75,8.73,4.6,1.22a11.63,11.63,0,0,0,.48,1.71,9,9,0,0,0,.74,1.49l-1.57,6.79,5.78,1.92,5.72-5.4a19.62,19.62,0,0,0,4-1.47l4.28,1.74,7.54-6.8,1.12-6.62a39.53,39.53,0,0,0,2.79-4.68l5.86-5,1.75-8.73-4.6-1.22A11.29,11.29,0,0,0,512.32,488.45ZM499,511.63c-5.62,5.08-11.61,5.47-13.34.88s1.42-12.45,7-17.52,11.61-5.47,13.34-.88S504.62,506.56,499,511.63Z"/><path class="cls-68" d="M553.92,460.14l2.28-5.32L553,451.67l-4.56,3.05a8.24,8.24,0,0,0-1.32,0,10.1,10.1,0,0,0-1.42.2l-2.28-2.59-6,3.75-2,5.3a31.44,31.44,0,0,0-2.62,3.2l-4.57,2.71-2.78,6.91,2.58,2.24a12.46,12.46,0,0,0,.12,3L526,484.77l3.16,3.15,4.56-3.05a8.34,8.34,0,0,0,1.33,0,10.18,10.18,0,0,0,1.41-.2l2.29,2.6,5.94-3.76,2-5.3a31.76,31.76,0,0,0,2.63-3.2l4.56-2.71,2.78-6.91L554,463.17A12.46,12.46,0,0,0,553.92,460.14Zm-5.71,9.19c-2.08,5.15-7,9.55-10.87,9.81s-5.43-3.72-3.37-8.87,6.95-9.56,10.88-9.82S550.27,464.17,548.21,469.33Z"/><path class="cls-9" d="M646.75,165.43l-2.34-7.33-6.76,2.47a9,9,0,0,0-1.56-.84,9.71,9.71,0,0,0-1.77-.51l-1.54-5.85-8.72,2.85-4.72,7.89a40.73,40.73,0,0,0-4.55,3.91l-6.62,1.89-6.39,10.17,2.05,5.41a29.63,29.63,0,0,0-1.21,5.27l-5.09,7.74,2.33,7.33,6.77-2.47a9,9,0,0,0,1.56.84,9.38,9.38,0,0,0,1.76.51l1.54,5.85,8.73-2.85,4.72-7.89a41.57,41.57,0,0,0,4.54-3.91L636.1,194l6.39-10.17-2-5.41a29.69,29.69,0,0,0,1.22-5.27Zm-16,20c-4.76,7.59-12.51,12.19-17.27,10.26s-4.76-9.68,0-17.27S626,166.27,630.77,168.2,635.53,177.88,630.77,185.47Z"/><polygon class="cls-69" points="801.65 263.64 812.83 257 812.83 249.82 801.65 256.46 801.65 263.64"/><polygon class="cls-70" points="805.7 290.01 751.27 322.33 751.27 364.43 630.16 436.35 630.16 439.43 754.35 365.68 754.35 323.58 808.78 291.26 808.78 255.81 805.7 257.64 805.7 290.01"/><polygon class="cls-71" points="581.7 478.81 673.29 427.22 673.29 334.96 581.7 386.55 581.7 478.81"/><path class="cls-29" d="M662,367.8c-2.78,2.7-4.78,6.13-6.71,9.46-2.28,3.92-4.43,7.64-7.69,9.94-3.47,2.46-6.73,2.07-8.63.89a14.61,14.61,0,0,1-3.6-3.63c-.53-.68-1.08-1.38-1.68-2-2.3-2.47-4.87-3.28-7.88-2.48-5.29,1.42-10.8,7.69-13.91,13.27A79.92,79.92,0,0,0,606.79,405c-.64,1.74-1.31,3.54-2,5.3-2.83,6.94-6.32,12.14-10.36,15.48a.85.85,0,0,0-.36.81c.06.19.27.21.5.09l.14-.1c4.34-3.58,8.05-9.08,11-16.36.73-1.79,1.4-3.61,2-5.36a79.27,79.27,0,0,1,4.93-11.44c2.89-5.18,8-11,12.77-12.28,2.74-.73,5.12,0,7.28,2.36.58.62,1.13,1.32,1.66,2a15,15,0,0,0,3.71,3.74c2.08,1.29,5.71,1.68,9.61-1.08,3.65-2.59,6-6.7,8.35-10.67,1.85-3.19,3.76-6.48,6.3-8.95.27-.26.39-.62.28-.81S662.21,367.54,662,367.8Z"/><polygon class="cls-72" points="588.34 388.4 586.76 389.29 586.76 440.35 668.24 394.46 668.24 392.96 588.34 437.97 588.34 388.4"/><polygon class="cls-73" points="587.55 454.15 607.82 442.74 607.82 437.21 587.55 448.63 587.55 454.15"/><polygon class="cls-74" points="611.92 440.42 632.19 429.01 632.19 423.49 611.92 434.9 611.92 440.42"/><polygon class="cls-58" points="636.62 426.51 646.75 420.81 646.75 415.29 636.62 420.99 636.62 426.51"/><polygon class="cls-75" points="587.55 461.83 607.82 450.42 607.82 444.89 587.55 456.31 587.55 461.83"/><polygon class="cls-29" points="611.92 448.1 632.19 436.69 632.19 431.16 611.92 442.58 611.92 448.1"/><polygon class="cls-58" points="636.62 434.19 646.75 428.49 646.75 422.96 636.62 428.67 636.62 434.19"/><polygon class="cls-76" points="587.55 469.51 607.82 458.09 607.82 452.57 587.55 463.99 587.55 469.51"/><polygon class="cls-77" points="611.92 455.78 632.19 444.37 632.19 438.84 611.92 450.26 611.92 455.78"/><polygon class="cls-58" points="636.62 441.87 646.75 436.17 646.75 430.64 636.62 436.35 636.62 441.87"/><path class="cls-58" d="M599.68,287.39l63.92-38V204.55l-63.92,38Zm3.08-43.63,57.76-34.3v38.72l-57.76,34.3Z"/><polygon class="cls-58" points="642.27 228.2 652.67 232.42 654.85 228.95 644.44 224.72 642.27 228.2"/><polygon class="cls-58" points="642.27 236.42 644.44 237.3 654.85 220.73 652.67 219.84 642.27 236.42"/><path class="cls-58" d="M549.5,417a4.56,4.56,0,0,0-.77,1.14,4.87,4.87,0,0,0-.42,1.45,16.91,16.91,0,0,0-.11,2.37,18.75,18.75,0,0,1-.11,2.5,4.3,4.3,0,0,1-.47,1.48,1.83,1.83,0,0,1-.87.83v2.12a1.37,1.37,0,0,1,.52-.1h0a.84.84,0,0,1,.57.46,3.2,3.2,0,0,1,.26,1,15.63,15.63,0,0,1,.06,1.68,20.57,20.57,0,0,0,.11,2.62,1.61,1.61,0,0,0,.37.88.77.77,0,0,0,.54.18l.21,0a3.58,3.58,0,0,0,1.2-.53l.25,0V433a1.58,1.58,0,0,1-.75.28h0a.53.53,0,0,1-.48-.32,2.31,2.31,0,0,1-.12-.9q0-.65-.06-2.37a6.85,6.85,0,0,0-.17-1.48,2,2,0,0,0-.31-.73,1.25,1.25,0,0,0-.58-.39l-.22-.1.13-.2a6,6,0,0,0,1-2.44,12.7,12.7,0,0,0,.17-1.83c0-1.14,0-1.86,0-2.17a3.43,3.43,0,0,1,.12-1,2,2,0,0,1,.35-.65,2,2,0,0,1,.88-.56V416l0,0A6.2,6.2,0,0,0,549.5,417Z"/><path class="cls-58" d="M560.92,418.36a.74.74,0,0,1-.56-.46,2.59,2.59,0,0,1-.27-1,12.94,12.94,0,0,1-.06-1.67,18.76,18.76,0,0,0-.12-2.63,1.51,1.51,0,0,0-.36-.88.72.72,0,0,0-.53-.17h-.23a3.65,3.65,0,0,0-1.2.54l-.25,0v2.08a1.65,1.65,0,0,1,.74-.27.56.56,0,0,1,.49.31,2.24,2.24,0,0,1,.12.9c0,.42,0,1.18.06,2.32a7.56,7.56,0,0,0,.17,1.53,2.06,2.06,0,0,0,.35.77,1,1,0,0,0,.52.34l.26.07-.14.23a7.21,7.21,0,0,0-.7,1.32,8.31,8.31,0,0,0-.41,1.89c0,.5-.09,1.55-.11,3.16a5.28,5.28,0,0,1-.1,1.11,1.56,1.56,0,0,1-.34.63,1.86,1.86,0,0,1-.91.58v2.06l0,0a6.12,6.12,0,0,0,1.33-1,4.34,4.34,0,0,0,.77-1.13,5.62,5.62,0,0,0,.42-1.46,17,17,0,0,0,.11-2.37,21.17,21.17,0,0,1,.1-2.5,4.88,4.88,0,0,1,.47-1.47,1.87,1.87,0,0,1,.88-.84v-2.11a1.48,1.48,0,0,1-.51.09Z"/><polygon class="cls-58" points="551.61 428.98 556.6 426.17 556.6 424.33 551.61 427.14 551.61 428.98"/><polygon class="cls-58" points="551.61 425.92 556.6 423.11 556.6 421.27 551.61 424.09 551.61 425.92"/><polygon class="cls-58" points="551.61 422.87 554.34 421.38 554.34 419.53 551.61 421.03 551.61 422.87"/><path class="cls-78" d="M519.4,386.58l-1.08-1-2.77,7.59a2.17,2.17,0,0,0,.07,2l3.37,3.15.61-1.81-2.89-2.71Z"/><path class="cls-79" d="M528.75,377.93,528,380l3,2.77-2.66,7.29,1.09,1,2.9-7.94a3,3,0,0,0,.18-1.22,1.19,1.19,0,0,0-.26-.79Z"/><polygon class="cls-80" points="521.52 399.48 522.84 399.55 526.67 376.57 525.36 376.5 521.52 399.48"/><polygon class="cls-29" points="755.56 284.56 831.38 239.54 831.38 156.57 755.56 201.59 755.56 284.56"/><polygon class="cls-9" points="762.03 211.83 780.54 200.84 780.54 196.45 762.03 207.43 762.03 211.83"/><polygon class="cls-9" points="762.03 220.77 801.41 197.39 801.41 192.99 762.03 216.38 762.03 220.77"/><polygon class="cls-81" points="806.14 194.58 821.66 185.37 821.66 180.97 806.14 190.18 806.14 194.58"/><polygon class="cls-82" points="762.03 229.72 773.39 222.97 773.39 218.57 762.03 225.32 762.03 229.72"/><polygon class="cls-83" points="778.34 220.03 791.21 212.39 791.21 207.99 778.34 215.64 778.34 220.03"/><polygon class="cls-9" points="793.47 211.05 817.7 196.66 817.7 192.26 793.47 206.66 793.47 211.05"/><polygon class="cls-84" points="762.03 238.66 780.54 227.67 780.54 223.28 762.03 234.26 762.03 238.66"/><polygon class="cls-85" points="772.47 241.41 782.73 235.31 782.73 230.92 772.47 237.01 772.47 241.41"/><polygon class="cls-86" points="785.85 233.47 808.95 219.75 808.95 215.35 785.85 229.07 785.85 233.47"/><polygon class="cls-87" points="813 217.34 823.39 211.17 823.39 206.77 813 212.94 813 217.34"/><polygon class="cls-82" points="772.47 250.35 787.88 241.2 787.88 236.81 772.47 245.96 772.47 250.35"/><polygon class="cls-88" points="789.93 239.98 796 236.38 796 231.98 789.93 235.59 789.93 239.98"/><polygon class="cls-9" points="799.18 234.49 811.15 227.38 811.15 222.99 799.18 230.09 799.18 234.49"/><polygon class="cls-89" points="814.37 225.47 822.02 220.93 822.02 216.53 814.37 221.07 814.37 225.47"/><polygon class="cls-9" points="772.47 259.29 782.73 253.2 782.73 248.8 772.47 254.9 772.47 259.29"/><polygon class="cls-82" points="786.08 251.21 796.34 245.12 796.34 240.72 786.08 246.82 786.08 251.21"/><polygon class="cls-29" points="762.03 274.43 780.54 263.45 780.54 259.05 762.03 270.04 762.03 274.43"/><polygon class="cls-9" points="469.57 525.96 412.14 559.1 412.14 560.47 470.94 526.51 470.94 365.4 469.57 366.21 469.57 525.96"/><path class="cls-9" d="M470.25,361.75c-2.23,1.33-4,4.22-4,6.46s1.81,3,4,1.64,4.05-4.22,4.05-6.45S472.49,360.43,470.25,361.75Z"/><path class="cls-9" d="M412.72,555.4c-2.24,1.33-4.05,4.22-4.05,6.45s1.81,3,4.05,1.65,4-4.22,4-6.45S415,554.07,412.72,555.4Z"/><path class="cls-90" d="M1341.24,644.4l-32.09-17.78a27.49,27.49,0,0,0-26.76,0L1129.2,712.29a27.52,27.52,0,0,0,.09,48.08l33,18.31a27.49,27.49,0,0,0,26.88-.13l152.24-86.15A27.51,27.51,0,0,0,1341.24,644.4Z"/><path class="cls-91" d="M1080.12,639.12A17.07,17.07,0,0,1,1055,654.21L926.61,586.1A20.86,20.86,0,0,0,896,604.54v9.53l3.77-2.29v-7.24a17.09,17.09,0,0,1,25.09-15.1l128.43,68.11a20.87,20.87,0,0,0,30.63-18.43V490.54h-3.78Z"/><path class="cls-16" d="M1168.17,339.87c-4.05.11-10.71,2.61-15.61,9.86-9.92,14.65,1.62,17.23-6.57,35.22-4.36,9.6-12.1,26.87,9.62,57.52,2.69,3.79,21-58.63,20.22-61.51C1174.17,375,1175.13,339.69,1168.17,339.87Z"/><path class="cls-25" d="M1160.16,408.43l-.18,0a9.56,9.56,0,0,0-11,7.19s-7.37,35.58-10.38,45.61c-1.52,5.09,14.84,13.72,16.56,9.68,5-11.9,12.7-50.7,12.7-50.7A9.64,9.64,0,0,0,1160.16,408.43Z"/><path class="cls-25" d="M1140.17,456.9c-5.49,2-44.4,25.22-58.44,27.68-2.39.42,6,8.17,6,8.17,4.73-2.66,46.73-11.52,57.6-16.41,5.27-2.37,10.28-5.34,9-11.31C1152.29,456,1145.6,454.9,1140.17,456.9Z"/><path class="cls-25" d="M1086.86,484.41a12.79,12.79,0,0,0-5-.13,19.26,19.26,0,0,0-3.85.58c-2.28.76-4.14,2.77-6.47,3.38s-3.28,1.18-5.57,1.94c-2,.68-5.75,1.44-5.69,2.73.08,1.68,3.6,4.92,4.56,5.47a5.62,5.62,0,0,0,1.46.66,5.34,5.34,0,0,0,1.91,0l5.93-.88a23,23,0,0,0,4.27-.92c3.08-1.08,5.74-3.88,8.79-4.81C1091.13,491.21,1089.72,485.14,1086.86,484.41Z"/><path class="cls-25" d="M1072.84,481.57a41.6,41.6,0,0,1-6.79.11,1.84,1.84,0,0,0,.45,2.48,4,4,0,0,0,2.66.65c4.88-.12,6.52,1.7,8.46,2.43a14.6,14.6,0,0,0,5.86.51c1.18-.05,1.57-3,2-4.07a85.39,85.39,0,0,0-9.41-2.41A19.06,19.06,0,0,0,1072.84,481.57Z"/><path class="cls-18" d="M1163,402.6a11.81,11.81,0,0,0-1.6-.46,12.19,12.19,0,0,0-9.33,1.63c-2.73,1.76-6.59,7.31-7.28,10.48l-4.89,27.18s14,7.34,24.21,3.94c0,0,5-21.57,6.6-28.77A12.16,12.16,0,0,0,1163,402.6Z"/><path class="cls-25" d="M1170.88,528.17h-38.53c-2.52,32.37,2.78,52.24,6.74,94,.44,4.69,9.21,67.09,6.58,89.81-1,8.57-10.83,22.38-10.91,25.61s8.31,4.72,9,4.48,18.57-33,18.57-33c-6.92-17,9.5-71.43,1.45-91.91C1169.12,575.82,1171.68,528.13,1170.88,528.17Z"/><path class="cls-58" d="M1160.7,704.59s2.68,3.23-.34,5.87c-7.83,6.82-11.45,23.56-18.86,25.73-5.17,1.51-6-1.84-6-1.84s-4,5.74-7.64,6.53c-1.47.32-3.74,2.86-1.11,4,4.75,2.06,13.07,1.6,18.56-.85,6.3-2.81,9.9-18.19,15.87-22.61C1164.93,718.62,1167.56,709.38,1160.7,704.59Z"/><path class="cls-25" d="M1197.59,638.3c2.38-41.63,1.59-89.38.8-89.28L1160,551.71c-.25,32.47,6.43,51.92,13.31,93.32.77,4.64,13.88,66.28,12.85,89.13-.38,8.62-8.89,22.89-8.74,26.12s8.62,4.12,9.34,3.84,15.86-34,15.86-34C1194.48,713.62,1207.05,658.17,1197.59,638.3Z"/><path class="cls-58" d="M1200.59,725.71s2.89,3,.06,5.89c-7.33,7.35-9.42,24.11-16.66,26.79-5,1.87-6.16-1.41-6.16-1.41s-3.62,6-7.17,7c-1.44.42-3.53,3.11-.82,4.07,4.88,1.73,13.14.69,18.45-2.14,6.09-3.24,8.26-18.65,13.91-23.48C1205.79,739.41,1207.76,730,1200.59,725.71Z"/><path class="cls-58" d="M1203.42,759.86c.72.35.91-.27.91-.27s.1-14.29.77-22.38l-3.89,2.3Z"/><path class="cls-16" d="M1219.75,421.27c-7.85-21.58-1.12-28.34-6-37.73-6-11.77-21.76-8.7-23.42,10.74-2.4,28.25-1.46,48.22-2.4,52-9.24,37.11,31.94,59.84,28.34,54.79-6.49-9.06,7.85-19.65,1.68-38.43C1212.52,445.93,1225.55,437.22,1219.75,421.27Z"/><path class="cls-58" d="M1161.13,738.85c.7.4.94-.21.94-.21s1.1-14.25,2.33-22.26l-4,2Z"/><path class="cls-92" d="M1172,527.67l-1-1.24-1.79-.1-39.31,15.07s14.48,138.16,15.14,160.91c2.65-.28,15.34,2.77,20.08,4.56-.53-7.67-2-23.22-.53-37.79,2-19.06,4.85-38.53.58-50.13C1167.68,595.34,1173.06,528.88,1172,527.67Z"/><path class="cls-93" d="M1161.61,702a21.12,21.12,0,0,0-3.43-1.72c-.52-.2-1-.39-1.6-.57l-.43-.14a28.9,28.9,0,0,0-3-.74c-2.82-.54-2.76.45-4.89,1a6.1,6.1,0,0,0-1.81.71,1.28,1.28,0,0,0-.25.15,2.72,2.72,0,0,0-.87.89,2,2,0,0,0-.29,1.16,2.7,2.7,0,0,0,.16.81,3.72,3.72,0,0,0,.39.77,9.31,9.31,0,0,0,2.94,2.68,16.46,16.46,0,0,0,13.37,2.2c2.2-.54,3.27-1.61,3.22-2.91S1163.89,703.48,1161.61,702Z"/><path class="cls-94" d="M1202.2,688.86c1-19.14,2-38.91-2.84-50.28,1.33-23.7,3.36-90,2.26-91.15l-2.9-1.2-42.06,2.95S1180,700.1,1181.79,722.79c2.63-.42,5.91,1.49,8.69,1.49a43.9,43.9,0,0,1,14.13,2.1C1203.48,716.79,1201.44,703.49,1202.2,688.86Z"/><path class="cls-95" d="M1201.31,723.53a26.33,26.33,0,0,0-3.38-1.26c-.5-.16-1-.31-1.57-.44l-.43-.12c-1-.24-2-.45-3-.62a31.07,31.07,0,0,0-7.83-.47,9.62,9.62,0,0,0-1.87.35l-.26.08a2.52,2.52,0,0,0-.93.51.93.93,0,0,0-.36.71,1.06,1.06,0,0,0,.12.52,1.83,1.83,0,0,0,.35.5,8.61,8.61,0,0,0,2.82,1.83,37.2,37.2,0,0,0,16.22,2.91c2.26-.22,3.4-.84,3.43-1.65S1203.54,724.55,1201.31,723.53Z"/><path class="cls-96" d="M1145.11,487.78c-14.92,18.21-17.44,37.73-15.23,53.62L1201,563c11.09-36.53-3.44-45.12-4.24-63.28C1196.14,486.8,1153.33,477.76,1145.11,487.78Z"/><path class="cls-97" d="M1172.58,401.68c-19.53-2.22-20.3,3.07-24,16.84-3.55,13.26-17.75,25.46-3.57,37.55,7,5.93-7.34,28.88-11.12,50.56,5.77,8.31,49.53,18.84,65.56,6,0,0-6-29.32,5-49.7,4.5-8.3,10.53-16.74,9.51-26.7C1212.28,419.52,1189,403.56,1172.58,401.68Z"/><path class="cls-25" d="M1187.48,404.5a15.17,15.17,0,0,0-3.68-1.44c-.55-.14-1.12-.26-1.71-.35l-.46-.08a22.12,22.12,0,0,0-3.26-.19,18,18,0,0,0-8.43,2.06,9.57,9.57,0,0,0-2,1.5l-.27.28a5.6,5.6,0,0,0-1,1.5,4.14,4.14,0,0,0-.37,1.7,4.09,4.09,0,0,0,.15,1.09,4.19,4.19,0,0,0,.39,1,7.5,7.5,0,0,0,3.09,2.92c4.84,2.76,12.7,2.76,17.54,0,2.42-1.37,3.63-3.18,3.63-5S1189.9,405.88,1187.48,404.5Z"/><path class="cls-25" d="M1168.73,370.86c6.71,14-2.27,37.55-2.27,37.55l24.65,1.07V397.2c0-9.49,5.89-20.26,5.89-25.73S1166,365.27,1168.73,370.86Z"/><path class="cls-25" d="M1176.07,346.67c-11.33-5.78-21.25,3-22.14,8.83-.25,1.67-1.68,8.64-1.68,11.22,0,12,4.08,32.72,11.21,34.8,5,1.46,18.45-3.15,22.67-15.84C1191.17,370.51,1192.1,354.83,1176.07,346.67Z"/><path class="cls-16" d="M1166.07,340.09c-7.18,3.92-11,12.34-11,12.34,1.15,6.44,9.7,17.53,24.91,22.63,8.85,3-5.13,7,1.74,26.78,1.91,5.51-15,5.94-13.58,28.67,1.13,17.29-13,33.13-2,43.14,1.71,1.55-3.32,13.72,6,21.6,1.33,1.13-.71-59.81,27.36-78.72,15.12-10.19,12.84-25.24,14.28-33,2.73-14.75-9.37-24-11.37-29.46C1195.62,335.4,1173.75,335.91,1166.07,340.09Z"/><path class="cls-25" d="M1202.94,433.24l-.18,0a9.58,9.58,0,0,0-11,7.19S1184.41,476,1181.4,486c-1.53,5.09,14.84,13.72,16.55,9.68,5-11.9,12.7-50.7,12.7-50.7A9.64,9.64,0,0,0,1202.94,433.24Z"/><path class="cls-25" d="M1184.21,483.36c-5.52,1.94-44.74,24.61-58.8,26.89-2.4.38,5.83,8.24,5.83,8.24,4.77-2.59,46.88-10.88,57.82-15.62,5.31-2.31,10.35-5.21,9.13-11.2C1196.34,482.64,1189.67,481.43,1184.21,483.36Z"/><path class="cls-25" d="M1129.7,510.09a12.85,12.85,0,0,0-4.85,1.29,18.79,18.79,0,0,0-3.52,1.64c-2,1.38-3.19,3.84-5.25,5.08s-2.81,2-4.8,3.43c-1.76,1.23-5.11,3-4.69,4.23.55,1.59,4.85,3.7,5.93,4a4,4,0,0,0,3.39-.36l5.44-2.52a22.38,22.38,0,0,0,3.85-2.09c2.64-1.91,4.4-5.35,7.07-7.1C1135.71,515.4,1132.64,510,1129.7,510.09Z"/><path class="cls-25" d="M1118.51,510.11a19.13,19.13,0,0,0-3.06,1.22,42.81,42.81,0,0,1-6.49,2,1.83,1.83,0,0,0,1.13,2.25,4.14,4.14,0,0,0,2.75-.12c4.64-1.5,6.72-.22,8.79-.07a14.6,14.6,0,0,0,5.76-1.16c1.13-.39.67-3.3.82-4.48A83.38,83.38,0,0,0,1118.51,510.11Z"/><path class="cls-18" d="M1205.8,427.41a11.41,11.41,0,0,0-1.6-.46,12.16,12.16,0,0,0-9.33,1.63c-2.72,1.76-6.59,7.31-7.27,10.48l-7.48,37.78a7.17,7.17,0,0,0,4.69,8.14,38.28,38.28,0,0,0,12.65,2.38,7.1,7.1,0,0,0,6.82-5.54c2.37-10.33,8-34.77,9.23-40.41A12.15,12.15,0,0,0,1205.8,427.41Z"/><path class="cls-98" d="M1110.08,493.24l-14-8a4.21,4.21,0,0,0-3.9.15l-11.34,7c-1.11.67-1.15,1.71-.1,2.31l14,8a4.19,4.19,0,0,0,3.89-.14l11.34-7C1111.09,494.86,1111.13,493.83,1110.08,493.24Z"/><path class="cls-99" d="M1186.84,486.16l-81.64-46.57a4.67,4.67,0,0,0-4.31.16l-58.08,35.65c-1.23.76-1.28,1.9-.11,2.56l81.64,46.57a4.67,4.67,0,0,0,4.31-.15l58.08-35.66C1188,488,1188,486.82,1186.84,486.16Z"/><path class="cls-100" d="M1186.73,488.72l-58.08,35.66-.47.24-.08,0a3.52,3.52,0,0,1-.42.15l-.09,0a2.88,2.88,0,0,1-.49.11H1127l-.51.05h-.09a4.34,4.34,0,0,1-.51,0h-.08a2.2,2.2,0,0,1-.37-.05l-.3-.07a.86.86,0,0,1-.23-.06,2.38,2.38,0,0,1-.59-.25L1042.7,478a.91.91,0,0,1-.19-.13l-.21-.15a1.79,1.79,0,0,1-.23-.26l0-.06a1.17,1.17,0,0,1-.13-.28,0,0,0,0,1,0,0,.93.93,0,0,1,0-.33l-.14,4.12v0a.55.55,0,0,0,0,.18.26.26,0,0,0,0,.11v0a0,0,0,0,0,0,0,.71.71,0,0,0,.08.18l.05.08,0,0,0,.05c0,.07.11.13.18.21h0l.21.15.14.11,0,0,81.65,46.57a3.07,3.07,0,0,0,.58.25.15.15,0,0,1,.07,0l.16,0,.3.06.11,0,.26,0h.78a1.53,1.53,0,0,0,.3,0h.3l.3-.08.08,0,.09,0,.15,0,.28-.11.07,0,0,0a3.17,3.17,0,0,0,.45-.23l58.08-35.65a1.75,1.75,0,0,0,1-1.33l.14-4.11A1.69,1.69,0,0,1,1186.73,488.72Z"/><polygon class="cls-101" points="1050.55 473 1129.59 518.09 1161.24 498.67 1082.19 453.57 1050.55 473"/><path class="cls-102" d="M1156,499.31a1,1,0,0,1-.25.11h0a.84.84,0,0,1-.27,0h0a1,1,0,0,1-.26,0h0a.85.85,0,0,1-.24-.08l-3.56-2-.13-.12,2.5-1.55a.43.43,0,0,0,.23-.32l0-1a.43.43,0,0,1-.23.32l-2.87,1.76-.25.11h0a1.26,1.26,0,0,1-.28,0h0a.72.72,0,0,1-.26,0h0a1.23,1.23,0,0,1-.23-.09l-3.56-2a.38.38,0,0,1-.13-.12l2.49-1.54a.42.42,0,0,0,.24-.31l0-1a.41.41,0,0,1-.23.33l-2.87,1.77a1.25,1.25,0,0,1-.25.09h0a.92.92,0,0,1-.28.05h0l-.25,0h0a1,1,0,0,1-.23-.07l-3.57-2a.5.5,0,0,1-.13-.12l2.5-1.53a.42.42,0,0,0,.23-.33l0-1a.45.45,0,0,1-.23.33l-2.87,1.76a1,1,0,0,1-.25.11h0a.86.86,0,0,1-.28,0h0a1.23,1.23,0,0,1-.27,0h0a.88.88,0,0,1-.23-.07l-3.56-2a.44.44,0,0,1-.14-.13l2.5-1.53a.42.42,0,0,0,.23-.32l0-1a.27.27,0,0,1-.07.18.65.65,0,0,1-.17.15l-2.86,1.76a.77.77,0,0,1-.25.1h0a.82.82,0,0,1-.28,0h0a1.14,1.14,0,0,1-.26,0h0a1.23,1.23,0,0,1-.23-.09l-3.56-2a.28.28,0,0,1-.13-.11l2.49-1.53a.41.41,0,0,0,.23-.32l0-1a.27.27,0,0,1-.06.17.66.66,0,0,1-.17.16l-2.87,1.77-.26.1h0a.86.86,0,0,1-.28,0h-.31a2,2,0,0,1-.22-.09l-3.56-2a.45.45,0,0,1-.14-.13l2.49-1.53a.41.41,0,0,0,.23-.33l0-1a.42.42,0,0,1-.22.33l-2.89,1.76a.66.66,0,0,1-.24.11h0a1,1,0,0,1-.28,0h0a.74.74,0,0,1-.26,0h0a.62.62,0,0,1-.25-.09l-3.56-2a.3.3,0,0,1-.13-.12l2.5-1.52a.44.44,0,0,0,.23-.33l0-1a.43.43,0,0,1-.24.32l-2.87,1.77a1,1,0,0,1-.24.1h0a1.17,1.17,0,0,1-.27,0h0a.66.66,0,0,1-.25,0h0a.69.69,0,0,1-.23-.09l-3.56-2a.44.44,0,0,1-.14-.13l2.49-1.53a.41.41,0,0,0,.23-.32l0-1a.43.43,0,0,1-.23.34l-2.87,1.75a1.15,1.15,0,0,1-.25.12h0a1.24,1.24,0,0,1-.27,0h-.31l-.23-.08-3.55-2a.28.28,0,0,1-.14-.12l2.49-1.53a.41.41,0,0,0,.24-.33l0-1a.45.45,0,0,1-.24.32l-2.87,1.77-.25.1h0a.87.87,0,0,1-.28,0h0l-.26,0h0l-.23-.08-3.56-2a.26.26,0,0,1-.13-.12l2.49-1.53a.41.41,0,0,0,.23-.32l0-1a.48.48,0,0,1-.24.32l-2.87,1.77a1.45,1.45,0,0,1-.25.1h0l-.27,0h0a1.18,1.18,0,0,1-.27,0h0a.73.73,0,0,1-.22-.09l-3.56-2a.53.53,0,0,1-.14-.11l2.51-1.54a.46.46,0,0,0,.23-.32l0-1a.39.39,0,0,1-.23.32l-2.88,1.76a.61.61,0,0,1-.23.11h0a1.33,1.33,0,0,1-.28,0h0a1.18,1.18,0,0,1-.27,0h0a.9.9,0,0,1-.23-.08l-3.56-2a.32.32,0,0,1-.15-.13h0a0,0,0,0,1,0,0l2.47-1.52a.44.44,0,0,0,.23-.33l0-1a.46.46,0,0,1-.23.31l-2.87,1.76a.93.93,0,0,1-.25.1h0a.86.86,0,0,1-.28,0h0a.76.76,0,0,1-.26,0h0a.57.57,0,0,1-.22-.07l-3.56-2a.38.38,0,0,1-.13-.12l2.5-1.54a.46.46,0,0,0,.23-.31l0-1a.43.43,0,0,1-.24.33l-2.87,1.76a.87.87,0,0,1-.24.1h0a1,1,0,0,1-.29,0h0a1,1,0,0,1-.25,0h0a.63.63,0,0,1-.22-.08l-3.57-2s0,0-.06,0l2.52-1.55a.42.42,0,0,0,.24-.31l0-1a.42.42,0,0,1-.23.33l-2.87,1.76a.93.93,0,0,1-.25.1h0a1.24,1.24,0,0,1-.27,0h0a1.11,1.11,0,0,1-.26,0h0a.85.85,0,0,1-.24-.09l-3.56-2a.32.32,0,0,1-.15-.13h0a.28.28,0,0,1,0-.17l0,1h0v0a.15.15,0,0,1,0,.06.05.05,0,0,1,0,0v0h0l0,.06.08.06h0l3.57,2a.44.44,0,0,0,.16.06l.07,0h.33l.07,0h.07l.08,0h.08l.09,0,.12-.06.18-.11,0,.68h0v.09s0,0,0,0l0,0h0s0,0,0,.06a.31.31,0,0,0,.1.05h0l3.56,2a.38.38,0,0,0,.16.06l.07,0h0s0,0,0,0h.4l.08,0h.07l.1,0,.11-.07.3-.17,0,.79h0s0,0,0,0v0s0,0,0,.05v0h0s0,0,.05.06l.1.07h0l1.57.89s0,.06-.08.08l-2.87,1.76a1,1,0,0,1-.25.11h0l-.28,0h0a1.14,1.14,0,0,1-.26,0h0a.9.9,0,0,1-.23-.08l-12-6.86a.43.43,0,0,1-.16-.13h0a.19.19,0,0,1-.05-.16l0,1h0s0,0,0,0v0l0,.06,0,0h0v0l0,.05.1.07h0l3.49,2a.52.52,0,0,1-.11.1l-2.87,1.76a.71.71,0,0,1-.25.11h0a.77.77,0,0,1-.27,0h-.26l0,0a.52.52,0,0,1-.23-.08l-3.85-2.19a.36.36,0,0,1-.15-.15h0a.29.29,0,0,1,0-.16l0,1v.06a0,0,0,0,0,0,0,.06.06,0,0,0,0,0v0h0l0,.05a.18.18,0,0,0,.08.07h0l2.34,1.33a.43.43,0,0,1-.1.09l-7.24,4.44a1.12,1.12,0,0,1-.25.11h0a1.27,1.27,0,0,1-.28,0h0a1.09,1.09,0,0,1-.26,0h0a.81.81,0,0,1-.25-.09l-2.69-1.54a.53.53,0,0,1-.16-.13h0a.25.25,0,0,1-.05-.16l0,1s0,0,0,.05v.05l0,0v0h0l0,0a.18.18,0,0,0,.09.07h0l2.35,1.34s-.06.07-.11.08l-7.27,4.47a.93.93,0,0,1-.25.1h0a1.26,1.26,0,0,1-.27,0h0a.78.78,0,0,1-.26,0s0,0,0,0a.73.73,0,0,1-.22-.09l-2.7-1.53a.41.41,0,0,1-.15-.14h0a.23.23,0,0,1,0-.16l0,1v.06s0,0,0,0l0,0,0,0h0l.06.06a.27.27,0,0,0,.08.07h0l2.7,1.53.16.07.07,0h.4l.08,0h.15l.09-.05.11-.05,4.6-2.81,0,.66h0a.1.1,0,0,0,0,0,.13.13,0,0,0,0,.05s0,0,0,0l0,0h0s0,0,0,.06l.1.06h0l4.07,2.32.17.07.06,0h.08l.08,0h.47l.09,0,.12-.06.31-.19,0,.82h0v0l0,0v.05h0v0s0,0,0,.05l.09.07h0l2,1.14a.33.33,0,0,0,.16.07h.06l0,0h.3l.07,0h.23l.09,0c.05,0,.07-.05.11-.06l.47-.29,0,1v0a0,0,0,0,0,0,0s0,0,0,0v0s0,0,0,0h0l0,.06.1.06h0l.63.36a.34.34,0,0,1-.09.08l-2.86,1.76a.87.87,0,0,1-.25.1h0a.9.9,0,0,1-.28,0h0a1.09,1.09,0,0,1-.26,0h0a.69.69,0,0,1-.23-.09l-3.56-2a.26.26,0,0,1-.14-.11l2.5-1.53a.41.41,0,0,0,.23-.32l0-1a.46.46,0,0,1-.23.33l-2.87,1.77a1.14,1.14,0,0,1-.26.09h0a.9.9,0,0,1-.28,0h0a.76.76,0,0,1-.26,0h0a.79.79,0,0,1-.23-.09l-3.56-2a.52.52,0,0,1-.15-.14h0a.31.31,0,0,1-.05-.17l0,1v.05s0,0,0,0l0,0s0,0,0,0a0,0,0,0,1,0,0h0l0,0,.09.08h0l3.55,2,.17.08h.65l0,0,.09,0,.11-.06.3-.17,0,.79h0v0a.06.06,0,0,0,0,0v0l0,0h0v0l0,0,.09.07h0l3.56,2,.16.06h.07s0,0,0,0,0,0,0,0h.33a.11.11,0,0,0,.08,0h.08l0,0h.06l.09,0a.26.26,0,0,0,.11-.07l.34-.21,0,.87v0a.11.11,0,0,0,0,.06s0,0,0,0v0h0a0,0,0,0,1,0,0,.12.12,0,0,1,.05,0l.09.07h0l3.55,2,.17.08h.13l.1,0h.3l.08,0h.08l.1,0a.61.61,0,0,0,.1-.07l.3-.17,0,.79h0a.1.1,0,0,0,0,0,.1.1,0,0,0,0,0s0,0,0,0l0,0h0v0l0,0a.24.24,0,0,0,.09.08h0l3.57,2a.34.34,0,0,0,.15.06.11.11,0,0,0,.07,0h.48l.08,0h.07l.1,0,.11-.05.3-.18,0,.8h0v0a0,0,0,0,0,0,0s0,.05,0,.06l0,0h0a0,0,0,0,0,0,0l0,.06.1.06h0l24,13.69.16.07h.55l.07,0h.08l.1,0,.11-.06.3-.18,0,.8a.13.13,0,0,0,0,0v0a.17.17,0,0,0,0,.05v0h0v0l.05,0a.18.18,0,0,0,.09.08h0l3.56,2a.67.67,0,0,0,.17.08h.47l.07,0h.15l.09,0,.12-.06.29-.19,0,.8h0s0,0,0,0v.05l0,0h0v0h0l0,.05.1.07h0l3.56,2a.85.85,0,0,0,.17.06l.06,0h.58v0h0l.1,0a.24.24,0,0,0,.11-.06l.29-.18,0,.8h0v0a.09.09,0,0,0,0,.05.08.08,0,0,1,0,0l0,0h0l0,0,0,0,.1.07h0l3.57,2a.39.39,0,0,0,.16.07l.06,0h.41l.07,0h.16l.09,0a.21.21,0,0,0,.1-.06l.31-.18,0,.81v0s0,0,0,.05l0,.05,0,0h0s0,0,0,0l0,0,.09.07h0l3.56,2a.59.59,0,0,0,.16.07l.06,0h.41l.07,0h.16l.09,0,.12,0,.28-.17,0,.78v0s0,0,0,0a.11.11,0,0,0,0,0l0,0h0v0l0,.05.09.06h0l2.77,1.58.16.07h.12l.11,0h.23a.11.11,0,0,0,.08,0h.15l.1,0a.6.6,0,0,1,.11-.06l2.87-1.76a.41.41,0,0,0,.23-.33l0-1h0l.08,0h.08l.09,0,.11-.06,2.87-1.76a.48.48,0,0,0,.24-.33l0-.74,1.12.63a.31.31,0,0,0,.16.06.06.06,0,0,0,.06,0h.41l.07,0h.12l0,0a.32.32,0,0,0,.09,0l.11-.05,2.87-1.76a.44.44,0,0,0,.23-.33l0-.69.2.12.16.06.07,0h.05l.12,0h.31l.07,0h0l0,0,.1,0,.11-.05,2.87-1.77a.42.42,0,0,0,.23-.32l0-.7.22.12a.29.29,0,0,0,.16.07l.06,0h.48l.07,0h.08l.1,0,.09-.07L1150,504a.41.41,0,0,0,.24-.32l0-1a.44.44,0,0,1-.23.33l-2.87,1.76a.93.93,0,0,1-.25.1h0a.9.9,0,0,1-.28,0h0a1.13,1.13,0,0,1-.26,0h0l-.22-.08-7.8-4.45a.41.41,0,0,1-.15-.14h0a.06.06,0,0,1,0,0l2.46-1.51a.43.43,0,0,0,.23-.33l0-.7,2.85,1.63.16.07h.14a.18.18,0,0,1,.1,0h.22l.08,0h.16l.09,0a.33.33,0,0,0,.1-.06l.31-.18,0,.8v.05a0,0,0,0,0,0,0s0,0,0,.05v0h0v0l0,0,.09.08h0l3.57,2,.16.07.06,0s0,0,0,0h.61s.06,0,.09-.05l.11-.05.07,0,2.8-1.72a.4.4,0,0,0,.23-.31l0-.7,1.87,1.07a.38.38,0,0,0,.16.06s0,0,.06,0h.41l.08,0a.11.11,0,0,0,.07,0h0l0,0,.09,0a.39.39,0,0,0,.11-.06l2.87-1.76a.45.45,0,0,0,.24-.33l0-1a.43.43,0,0,1-.23.3Zm-66.41-30.85-3.85,2.37,0,1L1087,471l0,.85a.21.21,0,0,0,0,.06v0s0,0,0,.06h0l0,.05.09.07h0l1.54.87s0,.06-.07.08l-2.87,1.76-.25.11h0l-.28,0h0a1.14,1.14,0,0,1-.26,0h0a1.34,1.34,0,0,1-.24-.09l-7-4a.41.41,0,0,1-.15-.14h0a.21.21,0,0,1,0-.15l0,1h0v0a0,0,0,0,1,0,0s0,.06,0,.07l0,0h0v0s0,0,0,.05l.09.06h0l3.21,1.84s0,0-.08.06l-2.86,1.78-.25.09h0a1.26,1.26,0,0,1-.28,0h0l-.26,0h0a.9.9,0,0,1-.23-.08l-4.69-2.69a.43.43,0,0,1-.16-.13h0s0-.06,0-.09l2.39-1.47a.43.43,0,0,0,.23-.32l0-.67.19.11.16.06.06,0h0l0,0h.26l.07,0h.23a.2.2,0,0,0,.09-.05.18.18,0,0,0,.11-.05l2.87-1.75a.44.44,0,0,0,.23-.33l0-.71,1.3.73.16.07h.07l0,0h.59l.1,0,.11-.05,2.87-1.77a.48.48,0,0,0,.24-.33l0-.73,3.09,1.77.17.07h.54l.07,0h0l.05,0,.09,0,.11-.06.33-.2,0,.82h0a.13.13,0,0,0,0,.05v0a.05.05,0,0,0,0,0v0h0s0,0,0,.05l.11.07h0l.52.3S1089.57,468.44,1089.54,468.46Z"/><path class="cls-9" d="M1070.9,468.18l-.1-.06,0-.06h0l0,0,0,0a.15.15,0,0,0,0-.06v0h0l0-.81-4.3,2.64a.33.33,0,0,0,.14.12l3.85,2.2a.69.69,0,0,0,.23.08h0a1.18,1.18,0,0,0,.26,0h0a1.17,1.17,0,0,0,.27,0h0a1,1,0,0,0,.24-.11l2.88-1.76.05-.05-3.51-2Z"/><path class="cls-9" d="M1076.39,466.08l-.09-.06,0-.06v0h0l0,0a.08.08,0,0,0,0,0,.1.1,0,0,0,0,0v-.05h0l0-.7-.22.13-.11.07-.1,0,0,0h-.11l-.07,0h-.47l-.16-.07-1.38-.78,0,.71a.45.45,0,0,1-.23.33l-2.5,1.52a.44.44,0,0,0,.14.13l3.85,2.19a1.57,1.57,0,0,0,.23.09h0l.26,0h0l.28,0h0a1.09,1.09,0,0,0,.25-.1l2.87-1.76.09-.09-2.42-1.39Z"/><path class="cls-9" d="M1079.1,463.13a.4.4,0,0,1-.24.32l-2.5,1.54.07.06,3.85,2.2a.9.9,0,0,0,.23.08h0a1,1,0,0,0,.26,0h0a1.37,1.37,0,0,0,.28-.05h0a1.25,1.25,0,0,0,.25-.09l2.86-1.77a.53.53,0,0,0,.11-.09l-5.19-3Z"/><path class="cls-9" d="M1086,475.76l-.29.17a.41.41,0,0,1-.11.07l-.1,0h-.46l-.1,0h-.13a.59.59,0,0,1-.16-.07l-3.69-2.11,0,.69a.48.48,0,0,1-.24.33l-2.47,1.52h0a.5.5,0,0,0,.15.13l3.57,2a.73.73,0,0,0,.22.09h0a1.09,1.09,0,0,0,.26,0h0a.86.86,0,0,0,.28,0h0a1.36,1.36,0,0,0,.25-.11l2.87-1.76a.36.36,0,0,0,.11-.1s0,0,0,0a.09.09,0,0,1,0,0v0h0Z"/><path class="cls-9" d="M1088.56,483.41a.35.35,0,0,1-.09-.07l0,0a0,0,0,0,0,0,0h0l0,0s0,0,0,0a.13.13,0,0,1,0,0v-.05h0l0-.8-.3.19-.11.05-.09,0h-.08l-.07,0h-.48l-.07,0a.46.46,0,0,1-.16-.07l-1.92-1.09,0,.75a.39.39,0,0,1-.23.32l-2.49,1.53a.53.53,0,0,0,.13.13l3.56,2,.23.08h0a.71.71,0,0,0,.25,0h0a.84.84,0,0,0,.27,0h0l.25-.1,2.86-1.77a.31.31,0,0,0,.12-.1l-1.54-.88Z"/><path class="cls-9" d="M1093.66,486.32a.22.22,0,0,1-.09-.07s0,0,0-.05v0h0a0,0,0,0,1,0,0l0,0a.13.13,0,0,0,0-.05v0h0l0-.79-.3.18-.1.06-.09,0h-.16a.11.11,0,0,1-.08,0h-.33l0,0h0l-.06,0-.16-.06-1.92-1.1,0,.74a.5.5,0,0,1-.24.34l-2.49,1.52a.37.37,0,0,0,.13.12l3.57,2a.73.73,0,0,0,.22.09s0,0,0,0h.26a.86.86,0,0,0,.28,0h0a.8.8,0,0,0,.25-.11l2.86-1.76a.26.26,0,0,0,.12-.11l-1.53-.87Z"/><path class="cls-9" d="M1098.76,489.23s-.07,0-.09-.07l0,0,0,0h0l0,0a.08.08,0,0,0,0,0s0,0,0-.06v0h0l0-.8-.3.18-.11.07-.09,0H1098l-.08,0h-.47l-.07,0a.46.46,0,0,1-.16-.07l-1.92-1.09,0,.75a.45.45,0,0,1-.24.32l-2.49,1.53a.53.53,0,0,0,.13.13l3.56,2a.85.85,0,0,0,.24.09h0l.26,0h0a1.28,1.28,0,0,0,.27-.05h0a1.73,1.73,0,0,0,.24-.1l2.87-1.76a1.31,1.31,0,0,0,.12-.11l-1.55-.88Z"/><path class="cls-9" d="M1103.86,492.14a.35.35,0,0,1-.09-.07l0-.05h0v0s0,0,0-.05,0,0,0,0v0h0l0-.8-.3.19-.1,0-.1,0a.06.06,0,0,0,0,0h0l-.07,0h-.31l-.11,0h-.06l-.06,0-.17-.06-1.91-1.1,0,.74a.41.41,0,0,1-.23.33l-2.5,1.54a1.5,1.5,0,0,0,.13.11l3.57,2a1.23,1.23,0,0,0,.23.08h0a.77.77,0,0,0,.26,0h0a1.28,1.28,0,0,0,.27-.05h0a1.45,1.45,0,0,0,.25-.1l2.87-1.77a.55.55,0,0,0,.11-.1l-1.53-.88Z"/><path class="cls-9" d="M1109,495.06a1,1,0,0,1-.09-.07.13.13,0,0,1-.05-.06h0l0,0,0,0s0-.05,0-.05v0h0l0-.81-.31.19a.39.39,0,0,1-.11.06l-.09,0h-.08l-.07,0h-.23s-.06,0-.08,0h-.17l-.07,0a.56.56,0,0,1-.16-.07l-1.92-1.09,0,.75a.48.48,0,0,1-.24.33l-2.49,1.52a.49.49,0,0,0,.15.13l3.56,2a1.57,1.57,0,0,0,.23.09h0a1.14,1.14,0,0,0,.26,0h0a1.26,1.26,0,0,0,.28,0h0a.88.88,0,0,0,.24-.11l2.87-1.76a.32.32,0,0,0,.12-.11l-1.54-.87Z"/><path class="cls-9" d="M1114.07,498l-.09-.06,0-.06h0l0-.05a.2.2,0,0,0,0-.05v0h0l0-.79-.3.18-.11.06-.09,0h-.16l-.07,0h-.37s0,0,0,0,0,0-.06,0a.38.38,0,0,1-.16-.06l-1.92-1.09,0,.74a.42.42,0,0,1-.23.33l-2.49,1.53a.51.51,0,0,0,.13.12l3.56,2a.9.9,0,0,0,.23.08h0a1.14,1.14,0,0,0,.26,0h0a1.17,1.17,0,0,0,.27,0h0a1.09,1.09,0,0,0,.25-.1l2.87-1.77a.38.38,0,0,0,.12-.1l-1.54-.87Z"/><path class="cls-9" d="M1119.17,500.87a.28.28,0,0,1-.09-.07l0,0v0h0l0,0s0,0,0,0l0,0v-.05h0l0-.79-.3.18a.24.24,0,0,1-.11.06l-.09,0,0,0h0l-.07,0h-.55l-.17-.07-1.91-1.1,0,.75a.42.42,0,0,1-.23.33l-2.5,1.52a.29.29,0,0,0,.14.13l3.57,2a.53.53,0,0,0,.22.08h0l.25,0h0a.87.87,0,0,0,.28,0h0a.77.77,0,0,0,.25-.1l2.86-1.76a.26.26,0,0,0,.12-.11l-1.53-.88Z"/><path class="cls-9" d="M1124.28,503.78l-.09-.06,0-.05v0h0s0,0,0,0,0,0,0,0a.2.2,0,0,0,0-.05v0h0l0-.79-.3.19-.11.05a.32.32,0,0,1-.09,0l0,0h-.65l-.16-.07-1.92-1.09,0,.75a.47.47,0,0,1-.24.32l-2.49,1.53a.51.51,0,0,0,.13.12l3.56,2a1.23,1.23,0,0,0,.23.09h0a.74.74,0,0,0,.26,0h0a1.26,1.26,0,0,0,.28,0h0a.77.77,0,0,0,.25-.1l2.86-1.76.12-.1-1.53-.89Z"/><path class="cls-9" d="M1129.45,506.73a.2.2,0,0,1-.09-.06l0-.05h0v0h0s0,0,0-.05a.13.13,0,0,1,0,0v0h0l0-.89-.37.23-.11.06-.09,0h-.08l-.08,0-.07,0h-.4l-.07,0a.38.38,0,0,1-.16-.06l-1.92-1.1,0,.75a.41.41,0,0,1-.23.33l-2.49,1.53a.28.28,0,0,0,.13.11l3.57,2a.83.83,0,0,0,.22.08h0l.26,0h0l.28,0h0a1,1,0,0,0,.25-.11l2.87-1.76a.38.38,0,0,0,.11-.11l-1.46-.83Z"/><path class="cls-9" d="M1135,494.27a.31.31,0,0,1-.09-.07l-.05-.05h0s0,0,0,0a.06.06,0,0,1,0-.05.14.14,0,0,1,0,0v0h0l0-.79-.29.18-.12.06-.09,0h-.08l-.07,0h-.31a.65.65,0,0,1-.11,0h-.12a.59.59,0,0,1-.16-.07l-2.86-1.63,0,.7a.47.47,0,0,1-.24.34l-2.49,1.52a.33.33,0,0,0,.14.12l3.56,2a.42.42,0,0,0,.22.08h0a1.1,1.1,0,0,0,.26,0h0a.84.84,0,0,0,.27,0h0a1.12,1.12,0,0,0,.25-.11l2.87-1.76a.71.71,0,0,0,.09-.07l-.58-.33Z"/><path class="cls-9" d="M1129.92,491.36l-.1-.06,0-.06h0v0a.08.08,0,0,1,0-.05s0,0,0,0,0,0,0,0h0l0-.79-.3.18-.11.06-.09,0,0,0h-.11l-.07,0h-.47l-.16-.07-2.85-1.63,0,.71a.45.45,0,0,1-.24.32l-2.49,1.53a.38.38,0,0,0,.13.12l3.56,2,.23.08h0a.74.74,0,0,0,.26,0h0a.84.84,0,0,0,.27,0h0a.75.75,0,0,0,.24-.1l2.88-1.77a.29.29,0,0,0,.08-.07l-.57-.33Z"/><path class="cls-9" d="M1124.81,488.46a.36.36,0,0,1-.09-.08.12.12,0,0,1,0-.05h0l0,0s0,0,0,0a.1.1,0,0,1,0,0,.18.18,0,0,1,0,0h0l0-.78-.29.17-.12.06-.09,0-.05,0h-.65l-.16-.07-2.86-1.64,0,.7a.44.44,0,0,1-.24.33l-2.5,1.53a.47.47,0,0,0,.15.13l3.56,2a.92.92,0,0,0,.23.09h0a.74.74,0,0,0,.26,0h0a1.26,1.26,0,0,0,.27,0h0a1.08,1.08,0,0,0,.24-.1l2.88-1.77a.2.2,0,0,0,.08-.08l-.57-.32Z"/><path class="cls-9" d="M1119.71,485.54l-.09-.06,0-.06h0s0,0,0,0a.08.08,0,0,1,0-.05v-.08h0l0-.81-.31.2-.11.05-.09,0H1119l-.08,0h-.4l0,0h-.1a.76.76,0,0,1-.16-.06l-2.85-1.63,0,.7a.48.48,0,0,1-.24.33l-2.5,1.53a.87.87,0,0,0,.14.12l3.56,2a.78.78,0,0,0,.23.08h0a.72.72,0,0,0,.25,0h0a.87.87,0,0,0,.28-.05h0a1,1,0,0,0,.24-.1l2.87-1.77a.71.71,0,0,0,.09-.07l-.56-.32Z"/><path class="cls-9" d="M1114.6,482.62l-.09-.06a.1.1,0,0,1,0-.06s0,0,0,0h0s0,0,0,0l0,0a.35.35,0,0,0,0-.06v0l0-.79-.3.17-.11.07-.09,0h-.08l-.08,0h-.48l-.06,0a.46.46,0,0,1-.16-.07l-2.85-1.62,0,.69a.39.39,0,0,1-.24.33l-2.49,1.53a.37.37,0,0,0,.13.12l3.57,2a.9.9,0,0,0,.23.08l0,0h.27l.28,0h0a1,1,0,0,0,.24-.1l2.88-1.76s.05-.06.08-.08l-.57-.33Z"/><path class="cls-9" d="M1109.5,479.72a.39.39,0,0,1-.1-.08s0,0,0,0h0l0,0a.06.06,0,0,1,0,0l0,0v-.05h0l0-.79-.29.19a.43.43,0,0,1-.12.05l-.08,0h-.16l-.07,0h-.23a.29.29,0,0,0-.11,0h-.13l-.17-.07-2.84-1.62,0,.7a.44.44,0,0,1-.23.33l-2.5,1.53a.53.53,0,0,0,.14.11l3.56,2a.56.56,0,0,0,.23.07l0,0,.26,0h0a1.33,1.33,0,0,0,.28,0h0a.93.93,0,0,0,.25-.1l2.87-1.77a.31.31,0,0,0,.09-.07l-.57-.33Z"/><path class="cls-9" d="M1104.39,476.8l-.09-.06,0-.05v0h0v0l0,0a.43.43,0,0,0,0-.05v0l0-.79-.3.17-.11.06-.1,0,0,0h0l-.07,0h-.47l-.07,0-.16-.07L1100,474.3l0,.71a.4.4,0,0,1-.23.32l-2.5,1.53a.45.45,0,0,0,.14.13l3.56,2a.69.69,0,0,0,.23.08h0l.26,0h0l.28,0h0a.87.87,0,0,0,.24-.1l2.87-1.76s.06-.06.09-.08l-.58-.33Z"/><path class="cls-9" d="M1099.3,473.89a.33.33,0,0,1-.1-.06.09.09,0,0,1,0-.06h0l0,0,0,0a.1.1,0,0,0,0,0v0h0l0-.8-.3.18-.12.07-.08,0H1098l-.06,0a.46.46,0,0,1-.16-.07l-2.86-1.62,0,.7a.43.43,0,0,1-.24.33l-2.49,1.52a.37.37,0,0,0,.13.12l3.57,2a.83.83,0,0,0,.22.08h.31a1.26,1.26,0,0,0,.27,0h0a1.09,1.09,0,0,0,.25-.1l2.87-1.77a.71.71,0,0,0,.09-.07l-.57-.32Z"/><path class="cls-9" d="M1094.19,471l-.09-.06,0-.06h0a0,0,0,0,0,0,0s0,0,0-.05l0,0v-.06l0-.78-.29.18-.11.05-.1,0h-.08l-.07,0h-.48l-.07,0-.15-.06-2.91-1.66,0,.7a.46.46,0,0,1-.24.33L1087,471h0a.69.69,0,0,0,.15.14l3.56,2a.85.85,0,0,0,.24.08h0a1.1,1.1,0,0,0,.26,0h0a1.28,1.28,0,0,0,.27-.05h0a.8.8,0,0,0,.25-.11l2.87-1.75a.38.38,0,0,0,.09-.09l-.58-.32Z"/><path class="cls-9" d="M1092.25,475.1l-.09-.07s0,0-.05-.06h0v0h0s0,0,0,0a.18.18,0,0,1,0-.06v0h0l0-.79-.3.18-.11.05-.09,0h-.08l-.07,0h-.55l-.16-.07-1.87-1.07,0,.69a.45.45,0,0,1-.24.32l-2.5,1.54a.58.58,0,0,0,.14.12l3.56,2a.78.78,0,0,0,.23.08h0a2.3,2.3,0,0,0,.26,0h0a1.31,1.31,0,0,0,.27-.06h0l.25-.1,2.87-1.77.07-.07-1.55-.88Z"/><path class="cls-9" d="M1096.19,482.41v0h0l0-.79-.29.17-.12.07-.09,0h-.09l-.07,0h-.4l-.05,0h0l-.06,0a.29.29,0,0,1-.16-.07l-3.57-2h0l-.07,0,0,.69a.41.41,0,0,1-.23.32l-2.49,1.53a.3.3,0,0,0,.13.12l3.57,2a.6.6,0,0,0,.22.09h0a1.1,1.1,0,0,0,.26,0h0a.86.86,0,0,0,.27,0h0a.93.93,0,0,0,.25-.1l2.87-1.76a.34.34,0,0,0,.12-.12l0,0A.15.15,0,0,0,1096.19,482.41Z"/><path class="cls-9" d="M1101,484.67l-.11.05-.09,0,0,0h0l-.08,0h-.54l-.17-.07-3.56-2h0l-.07-.05,0,.7a.42.42,0,0,1-.24.32l-2.49,1.54a.57.57,0,0,0,.14.11l3.56,2,.22.08h0a1,1,0,0,0,.25,0h0a1,1,0,0,0,.29,0h0a.8.8,0,0,0,.25-.11l2.87-1.76a.43.43,0,0,0,.12-.11,0,0,0,0,1,0,0,.07.07,0,0,1,0-.05v0l0-.81Z"/><path class="cls-9" d="M1106.39,488.23v0h0l0-.8-.3.18-.1.07-.09,0h-.09l-.07,0h-.07a.13.13,0,0,1-.08,0h-.33l-.07,0a.33.33,0,0,1-.16-.07l-3.57-2h0l-.07,0,0,.68a.47.47,0,0,1-.24.34l-2.49,1.52a.3.3,0,0,0,.13.12l3.57,2a.81.81,0,0,0,.22.07h0a.76.76,0,0,0,.26,0h0a.84.84,0,0,0,.27,0h0a.69.69,0,0,0,.25-.1l2.87-1.76a.44.44,0,0,0,.12-.11s0,0,0-.05A.13.13,0,0,0,1106.39,488.23Z"/><path class="cls-9" d="M1111.51,491.1l0-.8-.32.19-.11.05-.09,0h-.08l-.08,0h-.54l-.16-.07-3.57-2h0s0,0-.06-.05l0,.7q0,.18-.24.33l-2.49,1.53a.57.57,0,0,0,.14.11l3.56,2a.69.69,0,0,0,.23.09h.3a.84.84,0,0,0,.27,0h0a1.86,1.86,0,0,0,.25-.1l2.87-1.76a.77.77,0,0,0,.13-.12v0s0,0,0-.06v0Z"/><path class="cls-9" d="M1116.61,494.07V494l0-.79-.29.18-.11,0-.09,0-.06,0h0l0,0h-.39l-.1,0h-.14l-.16-.06-3.55-2h0l-.08-.06,0,.7c0,.11-.09.22-.24.32l-2.49,1.53a1,1,0,0,0,.15.14l3.57,2a.53.53,0,0,0,.22.08l0,0a1,1,0,0,0,.25,0h0a1.12,1.12,0,0,0,.27,0l0,0a.64.64,0,0,0,.24-.1l2.88-1.75.12-.11,0-.05A.08.08,0,0,1,1116.61,494.07Z"/><path class="cls-9" d="M1121.71,497v-.05l0-.8-.29.18-.12.06-.09,0h-.38s-.06,0-.08,0h-.13l0,0h-.06a.51.51,0,0,1-.17-.07l-3.56-2h0l-.06-.05,0,.69a.42.42,0,0,1-.23.33l-2.5,1.53a.38.38,0,0,0,.14.11l3.56,2a.9.9,0,0,0,.23.08h0a.82.82,0,0,0,.27,0h0a1.26,1.26,0,0,0,.28,0h0a.51.51,0,0,0,.24-.1l2.87-1.76a.47.47,0,0,0,.13-.11s0,0,0,0S1121.71,497,1121.71,497Z"/><path class="cls-9" d="M1126.81,499.89v0h0l0-.8-.29.18-.11.06a.29.29,0,0,1-.1,0l0,0h0l-.07,0h-.31l-.09,0h-.08l-.06,0-.16-.06-3.57-2h0l-.07-.05,0,.7a.41.41,0,0,1-.23.32l-2.5,1.53a.55.55,0,0,0,.14.12l3.56,2a1.57,1.57,0,0,0,.23.09h0l.27,0h0l.28-.05h0a1.12,1.12,0,0,0,.25-.11l2.86-1.76a.75.75,0,0,0,.13-.11.06.06,0,0,1,0-.05Z"/><path class="cls-9" d="M1128,495.47l-.09-.06s0,0-.05-.06h0v0a.08.08,0,0,1,0,0l0,0v-.05h0l0-.8-.3.19-.11.05-.09,0,0,0h-.1l-.08,0h-.47l-.16-.07-1.88-1.06,0,.68a.41.41,0,0,1-.23.33l-2.5,1.53a.41.41,0,0,0,.14.12l3.56,2,.23.08h0a1,1,0,0,0,.26,0h0a1.37,1.37,0,0,0,.28-.05h0a1.33,1.33,0,0,0,.24-.1l2.88-1.77.07-.07-1.54-.88Z"/><path class="cls-9" d="M1122.87,492.56a.16.16,0,0,1-.09-.07.1.1,0,0,1,0,0v0h0l0,0a.06.06,0,0,1,0,0s0,0,0-.06v0h0l0-.79-.29.18a.24.24,0,0,1-.11.06l-.09,0,0,0h-.65a.46.46,0,0,1-.16-.07l-1.87-1.07,0,.7a.41.41,0,0,1-.23.32l-2.5,1.53a.41.41,0,0,0,.14.12l3.56,2a.69.69,0,0,0,.23.09h0a1.09,1.09,0,0,0,.26,0h0a1.17,1.17,0,0,0,.27-.05h0a1,1,0,0,0,.24-.11l2.87-1.76s.05,0,.08-.08l-1.55-.87Z"/><path class="cls-9" d="M1117.77,489.65l-.09-.06,0-.06h0l0,0,0,0s0,0,0-.05v0h0l0-.82-.31.2-.11.05-.1,0,0,0h0l-.07,0h-.48l-.06,0a.59.59,0,0,1-.16-.06l-1.88-1.07,0,.69a.48.48,0,0,1-.24.33l-2.48,1.52c0,.06.07.09.14.13l3.56,2a1.55,1.55,0,0,0,.23.08h0a1.09,1.09,0,0,0,.26,0h0l.28,0h0a.91.91,0,0,0,.25-.11l2.87-1.76.07-.07-1.54-.88Z"/><path class="cls-9" d="M1112.65,486.74l-.09-.07,0-.05h0s0,0,0,0,0,0,0,0,0,0,0-.06v0l0-.79-.29.18-.11.06-.09,0h-.23l-.08,0h-.39a.48.48,0,0,1-.16-.08l-1.88-1.06,0,.7a.43.43,0,0,1-.23.32l-2.5,1.53a.51.51,0,0,0,.13.12l3.57,2a.72.72,0,0,0,.22.08h0a1.1,1.1,0,0,0,.26,0h0l.27,0h0a1.92,1.92,0,0,0,.25-.12l2.87-1.75.08-.07-1.55-.88Z"/><path class="cls-9" d="M1107.55,483.83l-.09-.06a.15.15,0,0,0,0-.06h0v0s0,0,0-.05v0a.1.1,0,0,1,0,0h0l0-.8-.3.19-.11.05a.14.14,0,0,1-.09,0l0,0h0l-.07,0h-.42l0,0h0l-.06,0L1106,483l-1.87-1.07,0,.69a.39.39,0,0,1-.23.32l-2.49,1.53a.3.3,0,0,0,.13.12l3.56,2a.9.9,0,0,0,.23.08h0l.26,0h0a.92.92,0,0,0,.28-.05h0a.64.64,0,0,0,.24-.1l2.87-1.76s0-.05.08-.07l-1.54-.89Z"/><path class="cls-9" d="M1102.45,480.92l-.09-.07,0-.05v0h0v0s0,0,0-.05l0,0v0h0l0-.79-.29.18-.11.06-.1,0,0,0h0l-.08,0h-.48s0,0-.06,0a.44.44,0,0,1-.17-.07l-1.87-1.06,0,.69a.41.41,0,0,1-.23.33l-2.49,1.53a.51.51,0,0,0,.13.12l3.56,2,.23.08h0a1.14,1.14,0,0,0,.26,0h0l.28,0h0l.25-.11,2.87-1.76a.25.25,0,0,0,.07-.08l-1.54-.87Z"/><path class="cls-9" d="M1097.35,478l-.09-.07,0-.05v0h0v0s0,0,0,0a.09.09,0,0,1,0-.05v0h0l0-.8-.3.19a.28.28,0,0,1-.11,0l-.09,0h-.08l-.07,0h-.31l-.1,0h-.07l-.07,0-.16-.06-1.87-1.07,0,.69a.46.46,0,0,1-.24.33l-2.49,1.53a.79.79,0,0,0,.13.12l3.56,2a.9.9,0,0,0,.23.08h0a.82.82,0,0,0,.27,0h0l.27,0h0a.62.62,0,0,0,.25-.11l2.87-1.76s.05,0,.07-.06l-1.54-.88Z"/><path class="cls-9" d="M1133.07,498.38l-.09-.06,0-.05,0,0h0a.11.11,0,0,0,0-.05.09.09,0,0,0,0-.05v-.05l0-.79-.3.19-.11.06-.09,0h-.08a.12.12,0,0,1-.08,0l-.07,0h-.23s-.07,0-.11,0h-.13l-.16-.06-1.88-1.07,0,.69a.41.41,0,0,1-.23.32l-2.5,1.53a.55.55,0,0,0,.14.12l3.56,2a.79.79,0,0,0,.23.09h0a.76.76,0,0,0,.26,0h0a1.26,1.26,0,0,0,.27,0h0a.66.66,0,0,0,.24-.11l2.88-1.76a.16.16,0,0,0,.07-.07l-1.54-.88Z"/><path class="cls-9" d="M1131.91,502.8v-.05h0l0-.79-.29.17a.39.39,0,0,1-.11.06l-.09,0h-.71a.37.37,0,0,1-.16-.07l-3.56-2h0l-.07,0,0,.69a.42.42,0,0,1-.23.33l-2.49,1.53a.3.3,0,0,0,.13.12l3.57,2a.49.49,0,0,0,.22.09h0l.26,0h0a1.26,1.26,0,0,0,.28,0h0a.64.64,0,0,0,.24-.1l2.87-1.76a.75.75,0,0,0,.13-.11l0,0A.08.08,0,0,0,1131.91,502.8Z"/><path class="cls-9" d="M1091.12,478.66l-.3.19-.11,0-.09.05h-.06l0,0H1090l-.07,0a.52.52,0,0,1-.16-.06l-3.56-2h0l-.06-.05,0,.7a.44.44,0,0,1-.23.33l-2.49,1.53a.51.51,0,0,0,.13.12l3.57,2,.22.08s0,0,0,0a.74.74,0,0,0,.26,0h0a1.43,1.43,0,0,0,.29,0h0a1.12,1.12,0,0,0,.25-.11l2.87-1.75a1.36,1.36,0,0,0,.12-.12l0,0a.35.35,0,0,0,0-.06v0h0Z"/><path class="cls-9" d="M1095.15,466.33l-.09-.07a.15.15,0,0,1,0-.06h0l0,0s0,0,0-.05,0,0,0-.06v0h0l0-.86-.35.22-.11.05-.09,0,0,0h0l-.09,0h-.22a.27.27,0,0,0-.09,0h-.23l-.17-.07-1.84-1.06,0,.69a.45.45,0,0,1-.23.33l-2.49,1.52h0a.78.78,0,0,0,.16.15l3.56,2a.88.88,0,0,0,.23.07h0a1,1,0,0,0,.25,0h0a1.17,1.17,0,0,0,.27-.05h0a1.18,1.18,0,0,0,.25-.1l2.87-1.77a.27.27,0,0,0,.08-.07l-1.55-.87Z"/><path class="cls-9" d="M1100.25,469.24a.32.32,0,0,1-.09-.08.1.1,0,0,1,0-.05h0v0l0-.05v-.09h0l0-.8-.3.19-.11.05-.09,0h-.08l-.08,0h-.4l0,0h-.1l-.16-.07-1.88-1.07,0,.69a.41.41,0,0,1-.24.32l-2.49,1.53a.55.55,0,0,0,.14.12l3.56,2a.78.78,0,0,0,.23.07l0,0,.26,0h0a1.17,1.17,0,0,0,.27-.05h0a.82.82,0,0,0,.25-.1l2.88-1.77s0,0,.07-.06l-1.55-.89Z"/><path class="cls-9" d="M1105.36,472.15a.35.35,0,0,1-.09-.07l-.06-.05v0h0s0,0,0,0l0,0a.09.09,0,0,0,0-.05v0h0l0-.8-.3.18-.11.06-.09,0h-.64l-.06,0a.44.44,0,0,1-.17-.07l-1.87-1.06,0,.7a.39.39,0,0,1-.23.31l-2.49,1.54a.81.81,0,0,0,.13.11l3.57,2,.22.08h0a1,1,0,0,0,.25,0h0a1.18,1.18,0,0,0,.27,0h0l.25-.1,2.87-1.77.07-.06-1.54-.88Z"/><path class="cls-9" d="M1110.46,475.06s-.07,0-.09-.07l0-.05v0h0s0,0,0,0l0,0v-.09h0l0-.8-.3.18-.11.06-.1,0h-.07l-.08,0h-.44l0,0h-.07l-.16-.06-1.87-1.08,0,.7a.44.44,0,0,1-.23.33l-2.49,1.52a.3.3,0,0,0,.13.12l3.56,2a.57.57,0,0,0,.23.08h0l.26,0h0a.8.8,0,0,0,.27,0h0a.8.8,0,0,0,.25-.11l2.86-1.76.08-.06-1.54-.89Z"/><path class="cls-9" d="M1115.56,478a.35.35,0,0,1-.09-.07l0,0h0l0,0s0,0,0,0,0,0,0,0v0h0l0-.8-.29.18-.11.06-.1,0h-.15l-.08,0h-.47a.46.46,0,0,1-.16-.07l-1.87-1.07,0,.7a.39.39,0,0,1-.23.32l-2.49,1.53a.3.3,0,0,0,.13.12l3.56,2a1.57,1.57,0,0,0,.23.09h0l.27,0h0a1.26,1.26,0,0,0,.28,0h0a1.09,1.09,0,0,0,.25-.1l2.87-1.76s0-.06.07-.08l-1.54-.88Z"/><path class="cls-9" d="M1120.66,480.87a.2.2,0,0,1-.09-.06l0-.06h0l0,0v-.08s0,0,0,0h0l0-.79-.29.18a.33.33,0,0,1-.12,0l-.09,0h-.15l-.07,0h-.41l-.07,0-.16-.06-1.88-1.07,0,.68a.42.42,0,0,1-.23.33l-2.49,1.53a.5.5,0,0,0,.13.12l3.57,2a.42.42,0,0,0,.22.08h0a1.06,1.06,0,0,0,.25,0h0a1.26,1.26,0,0,0,.28,0h0a1.36,1.36,0,0,0,.25-.11l2.87-1.76.07-.06-1.55-.89Z"/><path class="cls-9" d="M1125.78,483.8s-.08,0-.1-.08a.11.11,0,0,1,0-.05h0s0,0,0,0,0,0,0,0,0,0,0,0v0h0l0-.81-.31.19-.12.06-.09,0H1125l-.08,0h-.54l-.16-.07-1.87-1.06,0,.69a.45.45,0,0,1-.24.32l-2.49,1.53a.44.44,0,0,0,.14.13l3.57,2a.69.69,0,0,0,.23.08h0l.27,0h0a1.26,1.26,0,0,0,.27,0h0a.93.93,0,0,0,.25-.1l2.87-1.77.08-.07-1.55-.88Z"/><path class="cls-9" d="M1130.87,486.7a.31.31,0,0,1-.09-.07.12.12,0,0,1,0-.05h0l0,0a.08.08,0,0,0,0,0v-.09h0l0-.8-.29.18-.11,0-.09,0,0,0h-.65l-.16-.07-1.88-1.07,0,.7a.46.46,0,0,1-.24.32l-2.49,1.53a.35.35,0,0,0,.13.11l3.56,2,.23.08h0a.74.74,0,0,0,.26,0h0a1.26,1.26,0,0,0,.27,0h0a.77.77,0,0,0,.25-.1l2.87-1.76.08-.07-1.55-.89Z"/><path class="cls-9" d="M1136,489.62l-.09-.07-.05-.05s0,0,0,0h0l0,0s0,0,0-.05v-.08h0l0-.81-.3.19-.12.06-.09,0h-.15a.11.11,0,0,1-.08,0h-.24l-.1,0h-.13l-.16-.07-1.87-1.06,0,.68a.42.42,0,0,1-.24.33l-2.49,1.53a.42.42,0,0,0,.14.12l3.57,2a.73.73,0,0,0,.22.09h0l.26,0h0a1.26,1.26,0,0,0,.27,0h0a1,1,0,0,0,.24-.11l2.87-1.76s0,0,.08-.08l-1.55-.87Z"/><path class="cls-9" d="M1141.07,492.51l-.09-.06,0,0,0,0h0v0l0,0v-.09h0l0-.79-.29.18-.11.06-.09,0h-.7l-.17-.07-1.87-1.07,0,.7a.4.4,0,0,1-.23.31l-2.5,1.54a.77.77,0,0,0,.13.12l3.57,2a.78.78,0,0,0,.23.08h0a1.14,1.14,0,0,0,.27,0h0a1.45,1.45,0,0,0,.28,0h0l.25-.11,2.87-1.76s0-.05.08-.07l-1.55-.88Z"/><path class="cls-9" d="M1151.28,498.34l-.1-.06,0,0s0,0,0,0h0l0,0,0,0a.2.2,0,0,0,0-.05v0h0l0-.79-.29.18-.11.06-.1,0h-.69a.6.6,0,0,1-.16-.08l-1.87-1.06,0,.69a.41.41,0,0,1-.23.33l-2.49,1.53a.51.51,0,0,0,.13.12l3.56,2a1.45,1.45,0,0,0,.22.09h0l.26,0h0a1.1,1.1,0,0,0,.27,0h0l.25-.1,2.87-1.77.09-.07-1.56-.88Z"/><path class="cls-9" d="M1146.18,495.43a.23.23,0,0,1-.1-.07l0-.05h0s0,0,0,0l0,0a.2.2,0,0,0,0-.05v0l0-.8-.3.18-.11.05-.1,0,0,0h-.59l-.06,0-.17-.05-1.87-1.07,0,.68a.43.43,0,0,1-.23.33L1140,496a.55.55,0,0,0,.14.12l3.56,2a.63.63,0,0,0,.23.08h0a1.14,1.14,0,0,0,.26,0h0a1,1,0,0,0,.28,0h0a1.36,1.36,0,0,0,.25-.11l2.86-1.76a.29.29,0,0,0,.08-.07l-1.54-.89Z"/><path class="cls-9" d="M1140.11,497.18l-.09-.06,0-.06h0s0,0,0,0l0,0a.2.2,0,0,0,0-.05v0h0l0-.8-.29.18-.11.05-.09.05h-.7l-.17-.07-2.84-1.63,0,.71a.45.45,0,0,1-.24.32l-2.49,1.53a.87.87,0,0,0,.14.12l3.56,2a.73.73,0,0,0,.22.09h0a1.1,1.1,0,0,0,.26,0h0a1.26,1.26,0,0,0,.28,0h0l.25-.1,2.87-1.77s.05,0,.09-.08l-.57-.33Z"/><path class="cls-9" d="M1138.24,501.34l-.09-.07,0,0h0v0l0,0V501h0l0-.88-.38.22-.1.05a.24.24,0,0,1-.1.05h-.07l-.08,0h-.55l-.16-.06-1.87-1.08,0,.7a.42.42,0,0,1-.23.32L1132,501.9a.4.4,0,0,0,.13.13l3.56,2a.88.88,0,0,0,.23.07l0,0a1.06,1.06,0,0,0,.25,0h0a1.26,1.26,0,0,0,.28-.05h0a.64.64,0,0,0,.24-.1l2.88-1.76.08-.07-1.47-.84Z"/><path class="cls-9" d="M1139.85,503a.45.45,0,0,1-.24.34l-2.49,1.52a.3.3,0,0,0,.13.12l4.43,2.52a.6.6,0,0,0,.22.09h0l.27,0h0a1.28,1.28,0,0,0,.27-.05h0a.93.93,0,0,0,.25-.1l2.87-1.76.08-.07-5.82-3.32Z"/><path class="cls-9" d="M1137.2,506l-.08-.07a.12.12,0,0,1,0-.05v0h0s0,0,0-.05,0,0,0,0v0h0l0-.79-.29.18-.11.05-.1,0h-.08l-.07,0h-.48l-.06,0-.16-.07-3.57-2h0L1132,503l0,.7a.41.41,0,0,1-.24.32l-2.46,1.52,0,0h0a.51.51,0,0,0,.15.14l7.79,4.45.23.08h0a1,1,0,0,0,.26,0h0a1.28,1.28,0,0,0,.27,0h0a1.33,1.33,0,0,0,.24-.1l2.88-1.77.07-.06-4.08-2.33Z"/><path class="cls-9" d="M1131,508.38a.41.41,0,0,1-.24.32l-2.49,1.54a.74.74,0,0,0,.13.12l3.57,2a.69.69,0,0,0,.23.08h0a1.1,1.1,0,0,0,.26,0h0a1.45,1.45,0,0,0,.29,0h0a.93.93,0,0,0,.25-.1l2.87-1.76a.38.38,0,0,0,.11-.11l-5-2.84Z"/><path class="cls-9" d="M1132.5,513.53h-.26l0,0h-.09l-.16-.07-3.56-2h0l-.08-.06,0,.72a.4.4,0,0,1-.23.33l-2.49,1.52a.25.25,0,0,0,.13.12l2.76,1.58a.78.78,0,0,0,.23.08h0l.25,0h0a1.27,1.27,0,0,0,.28,0h0a.66.66,0,0,0,.24-.11l2.88-1.75a.51.51,0,0,0,.21-.27h-.08Z"/><path class="cls-9" d="M1128.18,511.14v-.05h0l0-.79-.3.18-.11.06-.09,0h-.06l0,0h-.07l-.08,0h-.23l-.1,0H1127l-.16-.07-3.56-2h0l-.08-.06,0,.72a.41.41,0,0,1-.23.32l-2.5,1.54a.87.87,0,0,0,.14.12l3.56,2,.23.08h0a1.23,1.23,0,0,0,.27,0h0l.27,0h0a1,1,0,0,0,.25-.11l2.87-1.76a.85.85,0,0,0,.14-.11s0,0,0-.05Z"/><path class="cls-9" d="M1123.07,508.17l0-.79-.3.18-.11.06-.09,0,0,0h0l-.08,0h-.55a.6.6,0,0,1-.16-.08l-3.57-2h0a.21.21,0,0,1-.08-.06l0,.72a.41.41,0,0,1-.23.32l-2.5,1.54a.94.94,0,0,0,.14.12l3.56,2,.22.08h0a1.13,1.13,0,0,0,.26,0h0l.28,0h0a1.23,1.23,0,0,0,.26-.12l2.87-1.75.13-.13,0,0v-.09Z"/><path class="cls-9" d="M1118,505.31v-.05h0l0-.79-.3.18a.3.3,0,0,1-.11.06l-.09,0,0,0h0l-.08,0h-.07l-.08,0h-.07l-.08,0h-.24l-.16-.07-3.56-2h0s-.07,0-.08-.06l0,.72a.43.43,0,0,1-.23.32l-2.5,1.53a.41.41,0,0,0,.14.12l3.56,2a.9.9,0,0,0,.23.08h0a1.15,1.15,0,0,0,.26,0h0a1.51,1.51,0,0,0,.28-.05h0a1.09,1.09,0,0,0,.25-.1l2.87-1.77a.5.5,0,0,0,.13-.12l0,0S1118,505.33,1118,505.31Z"/><path class="cls-9" d="M1112.9,501.56l-.31.18-.1.06-.09,0-.06,0h-.58l-.07,0a.51.51,0,0,1-.15-.07l-3.58-2h0l-.07-.06,0,.72a.41.41,0,0,1-.23.32l-2.5,1.54a.53.53,0,0,0,.14.11l3.56,2a.73.73,0,0,0,.22.09h0a1.09,1.09,0,0,0,.26,0h0a1.17,1.17,0,0,0,.27,0h0a.87.87,0,0,0,.24-.1l2.87-1.76a.58.58,0,0,0,.14-.13l0,0a.43.43,0,0,0,0-.05v0h0Z"/><path class="cls-9" d="M1107.77,499.5v-.05h0l0-.79-.29.18-.11.06-.09,0h-.08l-.08,0h-.48a.11.11,0,0,1-.07,0,.39.39,0,0,1-.15-.06l-3.57-2h0l-.09-.06,0-.06h0l0,0s0,0,0-.05v-.08h0l0-.81-.32.19-.11.06-.09,0H1102l-.08,0h-.32l0,0h-.11l-.16-.07-3.56-2h0l-.09-.07,0-.05,0,0h0v0s0,0,0,0,0,0,0,0v-.05h0l0-.79-.29.18-.11.06a.32.32,0,0,0-.09,0h-.39s0,0-.08,0h-.17l-.06,0a.67.67,0,0,1-.17-.06l-3.56-2h0s-.06,0-.09-.07l0,0h0v0h0s0,0,0-.05v-.08h0l0-.8-.3.19-.11,0-.09,0h-.08l-.08,0h-.4l0,0h-.1l-.16-.07-3.56-2v0l-.09-.06s0,0,0-.06h0l0,0a.06.06,0,0,1,0,0l0,0v-.05h0l0-.79-.3.19-.11.05-.09,0h-.08l-.08,0h-.54a.46.46,0,0,1-.16-.07l-3.57-2h0l-.07-.07,0,.72a.46.46,0,0,1-.24.33l-2.5,1.53a.55.55,0,0,0,.14.12l24,13.68a.72.72,0,0,0,.22.08h0a1.09,1.09,0,0,0,.26,0h0a1,1,0,0,0,.28-.05h0a.91.91,0,0,0,.25-.11l2.86-1.76a.3.3,0,0,0,.13-.12v0A.23.23,0,0,0,1107.77,499.5Z"/><path class="cls-9" d="M1082.28,484.09l-.3.19-.11.05-.09,0,0,0h0l-.07,0-.08,0h-.47l-.16-.06-3.65-2.09,0,.7a.39.39,0,0,1-.23.32l-2.5,1.54a.87.87,0,0,0,.14.12l3.56,2a.93.93,0,0,0,.24.09h0l.26,0h0a1.35,1.35,0,0,0,.28,0h0a1.33,1.33,0,0,0,.24-.11l2.88-1.76a.8.8,0,0,0,.13-.13s0,0,0,0l0,0v0h0Z"/><path class="cls-9" d="M1075.07,481a.2.2,0,0,1-.09-.06s0,0,0-.06h0l0,0s0,0,0,0a.13.13,0,0,0,0-.06v0h0l0-.88-.37.22a.39.39,0,0,1-.11.06.24.24,0,0,1-.09,0l0,0h0l-.07,0h-.41a.07.07,0,0,1,0,0h-.1a.59.59,0,0,1-.16-.07l-1.35-.77,0,.71a.41.41,0,0,1-.23.32l-2.47,1.52v0h0a.56.56,0,0,0,.16.14l3.56,2a.65.65,0,0,0,.22.08h0l.26,0h0a1.45,1.45,0,0,0,.28,0h0l.25-.11,2.86-1.76s.06-.06.09-.08l-2.06-1.18Z"/><path class="cls-9" d="M1083.46,480.49a.21.21,0,0,1-.1-.06l0-.05h0l0,0,0,0a.35.35,0,0,1,0-.06v0h0l0-.78-.3.18a.43.43,0,0,1-.12.05l-.08,0h-.08l-.08,0h-.54l-.16-.07-3.56-2h0a.15.15,0,0,1-.09-.06l0,0v0h0l0,0,0,0a.43.43,0,0,0,0-.05v0h0l0-.85-.35.21-.11.05-.09,0h-.08l-.08,0h-.31l-.09,0h0l0,0h-.07a.44.44,0,0,1-.16-.06l-2.94-1.67,0,.74a.44.44,0,0,1-.23.33l-2.39,1.46a.24.24,0,0,0,0,.13v0a.39.39,0,0,0,.15.13l2.11,1.2a.69.69,0,0,0,.23.09h0a1.07,1.07,0,0,0,.25,0h0l.28,0h0a.66.66,0,0,0,.24-.11l2.88-1.76a.39.39,0,0,0,.23-.32l0,1a.41.41,0,0,1-.23.32l-2.46,1.52s0,0,0,0h0a.49.49,0,0,0,.15.13l5.85,3.33a.73.73,0,0,0,.22.09h0a1.14,1.14,0,0,0,.26,0h0a1.26,1.26,0,0,0,.28,0h0a1.33,1.33,0,0,0,.24-.1l2.87-1.77a.31.31,0,0,0,.12-.1l-1.54-.88Z"/><path class="cls-9" d="M1072.07,474l-.09-.06,0-.06h0s0,0,0,0l0,0v-.09l0-.95-.47.28-.1.06-.1,0,0,0h-.11l-.07,0h-.47l-.17-.07-.12-.07,0,.72a.4.4,0,0,1-.24.32l-2.48,1.53a.41.41,0,0,0,.15.14l2,1.14a.92.92,0,0,0,.23.09h0a1.22,1.22,0,0,0,.27,0h0l.27,0h0a.8.8,0,0,0,.25-.11l2.87-1.75a.38.38,0,0,0,.11-.11l-1.65-.94Z"/><path class="cls-9" d="M1066.53,470.87l-.1-.08,0,0h0l0,0,0,0a.23.23,0,0,0,0,0v-.05h0l0-.8-.3.18-.11.07-.09,0,0,0h0a.1.1,0,0,1-.07,0h-.48l-.07,0a.46.46,0,0,1-.16-.07l-.23-.13,0,.72a.43.43,0,0,1-.24.32l-2.51,1.55.06,0,4,2.32a1.57,1.57,0,0,0,.23.09h0a1.11,1.11,0,0,0,.26,0h0l.27,0h0l.25-.1L1070,473s.06-.07.1-.09l-3.61-2.06Z"/><path class="cls-9" d="M1083.92,454.18a1.14,1.14,0,0,0-1.06,0L1080,456c-.3.19-.31.48,0,.64l3.56,2a1.16,1.16,0,0,0,1.07,0l2.87-1.77c.3-.18.31-.46,0-.62Z"/><path class="cls-9" d="M1088.91,457a1.11,1.11,0,0,0-1.06,0l-2.86,1.75c-.31.19-.33.48,0,.63l3.57,2a1.11,1.11,0,0,0,1.06,0l2.86-1.77c.31-.17.32-.46,0-.62Z"/><path class="cls-9" d="M1094,459.93a1.17,1.17,0,0,0-1.06,0l-2.87,1.77c-.3.18-.32.46,0,.63l3.57,2a1.19,1.19,0,0,0,1.07,0l2.87-1.76c.29-.19.3-.47,0-.63Z"/><path class="cls-9" d="M1099.16,462.88a1.14,1.14,0,0,0-1.06,0l-2.87,1.76c-.3.19-.32.47,0,.63l3.56,2a1.13,1.13,0,0,0,1.07,0l2.87-1.76c.29-.18.31-.46,0-.62Z"/><path class="cls-9" d="M1104.26,465.78a1.16,1.16,0,0,0-1.07,0l-2.86,1.76c-.3.19-.32.47,0,.63l3.57,2a1.19,1.19,0,0,0,1.07,0l2.87-1.77c.29-.18.31-.46,0-.62Z"/><path class="cls-9" d="M1109.36,468.69a1.15,1.15,0,0,0-1,0l-2.88,1.76c-.3.19-.31.47,0,.63l3.56,2a1.16,1.16,0,0,0,1.07,0l2.87-1.77c.29-.18.31-.46,0-.63Z"/><path class="cls-9" d="M1114.46,471.6a1.14,1.14,0,0,0-1.06,0l-2.87,1.76c-.3.18-.31.47,0,.63l3.56,2a1.16,1.16,0,0,0,1.07-.05l2.87-1.76c.3-.18.31-.47,0-.62Z"/><path class="cls-9" d="M1119.57,474.51a1.11,1.11,0,0,0-1.06,0l-2.88,1.77c-.3.18-.31.46,0,.63l3.56,2a1.16,1.16,0,0,0,1.07,0l2.86-1.77c.3-.18.32-.46,0-.63Z"/><path class="cls-9" d="M1124.67,477.42a1.14,1.14,0,0,0-1.06,0l-2.88,1.76c-.3.19-.31.47,0,.64l3.56,2a1.13,1.13,0,0,0,1.07,0l2.87-1.76c.3-.18.31-.46,0-.63Z"/><path class="cls-9" d="M1129.78,480.33a1.17,1.17,0,0,0-1.06,0l-2.87,1.77c-.3.18-.32.47,0,.63l3.56,2a1.19,1.19,0,0,0,1.07,0l2.86-1.76c.31-.18.31-.47,0-.63Z"/><path class="cls-9" d="M1134.88,483.25a1.17,1.17,0,0,0-1.06,0l-2.87,1.77c-.3.18-.32.46,0,.63l3.56,2a1.14,1.14,0,0,0,1.06,0l2.87-1.76c.3-.19.32-.47,0-.63Z"/><path class="cls-9" d="M1140,486.16a1.14,1.14,0,0,0-1.06,0l-2.87,1.76c-.3.19-.31.47,0,.63l3.56,2a1.19,1.19,0,0,0,1.07,0l2.87-1.76c.29-.19.31-.47,0-.63Z"/><path class="cls-9" d="M1145.08,489.06a1.2,1.2,0,0,0-1.06,0l-2.87,1.76c-.3.2-.31.48,0,.64l3.56,2a1.26,1.26,0,0,0,1.07,0l2.87-1.78c.3-.17.31-.46,0-.62Z"/><path class="cls-9" d="M1150.19,492a1.14,1.14,0,0,0-1.06,0l-2.88,1.76c-.3.18-.31.46,0,.63l3.56,2a1.19,1.19,0,0,0,1.07,0l2.87-1.76c.3-.19.31-.47,0-.63Z"/><path class="cls-9" d="M1155.29,494.89a1.13,1.13,0,0,0-1.07,0l-2.87,1.75c-.3.19-.31.48,0,.63l3.56,2a1.13,1.13,0,0,0,1.07,0l2.87-1.77c.3-.17.31-.46,0-.63Z"/><path class="cls-9" d="M1079.51,456.88a1.12,1.12,0,0,0-1,0l-2.88,1.77c-.3.18-.31.46,0,.62l12,6.86a1.14,1.14,0,0,0,1.06,0l2.87-1.76c.3-.19.31-.47,0-.63Z"/><path class="cls-9" d="M1093.1,464.62a1.19,1.19,0,0,0-1.07,0l-2.87,1.77c-.3.18-.31.46,0,.63l3.56,2a1.17,1.17,0,0,0,1.06,0l2.87-1.77c.31-.18.31-.46,0-.62Z"/><path class="cls-9" d="M1098.2,467.53a1.17,1.17,0,0,0-1.06,0l-2.88,1.76c-.3.19-.31.47,0,.63l3.56,2a1.14,1.14,0,0,0,1.06,0l2.88-1.77c.3-.18.3-.46,0-.63Z"/><path class="cls-9" d="M1103.3,470.44a1.17,1.17,0,0,0-1.06,0l-2.87,1.77c-.3.18-.32.45,0,.62l3.57,2a1.17,1.17,0,0,0,1.06,0l2.87-1.77c.3-.18.31-.46,0-.62Z"/><path class="cls-9" d="M1108.4,473.35a1.19,1.19,0,0,0-1.07,0l-2.87,1.76c-.3.19-.3.47,0,.63l3.56,2a1.13,1.13,0,0,0,1.07,0l2.86-1.75c.31-.19.31-.47,0-.64Z"/><path class="cls-9" d="M1113.5,476.27a1.11,1.11,0,0,0-1.06,0l-2.87,1.76c-.3.19-.31.46,0,.63l3.56,2a1.16,1.16,0,0,0,1.07,0l2.87-1.76c.3-.19.31-.47,0-.63Z"/><path class="cls-9" d="M1118.6,479.17a1.19,1.19,0,0,0-1.07,0l-2.86,1.76c-.3.19-.31.47,0,.63l3.57,2a1.11,1.11,0,0,0,1.06,0l2.87-1.76c.3-.18.31-.46,0-.62Z"/><path class="cls-9" d="M1123.72,482.09a1.16,1.16,0,0,0-1.07,0l-2.87,1.76c-.3.18-.31.47,0,.63l3.57,2a1.17,1.17,0,0,0,1.06,0l2.87-1.77c.31-.19.32-.47,0-.63Z"/><path class="cls-9" d="M1128.82,485a1.13,1.13,0,0,0-1.07,0l-2.87,1.76c-.3.18-.31.46,0,.62l3.56,2a1.16,1.16,0,0,0,1.07,0l2.87-1.76c.3-.19.31-.47,0-.63Z"/><path class="cls-9" d="M1133.92,487.91a1.13,1.13,0,0,0-1.07,0L1130,489.7c-.3.19-.31.48,0,.64l3.57,2a1.09,1.09,0,0,0,1,0l2.87-1.76c.31-.18.31-.47,0-.62Z"/><path class="cls-9" d="M1139,490.81a1.2,1.2,0,0,0-1.06,0l-2.87,1.77c-.3.18-.31.46,0,.63l3.57,2a1.14,1.14,0,0,0,1.06,0l2.87-1.76c.3-.19.31-.46,0-.63Z"/><path class="cls-9" d="M1144.12,493.73a1.14,1.14,0,0,0-1.06,0l-2.87,1.76c-.3.19-.32.47,0,.63l3.56,2a1.13,1.13,0,0,0,1.07,0l2.86-1.76c.3-.19.31-.47,0-.63Z"/><path class="cls-9" d="M1149.22,496.63a1.19,1.19,0,0,0-1.07,0l-2.87,1.77c-.3.18-.3.46,0,.63l3.56,2a1.2,1.2,0,0,0,1.06,0l2.87-1.77c.3-.18.31-.46,0-.63Z"/><path class="cls-9" d="M1075.08,459.59a1.14,1.14,0,0,0-1.06.05l-2.87,1.76c-.3.18-.31.46,0,.62l3.85,2.2a1.11,1.11,0,0,0,1.06,0l2.87-1.76c.31-.19.32-.47,0-.62Z"/><path class="cls-9" d="M1080.39,462.63a1.2,1.2,0,0,0-1.06,0l-2.87,1.77c-.31.18-.31.46,0,.62l3.85,2.2a1.19,1.19,0,0,0,1.07,0l2.86-1.77c.31-.18.32-.46,0-.63Z"/><path class="cls-9" d="M1070.67,462.31a1.16,1.16,0,0,0-1.07,0l-7.24,4.44c-.3.19-.31.48,0,.63L1065,469a1.17,1.17,0,0,0,1.06,0l7.24-4.44c.3-.19.32-.47,0-.63Z"/><path class="cls-9" d="M1074.9,464.73a1.17,1.17,0,0,0-1.06,0l-2.87,1.77c-.3.18-.32.47,0,.63l3.85,2.19a1.19,1.19,0,0,0,1.07,0l2.87-1.76c.3-.19.31-.47,0-.63Z"/><path class="cls-9" d="M1091.16,468.74a1.13,1.13,0,0,0-1.07,0l-2.87,1.76c-.3.18-.31.46,0,.63l3.56,2a1.16,1.16,0,0,0,1.07-.05l2.87-1.75c.3-.19.32-.47,0-.63Z"/><path class="cls-9" d="M1086,465.79a1.16,1.16,0,0,0-1.07,0l-4.4,2.69-1,.66-1.82,1.11c-.3.19-.32.47,0,.63l7,4a1.16,1.16,0,0,0,1.07,0l2.87-1.76c.29-.18.31-.47,0-.63l-3-1.7,3.85-2.36c.3-.19.31-.47,0-.63Z"/><path class="cls-9" d="M1096.25,471.64a1.17,1.17,0,0,0-1.06,0l-2.88,1.76c-.29.19-.3.47,0,.63l3.57,2a1.17,1.17,0,0,0,1.06,0l2.87-1.77c.3-.18.31-.46,0-.62Z"/><path class="cls-9" d="M1101.36,474.55a1.16,1.16,0,0,0-1.07.05l-2.86,1.75c-.31.19-.31.47,0,.64l3.56,2a1.17,1.17,0,0,0,1.06,0l2.87-1.76c.3-.19.32-.47,0-.63Z"/><path class="cls-9" d="M1106.46,477.47a1.16,1.16,0,0,0-1.07,0l-2.87,1.76c-.29.19-.31.47,0,.63l3.56,2a1.14,1.14,0,0,0,1.06,0l2.87-1.77c.3-.18.32-.46,0-.63Z"/><path class="cls-9" d="M1111.56,480.37a1.13,1.13,0,0,0-1.07.05l-2.87,1.76c-.29.18-.3.46,0,.62l3.57,2a1.17,1.17,0,0,0,1.06,0l2.88-1.76c.29-.19.3-.47,0-.63Z"/><path class="cls-9" d="M1116.66,483.28a1.19,1.19,0,0,0-1.07,0l-2.87,1.76c-.3.19-.31.47,0,.64l3.56,2a1.17,1.17,0,0,0,1.06,0l2.87-1.77c.3-.18.32-.46,0-.63Z"/><path class="cls-9" d="M1121.77,486.2a1.14,1.14,0,0,0-1.06,0l-2.87,1.76c-.3.18-.31.47,0,.63l3.56,2a1.14,1.14,0,0,0,1.06,0l2.88-1.77c.3-.18.31-.46,0-.63Z"/><path class="cls-9" d="M1126.87,489.11a1.17,1.17,0,0,0-1.06,0l-2.87,1.77c-.3.17-.31.46,0,.62l3.56,2a1.2,1.2,0,0,0,1.06,0l2.88-1.77c.3-.19.31-.47,0-.62Z"/><path class="cls-9" d="M1132,492a1.16,1.16,0,0,0-1.07,0l-2.87,1.76c-.3.19-.31.47,0,.63l3.56,2a1.11,1.11,0,0,0,1.06,0l2.87-1.76c.3-.18.32-.46,0-.63Z"/><path class="cls-9" d="M1137.08,494.93a1.16,1.16,0,0,0-1.07,0l-2.87,1.76c-.3.18-.31.47,0,.63l3.56,2a1.17,1.17,0,0,0,1.06,0l2.87-1.77c.3-.18.31-.47,0-.63Z"/><path class="cls-9" d="M1142.25,497.88a1.16,1.16,0,0,0-1.07,0l-2.86,1.77c-.3.18-.32.46,0,.62l7.79,4.45a1.17,1.17,0,0,0,1.06,0L1150,503c.3-.19.31-.48,0-.64Z"/><path class="cls-9" d="M1090.19,473.39a1.17,1.17,0,0,0-1.06,0l-2.87,1.76c-.31.19-.31.47,0,.64l3.56,2a1.19,1.19,0,0,0,1.07,0l2.87-1.77c.3-.18.31-.46,0-.63Z"/><path class="cls-9" d="M1095.3,476.31a1.16,1.16,0,0,0-1.07,0l-2.87,1.76c-.3.18-.32.46,0,.63l3.56,2a1.11,1.11,0,0,0,1.07,0l2.87-1.76c.3-.17.31-.46,0-.63Z"/><path class="cls-9" d="M1100.4,479.21a1.19,1.19,0,0,0-1.07,0l-2.87,1.77c-.3.18-.32.46,0,.63l3.56,2a1.19,1.19,0,0,0,1.07,0l2.87-1.76c.3-.19.31-.47,0-.63Z"/><path class="cls-9" d="M1105.49,482.13a1.12,1.12,0,0,0-1,0l-2.88,1.75c-.29.2-.31.48,0,.63l3.56,2a1.13,1.13,0,0,0,1.07,0l2.87-1.76c.3-.18.31-.47,0-.64Z"/><path class="cls-9" d="M1110.59,485a1.09,1.09,0,0,0-1,0l-2.88,1.76c-.3.18-.32.46,0,.63l3.57,2a1.14,1.14,0,0,0,1.06-.05l2.87-1.75c.3-.19.31-.47,0-.63Z"/><path class="cls-9" d="M1115.71,488a1.19,1.19,0,0,0-1.07,0l-2.86,1.76c-.31.19-.32.47,0,.63l3.56,2a1.16,1.16,0,0,0,1.07-.05l2.87-1.76c.29-.18.3-.46,0-.63Z"/><path class="cls-9" d="M1120.81,490.86a1.13,1.13,0,0,0-1.07,0l-2.86,1.77c-.31.17-.32.46,0,.62l3.56,2a1.17,1.17,0,0,0,1.06,0l2.87-1.76c.3-.18.32-.47,0-.62Z"/><path class="cls-9" d="M1125.91,493.77a1.17,1.17,0,0,0-1.06,0l-2.87,1.75c-.3.2-.32.48,0,.64l3.56,2a1.17,1.17,0,0,0,1.06,0l2.88-1.77c.29-.18.31-.46,0-.63Z"/><path class="cls-9" d="M1131,496.68a1.14,1.14,0,0,0-1.06,0l-2.87,1.76c-.31.18-.32.47,0,.63l3.56,2a1.11,1.11,0,0,0,1.06,0l2.88-1.76c.3-.18.31-.47,0-.63Z"/><path class="cls-9" d="M1136.11,499.59a1.14,1.14,0,0,0-1.06,0l-2.87,1.77c-.3.18-.32.46,0,.63l3.56,2a1.14,1.14,0,0,0,1.06-.05l2.88-1.76c.29-.19.31-.46,0-.63Z"/><path class="cls-9" d="M1141.21,502.5a1.17,1.17,0,0,0-1.06,0l-2.87,1.76c-.3.19-.32.47,0,.63l4.43,2.52a1.14,1.14,0,0,0,1.06,0l2.87-1.76c.3-.19.31-.47,0-.64Z"/><path class="cls-9" d="M1070.53,467.41a1.14,1.14,0,0,0-1.06,0l-2.88,1.77c-.3.18-.31.46,0,.62l3.85,2.2a1.14,1.14,0,0,0,1.06,0l2.88-1.76c.29-.19.31-.47,0-.63Z"/><path class="cls-9" d="M1076.07,470.55a1.11,1.11,0,0,0-1.06,0l-2.87,1.75c-.3.19-.32.48,0,.63l4.7,2.69a1.2,1.2,0,0,0,1.06,0l2.86-1.78c.31-.17.32-.45,0-.62Z"/><path class="cls-9" d="M1082.37,474.13a1.16,1.16,0,0,0-1.07.05l-2.87,1.75c-.3.19-.31.47,0,.63l3.57,2a1.11,1.11,0,0,0,1.06,0l2.87-1.76c.3-.18.31-.47,0-.62Z"/><path class="cls-9" d="M1087.47,477.05a1.13,1.13,0,0,0-1.07,0l-2.88,1.76c-.29.18-.3.47,0,.64l3.57,2a1.14,1.14,0,0,0,1.06-.05l2.87-1.75c.3-.19.31-.48,0-.63Z"/><path class="cls-9" d="M1092.57,480a1.19,1.19,0,0,0-1.07,0l-2.87,1.76c-.3.19-.31.47,0,.63l3.57,2a1.14,1.14,0,0,0,1.06,0l2.87-1.76c.3-.19.31-.47,0-.64Z"/><path class="cls-9" d="M1097.67,482.86a1.13,1.13,0,0,0-1.08.05l-2.86,1.75c-.3.18-.31.46,0,.63l3.56,2a1.14,1.14,0,0,0,1.06-.05l2.87-1.76c.3-.19.32-.46,0-.63Z"/><path class="cls-9" d="M1102.76,485.77a1.15,1.15,0,0,0-1,0l-2.88,1.76c-.29.19-.31.47,0,.63l3.57,2a1.2,1.2,0,0,0,1.06,0l2.87-1.76c.3-.19.32-.47,0-.63Z"/><path class="cls-9" d="M1107.87,488.68a1.16,1.16,0,0,0-1.07,0l-2.87,1.76c-.3.18-.31.47,0,.63l3.56,2a1.2,1.2,0,0,0,1.06,0l2.87-1.76c.3-.2.32-.48,0-.64Z"/><path class="cls-9" d="M1113,491.6a1.15,1.15,0,0,0-1.08,0L1109,493.4c-.3.18-.31.47,0,.64l3.57,2a1.09,1.09,0,0,0,1.05,0l2.88-1.75c.3-.2.31-.47,0-.63Z"/><path class="cls-9" d="M1118.08,494.51a1.16,1.16,0,0,0-1.07,0l-2.86,1.76c-.3.19-.32.47,0,.62l3.56,2a1.11,1.11,0,0,0,1.06,0l2.87-1.76c.3-.18.32-.47,0-.63Z"/><path class="cls-9" d="M1123.18,497.41a1.14,1.14,0,0,0-1.06.06l-2.87,1.76c-.3.17-.32.45,0,.62l3.56,2a1.19,1.19,0,0,0,1.07,0l2.86-1.76c.31-.19.32-.47,0-.63Z"/><path class="cls-9" d="M1128.28,500.33a1.16,1.16,0,0,0-1.07,0l-2.86,1.75c-.3.2-.31.48,0,.64l3.57,2a1.06,1.06,0,0,0,1,0l2.87-1.76c.3-.19.32-.47,0-.63Z"/><path class="cls-9" d="M1133.46,503.28a1.19,1.19,0,0,0-1.07,0l-2.87,1.76c-.3.19-.31.47,0,.63l7.79,4.45a1.17,1.17,0,0,0,1.06,0l2.88-1.77c.3-.19.31-.47,0-.63Z"/><path class="cls-9" d="M1061.87,467.71a1.14,1.14,0,0,0-1.06,0l-7.28,4.47c-.3.18-.32.46,0,.63l2.7,1.54a1.17,1.17,0,0,0,1.06-.05l7.28-4.47c.3-.17.32-.46,0-.63Z"/><path class="cls-9" d="M1066,470.06a1.16,1.16,0,0,0-1.07.05l-2.87,1.76c-.3.18-.32.46,0,.62l4.06,2.32a1.16,1.16,0,0,0,1.07,0L1070,473c.3-.19.31-.47,0-.64Z"/><path class="cls-9" d="M1071.63,473.27a1.19,1.19,0,0,0-1.07,0l-2.87,1.76c-.3.19-.31.47,0,.64l2,1.14a1.16,1.16,0,0,0,1.07,0l2.87-1.75c.3-.2.31-.48,0-.63Z"/><path class="cls-9" d="M1075.35,475.4a1.14,1.14,0,0,0-1.06,0l-2.87,1.76c-.3.19-.31.47,0,.63l2.11,1.2a1.11,1.11,0,0,0,1.06,0l2.88-1.76c.3-.18.31-.46,0-.63Z"/><path class="cls-9" d="M1079.07,477.52a1.17,1.17,0,0,0-1.06,0l-2.87,1.76c-.3.19-.31.47,0,.63l5.85,3.33a1.12,1.12,0,0,0,1,0l2.87-1.77c.3-.18.32-.46,0-.63Z"/><path class="cls-9" d="M1086.45,481.73a1.14,1.14,0,0,0-1.06,0l-2.87,1.76c-.3.17-.32.46,0,.63l3.56,2a1.22,1.22,0,0,0,1.07,0l2.86-1.77c.31-.19.32-.47,0-.62Z"/><path class="cls-9" d="M1091.55,484.64a1.11,1.11,0,0,0-1.06,0l-2.87,1.76c-.3.19-.31.47,0,.63l3.57,2a1.11,1.11,0,0,0,1.06,0l2.86-1.76c.31-.18.32-.47,0-.63Z"/><path class="cls-9" d="M1096.65,487.55a1.14,1.14,0,0,0-1.06,0l-2.87,1.76c-.3.19-.31.48,0,.64l3.56,2a1.19,1.19,0,0,0,1.07,0l2.87-1.76c.3-.19.31-.47,0-.64Z"/><path class="cls-9" d="M1101.76,490.46a1.19,1.19,0,0,0-1.07,0l-2.87,1.76c-.3.19-.31.47,0,.63l3.57,2a1.17,1.17,0,0,0,1.06,0l2.87-1.77c.3-.19.32-.46,0-.63Z"/><path class="cls-9" d="M1106.87,493.38a1.13,1.13,0,0,0-1.07,0l-2.87,1.76c-.3.18-.31.47,0,.63l3.56,2a1.14,1.14,0,0,0,1.06,0l2.87-1.76c.31-.18.32-.47,0-.63Z"/><path class="cls-9" d="M1112,496.29a1.17,1.17,0,0,0-1.06,0l-2.87,1.77c-.3.18-.32.46,0,.63l3.56,2a1.11,1.11,0,0,0,1.06,0l2.87-1.77c.3-.18.32-.46,0-.63Z"/><path class="cls-9" d="M1117.08,499.2a1.16,1.16,0,0,0-1.07,0l-2.87,1.76c-.3.19-.31.47,0,.63l3.57,2a1.14,1.14,0,0,0,1.06,0l2.86-1.76c.31-.18.32-.47,0-.63Z"/><path class="cls-9" d="M1122.17,502.11a1.14,1.14,0,0,0-1.06,0l-2.88,1.77c-.29.18-.3.46,0,.63l3.56,2a1.19,1.19,0,0,0,1.07,0l2.86-1.76c.31-.19.32-.47,0-.63Z"/><path class="cls-9" d="M1127.28,505a1.16,1.16,0,0,0-1.07,0l-2.87,1.76c-.3.18-.31.46,0,.62l3.57,2a1.14,1.14,0,0,0,1.06,0l2.87-1.76c.3-.19.31-.47,0-.63Z"/><path class="cls-9" d="M1132.38,507.93a1.15,1.15,0,0,0-1.08,0l-2.86,1.76c-.3.18-.31.46,0,.63l3.57,2a1.17,1.17,0,0,0,1.06,0l2.87-1.76c.3-.19.31-.47,0-.63Z"/><path class="cls-9" d="M1063.26,473.71a1.2,1.2,0,0,0-1.06,0l-2.87,1.77c-.3.19-.32.47,0,.64l3.56,2a1.14,1.14,0,0,0,1.06,0l2.87-1.76c.3-.18.32-.46,0-.63Z"/><path class="cls-9" d="M1068.36,476.63a1.17,1.17,0,0,0-1.06,0l-2.87,1.76c-.31.19-.32.47,0,.63l3.56,2a1.13,1.13,0,0,0,1.07,0l2.87-1.76c.29-.19.3-.47,0-.63Z"/><path class="cls-9" d="M1073.51,479.57a1.14,1.14,0,0,0-1.06,0l-2.87,1.77c-.3.19-.32.47,0,.63l3.56,2a1.19,1.19,0,0,0,1.07,0l2.86-1.76c.3-.18.31-.47,0-.63Z"/><path class="cls-9" d="M1078.61,482.47a1.22,1.22,0,0,0-1.07,0l-2.86,1.76c-.31.19-.31.47,0,.64l3.56,2a1.14,1.14,0,0,0,1.06,0l2.88-1.76c.29-.19.3-.47,0-.64Z"/><path class="cls-9" d="M1083.71,485.39a1.11,1.11,0,0,0-1.06,0l-2.87,1.76c-.3.18-.32.46,0,.63l24,13.68a1.16,1.16,0,0,0,1.07-.05l2.86-1.76c.3-.18.32-.46,0-.62Z"/><path class="cls-9" d="M1109.23,499.94a1.14,1.14,0,0,0-1.06,0l-2.87,1.76c-.31.19-.32.47,0,.63l3.56,2a1.14,1.14,0,0,0,1.06,0l2.87-1.76c.3-.19.32-.47,0-.63Z"/><path class="cls-9" d="M1114.33,502.85a1.17,1.17,0,0,0-1.06,0l-2.87,1.76c-.3.19-.32.47,0,.63l3.56,2a1.19,1.19,0,0,0,1.07,0l2.87-1.77c.29-.17.31-.46,0-.63Z"/><path class="cls-9" d="M1119.43,505.76a1.17,1.17,0,0,0-1.06,0l-2.87,1.76c-.31.18-.32.47,0,.64l3.56,2a1.16,1.16,0,0,0,1.07-.05l2.87-1.75c.29-.19.31-.48,0-.63Z"/><path class="cls-9" d="M1124.53,508.67a1.17,1.17,0,0,0-1.06,0l-2.87,1.77c-.3.18-.32.46,0,.63l3.56,2a1.13,1.13,0,0,0,1.07,0l2.87-1.76c.3-.18.31-.46,0-.63Z"/><path class="cls-9" d="M1129.63,511.58a1.14,1.14,0,0,0-1.06,0l-2.87,1.76c-.31.18-.32.47,0,.63l2.76,1.58a1.14,1.14,0,0,0,1.06-.05l2.88-1.75c.29-.19.31-.47,0-.63Z"/><path class="cls-6" d="M1127.66,451.46l-82.19-46.55c-1.17-.67-2.17-.06-2.22,1.34l-2.68,66.81a4.48,4.48,0,0,0,2,3.75l82.19,46.55c1.16.66,2.16.06,2.22-1.35l2.68-66.81A4.45,4.45,0,0,0,1127.66,451.46Z"/><path class="cls-103" d="M1133.18,452.27c0-.09,0-.17,0-.25a.24.24,0,0,1,0-.08s0,0,0-.05a2,2,0,0,0-.09-.31.77.77,0,0,0-.08-.19h0a1.87,1.87,0,0,0-.07-.18c0-.06-.14-.28-.16-.34h0v0l-.22-.37-.06-.07s0,0,0-.05l0-.07c0-.08-.22-.27-.24-.3l-.08-.07-.07-.09-.19-.17-.12-.11a2.48,2.48,0,0,0-.4-.26L1049,402.71c-.11-.06-.36-.16-.4-.18l-.5-.09-.28,0h-.12l-.11.06-.12.05h0l-3.55,2.2a.87.87,0,0,1,.31-.14h0a2,2,0,0,1,.35,0h0l.35.06a2.66,2.66,0,0,1,.47.21l82.19,46.55a3.39,3.39,0,0,1,.39.27l.12.11a3.2,3.2,0,0,1,.27.25l.07.08.3.37,0,0a5.3,5.3,0,0,1,.28.47h0c.08.16.17.34.24.51h0c.06.17.12.34.17.51s0,0,0,.05a4,4,0,0,1,.09.48s0,.05,0,.07a3,3,0,0,1,0,.51L1127,522a1.69,1.69,0,0,1-.69,1.44l3.56-2.19a1.72,1.72,0,0,0,.68-1.45l2.69-66.8c0-.14,0-.48,0-.48A2.3,2.3,0,0,1,1133.18,452.27Z"/></svg>