<?xml version="1.0" encoding="utf-8"?>
<!-- Generator: Adobe Illustrator 25.4.1, SVG Export Plug-In . SVG Version: 6.00 Build 0)  -->
<svg version="1.1" id="Layer_1" xmlns="http://www.w3.org/2000/svg" xmlns:xlink="http://www.w3.org/1999/xlink" x="0px" y="0px"
	 viewBox="0 0 1040 1080" style="enable-background:new 0 0 1040 1080;" xml:space="preserve">
<style type="text/css">
	.st0{opacity:0.1;fill:#00001E;enable-background:new    ;}
	.st1{fill:none;}
	.st2{fill:#3486FE;}
	.st3{fill:url(#SVGID_1_);}
	.st4{opacity:0.67;fill:#3486FE;enable-background:new    ;}
	.st5{opacity:0.67;fill:url(#SVGID_00000021104512962847441340000017793286958901176755_);enable-background:new    ;}
	.st6{clip-path:url(#SVGID_00000065056286786716397260000009827107405128440225_);}
	.st7{opacity:0.2;fill:#3486FE;enable-background:new    ;}
	.st8{fill:#F9329C;}
	.st9{fill:#FFFFFF;}
	.st10{fill:#72ABFE;}
	.st11{clip-path:url(#SVGID_00000022537026879087416930000004494310245421324219_);}
	.st12{fill:#94633D;}
	.st13{fill:#3264FA;}
	.st14{clip-path:url(#SVGID_00000085943155694748577690000017424773975081441680_);}
	.st15{clip-path:url(#SVGID_00000165210764186490253710000013443046688840743589_);}
	.st16{fill:#F7FBFF;}
	.st17{clip-path:url(#SVGID_00000179628238964252347420000018309507443327949440_);}
	.st18{fill:#95BDE5;}
	.st19{opacity:0.1;clip-path:url(#SVGID_00000150068656167036092320000014526891451144921015_);enable-background:new    ;}
	.st20{fill:#00001E;}
	.st21{fill:#91BEFF;}
	.st22{clip-path:url(#SVGID_00000042697729481502955890000003007996713346617487_);}
	.st23{clip-path:url(#SVGID_00000016786833073503342810000015788872861999934896_);}
	.st24{fill:url(#SVGID_00000079485997013276580690000016843810750920154010_);}
	.st25{clip-path:url(#SVGID_00000182486181352043080410000012161936104630501774_);}
	.st26{fill:#172182;}
	.st27{clip-path:url(#SVGID_00000040553739674758059780000009049151461619304364_);}
	.st28{opacity:0.48;fill:#95BDE5;enable-background:new    ;}
	.st29{opacity:0.5;fill:#FFFFFF;enable-background:new    ;}
	.st30{clip-path:url(#SVGID_00000083057289320295111550000007422699710652212142_);}
	.st31{fill:#C2DBFF;}
	.st32{opacity:0.3;fill:#0D0E1D;enable-background:new    ;}
</style>
<g>
	<g id="Layer_1_00000018200843334361033670000001474470970726536093_">
		<path class="st0" d="M504.5,323.9C191.5,174.2,49.2,253.7,49.2,438.3c0,315.6,299.2,618.3,585.6,516.6
			C1094.9,791.4,789.7,460.4,504.5,323.9z"/>
		<path class="st1" d="M250.6,331.4L250.6,331.4z"/>
		<path class="st2" d="M565.5,40c-232.1,0-420.3,78.3-420.3,175v303.3c0-44.1,39.2-84.4,103.9-115.1c30.4-14.5,66.5-26.9,106.8-36.5
			c61.7-14.8,133.3-23.3,209.6-23.3s147.9,8.5,209.6,23.3c39.5,9.5,75,21.6,105.1,35.7l1.7,0.8V99.8l0,0
			C804.8,63.2,691.7,40,565.5,40z M249.1,330.1L249.1,330.1z"/>
		
			<linearGradient id="SVGID_1_" gradientUnits="userSpaceOnUse" x1="454.0298" y1="800.8589" x2="1098.4396" y2="799.1589" gradientTransform="matrix(1 0 0 -1 0 1082)">
			<stop  offset="0" style="stop-color:#172182"/>
			<stop  offset="0.14" style="stop-color:#192789"/>
			<stop  offset="0.35" style="stop-color:#1D369C"/>
			<stop  offset="0.59" style="stop-color:#244FBB"/>
			<stop  offset="0.87" style="stop-color:#2E72E6"/>
			<stop  offset="1" style="stop-color:#3486FE"/>
		</linearGradient>
		<path class="st3" d="M564.7,43.5c-230.4,0-417.1,77.7-417.1,173.6v301.1c0-43.8,38.9-83.8,103.1-114.3c30.2-14.4,66-26.6,106-36.2
			c61.2-14.7,132.2-23.1,208-23.1s146.8,8.4,208,23.1c39.2,9.4,74.4,21.4,104.3,35.5l1.7,0.8V102.8l0,0
			C802.2,66.5,689.9,43.5,564.7,43.5z M250.7,331.4L250.7,331.4z"/>
		<path class="st4" d="M147.6,217.1v301.1c0,43.8,38.9,83.7,103.1,114.3V331.4l0,0C186.5,300.9,147.6,260.9,147.6,217.1z"/>
		
			<linearGradient id="SVGID_00000171701306970139084020000001412051368052834739_" gradientUnits="userSpaceOnUse" x1="389.9" y1="655.5157" x2="94.8299" y2="658.0658" gradientTransform="matrix(1 0 0 -1 0 1082)">
			<stop  offset="0" style="stop-color:#172182"/>
			<stop  offset="0.14" style="stop-color:#192789"/>
			<stop  offset="0.35" style="stop-color:#1D369C"/>
			<stop  offset="0.59" style="stop-color:#244FBB"/>
			<stop  offset="0.87" style="stop-color:#2E72E6"/>
			<stop  offset="1" style="stop-color:#3486FE"/>
		</linearGradient>
		<path style="opacity:0.67;fill:url(#SVGID_00000171701306970139084020000001412051368052834739_);enable-background:new    ;" d="
			M145.2,217.1v301.1c0,43.8,38.9,83.7,103.1,114.3V331.4l0,0C184.1,300.9,145.2,260.9,145.2,217.1z"/>
		<g>
			<g>
				<g>
					<defs>
						<path id="SVGID_00000150072473588997787910000008444608415404886957_" d="M145.6,237.4c0-102.3,189.2-185.3,422.6-185.3
							s422.6,82.9,422.6,185.3v300.4c0-102.3-189.2-185.2-422.6-185.2s-422.6,82.9-422.6,185.2V237.4z"/>
					</defs>
					<clipPath id="SVGID_00000121994063132319587680000004380143301429011076_">
						<use xlink:href="#SVGID_00000150072473588997787910000008444608415404886957_"  style="overflow:visible;"/>
					</clipPath>
					<g style="clip-path:url(#SVGID_00000121994063132319587680000004380143301429011076_);">
						<path class="st7" d="M318,202.7c1,0.8,1.5,2,1.4,3.3c33.9,16.6,82.5-31,70.2-68.9c-1.5-4.7-10.6-27.8-40.8-23.8
							c-0.7,1.3-2,2.3-3.5,2.8c-25.6,8.4-34.9,30.1-37.8,39C305.1,162.8,298.6,189.1,318,202.7z"/>
						<path class="st7" d="M284.1,243.8c38.5-15.3,83.4-27.6,132.8-35.9V82.7c-49.4,8.3-94.3,20.6-132.8,35.9V243.8z M307.4,138.4
							c13.5-23.3,37.7-34.4,41.6-30.1c43.3-5.9,63.3,40.2,33.9,78.3c-15.4,19.9-43.8,35.1-66.3,24.1c-0.4,0.3-0.8,0.5-1.2,0.6
							C306.8,213.6,283.3,180,307.4,138.4z"/>
						<path class="st7" d="M549.9,70.7v27.6c6.1-0.1,12.2-0.2,18.3-0.2c13,0,25.8,0.3,38.5,0.8V71.2c-12.7-0.5-25.5-0.8-38.5-0.8
							C562.1,70.5,556,70.5,549.9,70.7z"/>
						<path class="st2" d="M537.8,118.2v9.3c10-0.3,20.2-0.5,30.4-0.5c4.4,0,8.7,0,13.1,0.1v-9.3c-4.3-0.1-8.7-0.1-13.1-0.1
							C558,117.7,547.9,117.9,537.8,118.2z"/>
						<path class="st7" d="M544.8,224.8v98.6c7.7-0.2,15.5-0.3,23.4-0.3c99.6,0,191.2,15.1,263.5,40.4V265l0,0
							C791.7,252,698,221.8,544.8,224.8z M628.5,311.9c-0.1,1.1-1.1,1.9-2.2,1.8l0,0c-1.1,0-2.1-1-2.2-2.1v-72.5
							c0.2-2.2,3-2.2,4-0.8c0.2,0.3,0.3,0.7,0.4,1.1L628.5,311.9z M662.4,314.8c0,1-0.9,1.8-1.8,1.7c-0.1,0-0.1,0-0.2,0
							c-1.1-0.1-2.1-1-2.1-2.2v-79.6c0.4-2.6,3.3-1.8,4-0.5c0.1,0.3,0.2,0.7,0.2,1L662.4,314.8z M695.3,318.9c0,0.9-0.8,1.7-1.7,1.7
							c-0.1,0-0.2,0-0.3,0l0,0c-1.1-0.2-1.9-1.1-2-2.2v-62.6c0.2-2.2,2.5-1.9,3.5-0.9c0.4,0.4,0.6,0.9,0.6,1.5L695.3,318.9z
							 M727,324.1c0,0.9-0.6,1.6-1.5,1.6c-0.1,0-0.3,0-0.4,0c-1.1-0.2-2-1.2-2-2.3v-54.6c0.2-2.2,2.4-1.9,3.3-0.8
							c0.4,0.4,0.6,0.9,0.6,1.5L727,324.1z M757.5,330.3c0.1,0.8-0.6,1.5-1.4,1.6c-0.2,0-0.3,0-0.5,0c-1.1-0.3-1.8-1.3-1.9-2.4
							v-15.9c0.1-1.8,2-2,3.1-0.8c0.4,0.5,0.7,1,0.7,1.7V330.3z M786.7,337.5c-0.2,1.7-1.4,1.6-1.8,1.5c-1.1-0.3-1.8-1.3-1.8-2.4
							v-44.5c0.2-2.2,2.2-1.7,3-0.6c0.3,0.4,0.5,1,0.5,1.5L786.7,337.5z M814.5,345.8c-0.2,1.9-1.6,1.4-1.7,1.4l0,0
							c-1-0.4-1.7-1.4-1.7-2.5v-59.4c0.2-2,1.8-1.7,2.7-0.8c0.5,0.5,0.7,1.2,0.8,1.9V345.8z"/>
						<path class="st2" d="M338.4,343.6l0.4,0L338.4,343.6z"/>
						<path class="st2" d="M316.6,340.4c6.6,3.3,13.2,4.3,21.8,3.2C329.8,344.6,323.3,343.6,316.6,340.4z"/>
						<polygon class="st2" points="316.5,340.4 316.6,340.4 316.5,340.4 						"/>
						<path class="st2" d="M371.4,239.6c-9.4-3.6-17.5-2.4-22.4-1.8c0.6,1.1,1.1,2.5-0.1,4.9c43.7-4.2,54.8,41.1,28.8,72.8
							c-7.4,9-16.9,15.9-27.7,20.2h0.4c2.5,0.1,2.2,2.8,1.1,4.1c-0.4,0.4-0.8,0.7-1.3,0.9C404.2,318.4,410.5,254.5,371.4,239.6z"/>
						<path class="st2" d="M349.9,335.7c-5.4-0.1-10.2,3-15.6,3.1C339.7,338.7,344.9,337.6,349.9,335.7z"/>
						<path class="st2" d="M350,340.7L350,340.7z"/>
						<path class="st2" d="M350,340.7c-1.7,0.6-3,1-4.7,1.5C346.9,341.7,348.3,341.3,350,340.7z"/>
						<path class="st8" d="M349.3,335.9c-7.7,2.8-19.1,5-30-0.4c-0.2,1.9-1.2,3.7-2.8,4.8c14.6,7.1,37.4,2.4,35.6-3.4
							C352,336.4,351.4,335.2,349.3,335.9z"/>
						<path class="st9" d="M345.3,236.7L345.3,236.7c-51.8,17.1-61.2,87.1-32.6,104c3.1,1.8,7.5-2.7,6.5-6.6
							c-0.3-1.1-0.5-1.2-2.8-2.9s-13.5-10.7-11.7-32.7c1.2-15.2,9.2-31.2,20.8-41.6c5.7-5.2,12.5-9,19.9-11.2
							c0.9-0.3,1.7-0.8,2.4-1.4C351.5,240.4,349.2,235.6,345.3,236.7z"/>
						<polygon class="st2" points="316.5,210.8 316.6,210.8 316.5,210.8 						"/>
						<path class="st2" d="M316.6,210.8c6.6,3.3,13.2,4.3,21.8,3.3C329.8,215.1,323.3,214.1,316.6,210.8z"/>
						<path class="st2" d="M339,214h0.2H339z"/>
						<path class="st2" d="M349.9,206.2c-5.4-0.1-10.2,3-15.6,3.1C339.7,209.2,344.9,208.1,349.9,206.2z"/>
						<path class="st2" d="M371.4,110.1c-9.4-3.6-17.5-2.4-22.4-1.8c0.6,1.1,1.1,2.5-0.1,4.8c43.7-4.2,54.8,41.1,28.8,72.8
							c-7.4,9-16.9,15.9-27.7,20.2c0.1,0,0.3,0,0.4,0c2.5,0.1,2.2,2.8,1.1,4.1c-0.4,0.4-0.8,0.7-1.3,0.9
							C404.2,188.9,410.5,125,371.4,110.1z"/>
						<path class="st2" d="M350,211.2L350,211.2z"/>
						<path class="st2" d="M340.3,213.8L340.3,213.8z"/>
						<path class="st2" d="M339.6,213.9h0.2H339.6z"/>
						<path class="st2" d="M350,211.2c-1.7,0.6-3,1-4.7,1.5C346.9,212.2,348.3,211.8,350,211.2z"/>
						<path class="st9" d="M349.3,206.4c-7.7,2.8-19.1,5-30-0.4c-0.2,1.9-1.2,3.7-2.8,4.8c14.6,7.1,37.4,2.4,35.6-3.4
							C352,206.9,351.4,205.7,349.3,206.4z"/>
						<path class="st8" d="M345.3,107.2c-51.8,17.1-61.2,87.1-32.6,104c3.1,1.8,7.5-2.7,6.5-6.6c-0.3-1.1-0.5-1.2-2.8-2.9
							s-13.5-10.7-11.7-32.6c1.2-15.2,9.2-31.2,20.8-41.6c5.7-5.2,12.5-9,19.9-11.2c0.9-0.3,1.7-0.8,2.4-1.4
							C351.5,110.9,349.2,106.1,345.3,107.2z"/>
						<path class="st2" d="M211.3,179.1c-0.2,0.3-0.4,0.7-0.6,1.1C210.9,179.8,211.1,179.5,211.3,179.1z"/>
						<path class="st2" d="M210.7,180.2c-0.1,0.2-0.3,0.5-0.4,0.7L210.7,180.2z"/>
						<path class="st2" d="M210,181.5c-0.2,0.4-0.4,0.9-0.6,1.3C209.5,182.4,209.7,181.9,210,181.5z"/>
						<path class="st2" d="M210.3,180.9l-0.3,0.6L210.3,180.9z"/>
						<path class="st2" d="M211.5,178.8c-0.1,0.1-0.1,0.2-0.2,0.4C211.3,179,211.4,178.9,211.5,178.8z"/>
						<path class="st2" d="M212.9,176.4l-0.2,0.3L212.9,176.4z"/>
						<path class="st2" d="M212.4,177.2c-0.3,0.5-0.6,1-0.9,1.6C211.7,178.2,212,177.8,212.4,177.2z"/>
						<path class="st2" d="M221.3,160.9c-3.2,3-6.1,6.3-8.5,10C215.2,167.2,218.1,163.9,221.3,160.9z"/>
						<path class="st2" d="M206.8,188.4c-0.1,0.4-0.3,0.7-0.4,1.1L206.8,188.4z"/>
						<path class="st2" d="M206.4,189.5c-0.3,0.7-0.6,1.4-0.8,2.2C205.8,190.9,206.1,190.2,206.4,189.5z"/>
						<path class="st2" d="M207.3,187.2c-0.2,0.4-0.3,0.8-0.5,1.2C207,188,207.1,187.6,207.3,187.2z"/>
						<path class="st2" d="M249.1,231.5c-24,35-43.6,31.9-48.6,8.7c-1.6-7.5-3.2-23.7,4.6-47.6c-0.8,2.1-1.9,2.5-2.4,1.4
							c-0.3-0.9-0.2-1.8,0.1-2.7c-13.7,42.9-5.4,83.7,23.5,68.5c6.1-3.3,15.5-10.4,25.3-26C250.6,233.9,249.6,233.6,249.1,231.5z"/>
						<path class="st2" d="M208.3,184.9c-0.2,0.5-0.5,1.1-0.7,1.6L208.3,184.9z"/>
						<path class="st2" d="M207.6,186.5l-0.3,0.7C207.4,186.9,207.5,186.7,207.6,186.5z"/>
						<path class="st2" d="M209.2,183c-0.3,0.6-0.5,1.1-0.8,1.7C208.7,184.1,209,183.5,209.2,183z"/>
						<path class="st2" d="M208.4,184.7c0,0.1-0.1,0.1-0.1,0.2C208.3,184.8,208.4,184.7,208.4,184.7z"/>
						<path class="st2" d="M209.3,182.8l-0.1,0.2L209.3,182.8z"/>
						<path class="st9" d="M222.8,159.6L222.8,159.6c-12.8,10.7-22.8,34.3-19.4,35c0.1,0,1.1,0.2,1.9-2.1c2.1-6,4.9-11.7,8.3-17.1
							c2.6-4.2,5.9-7.9,9.7-11.2C222.2,163,222.4,161,222.8,159.6z"/>
						<path class="st8" d="M227.3,154.4L227.3,154.4c-7.7,4.7-4.4,10.4-3.2,10.5c0.6,0,1.2-0.2,1.7-0.6c9-6.1,16.2-4.2,18.9-3.1
							c6.4,2.6,11.3,9.1,13.5,17.8c2.5,9.6,3,25.7-8.3,48.2c-1.8,3.6-0.9,7.2,1.8,6.6c7.6-1.5,26.3-51.8,5.4-75.4
							C253.5,154.1,243.1,145.3,227.3,154.4z"/>
						<path class="st2" d="M224.6,308.7c-1.6,1.4-3.1,2.9-4.4,4.5C221.8,311.8,223.9,311,224.6,308.7z"/>
						<path class="st2" d="M219.4,314c-2,2.6-3.8,5.3-5.3,8.2c0,0.1-3,6-3.5,8.3c2.2-6.3,5.4-12.1,9.5-17.3
							C219.9,313.5,219.7,313.7,219.4,314z"/>
						<path class="st2" d="M216.1,322.8c0.1-0.3,0.3-0.5,0.5-0.8C216.4,322.3,216.3,322.5,216.1,322.8z"/>
						<path class="st2" d="M219.3,317.8L219.3,317.8l-0.1,0.1L219.3,317.8z"/>
						<path class="st2" d="M219.4,317.6L219.4,317.6L219.4,317.6z"/>
						<path class="st2" d="M242.1,357.1c-12.4,14.8-14.6,17.5-21.8,17.4c-9.9-0.2-11.7-12.6-12.1-18c-0.5-11.8,2.3-23.4,7.9-33.8
							c-1.3,2.3-2.4,4.7-3.4,7.1c-1.5,4-2.1,1.3-2.1,1.2c0-0.2,0-0.4,0.1-0.6c-7.5,21-5.7,46.3,7.9,47.5c6.1,0.5,16-4.3,25.2-19.6
							C243.1,358.5,242.5,358.4,242.1,357.1z"/>
						<path class="st2" d="M217.5,320.5c0.5-0.8,1.1-1.7,1.7-2.5C218.6,318.8,218,319.6,217.5,320.5z"/>
						<path class="st2" d="M216.6,322c0.3-0.5,0.6-1,0.9-1.5C217.2,321,216.9,321.5,216.6,322z"/>
						<path class="st9" d="M224.6,308.7c-9.2,7.8-16,23.2-13.4,23.4c0.7,0,1.1-0.9,1.6-2.2c1.7-4.4,5.5-12.5,12.1-18.1
							C224.3,310.9,224.2,309.7,224.6,308.7z"/>
						<path class="st8" d="M227.7,305.2c-5.3,3.2-3,7-2.2,7c0.4,0,0.8-0.1,1.1-0.4c5.9-4,10.4-3,12.6-2.1c4.1,1.7,7.4,6,8.8,11.8
							c1.6,6.4,2,17.3-5.4,32.4c-1.4,2.8-0.3,4.8,1,4.5c5.4-1.1,16.5-35.9,3.7-50.7C245,304.9,238.2,299.1,227.7,305.2z"/>
						<path class="st8" d="M812.8,283.8L812.8,283.8c-1-0.2-1.6,0.3-1.7,1.4v59.4c0.2,2.3,2.3,3.1,3.1,2.1c0.2-0.3,0.3-0.6,0.3-1
							v-59.5C814.5,285.2,813.8,284.2,812.8,283.8z"/>
						<path class="st8" d="M785,290.6c-1.1-0.2-1.7,0.3-1.8,1.5v44.5c0.2,2.5,2.5,3,3.3,2c0.2-0.3,0.3-0.6,0.3-1v-44.5
							C786.8,291.9,786.1,290.9,785,290.6z"/>
						<path class="st8" d="M755.7,312c-0.8-0.2-1.6,0.3-1.8,1.1c0,0.2-0.1,0.3,0,0.5v15.9c0.1,2,2.3,3,3.3,2
							c0.3-0.3,0.4-0.7,0.4-1.1v-15.9C757.6,313.3,756.8,312.3,755.7,312z"/>
						<path class="st8" d="M725.1,267.2c-0.8-0.2-1.7,0.3-1.9,1.2c0,0.1,0,0.3,0,0.4v54.6c0.2,2.5,2.8,2.8,3.6,1.7
							c0.2-0.3,0.3-0.6,0.3-1v-54.6C727,268.4,726.2,267.4,725.1,267.2z"/>
						<path class="st8" d="M693.2,254.1c-0.9-0.2-1.8,0.4-2,1.4c0,0.1,0,0.2,0,0.3v62.6c0,1.2,1,2.2,2.2,2.2c0.6,0,1.1-0.2,1.5-0.6
							c0.2-0.3,0.3-0.6,0.3-1v-62.6C695.3,255.2,694.4,254.2,693.2,254.1z"/>
						<path class="st8" d="M660.3,233.1c-1-0.2-1.9,0.5-2.1,1.5c0,0.1,0,0.2,0,0.3v79.6c0,1.2,1,2.2,2.3,2.2c0.7,0,1.3-0.3,1.7-0.9
							c0.1-0.3,0.2-0.6,0.2-0.9v-79.6C662.4,234.1,661.4,233.1,660.3,233.1z"/>
						<path class="st8" d="M626.3,237.4c-1.9,0.1-2.1,1.4-2.1,1.8v72.5c0.1,1.2,1.2,2.2,2.4,2.1c0.6-0.1,1.2-0.4,1.6-0.9
							c0.1-0.3,0.2-0.6,0.3-0.9v-72.5C628.4,238.3,627.5,237.4,626.3,237.4z"/>
						<path class="st10" d="M438.4,198.9c9.8-1.3,19.4-3.9,28.6-7.5c9.8-3.9,9.8-3.9,13.9-9.4c-15.9,8.4-25.8,11.8-42.5,14.4
							L438.4,198.9z"/>
						<path class="st10" d="M796.7,150.7c-0.7,0.4-1.2,0.6-2,1c11.4,13,21.8,20.2,37,25.9V175C817.2,169.6,807.4,162.8,796.7,150.7z
							"/>
						<path class="st10" d="M539.7,162.8c-34.8,1.7-53,15.8-56.6,20.7c10.6-3.6,19.7-10.6,30.4-14c8.5-2.6,17.3-3.9,26.2-4.1
							c15.2-0.5,24,1.9,27.3,2.8c9.8,2.6,18.2,8.6,27.8,11.9C594.2,179.3,578.5,161.6,539.7,162.8z"/>
						<path class="st10" d="M760.8,100.8c-6.7-7.2-15.5-12.1-25.2-13.9c-23-2.7-35.8,12.3-57.8,44.8c-20.3,30-39.4,58.3-80.4,46.6
							c3.2,7.2,30.6,7.2,48.6-4.6c6.2-4.1,6.2-4.1,46.4-57.8c20.5-27.4,34.4-29.6,50.1-24.3c6.2,2.1,13.6,7.4,19.1,13.8
							c11.8,13.7,19.8,30.1,31,44.2c0.6-0.3,1.4-0.7,2-1C782.5,133.1,774.5,115,760.8,100.8z"/>
						<path class="st8" d="M812.4,144.4c-3.6,0-7.1,0.4-10.6,1.3c-15,3.7-23.6,17.9-37.8,22.9c-19.8,7-40.3-4.6-60.2,2.3
							c-13.4,4.6-21.5,16.9-33.9,23c-7.7,3.8-48,20.3-81.9-27.4c-10.6-15-25.2-35.5-53-30.8c-46.9,7.8-50.1,69.8-96.7,78v2.6
							c46.5-8.4,50.1-70.2,97-78c25.9-4.3,39.7,15.1,48.8,27.9c38.4,54,81.7,33.3,90,28.6c11-6.2,18.7-17.2,31-21.4
							c19.8-6.8,40.4,4.6,60.2-2.4c13.7-4.8,21.8-18.7,36.2-22.4c1.1-0.3,2.5-0.7,3.6-0.9c2.7-0.5,5.5-0.8,8.2-0.7
							c7,0.3,11.6,1.4,18.2,3.6v-2.6l0,0c-3.4-1.1-10.3-3.4-16.9-3.7C814.1,144.4,813.1,144.4,812.4,144.4z"/>
						<path class="st2" d="M345.3,268c-23.8,7.8-30.4,39-14.9,48.1c17.2,10.1,43.3-13,38.7-34.3C366.7,270.9,356.5,265,345.3,268z"
							/>
						<path class="st7" d="M438.4,89.4c32-4.5,64.2-7.3,96.5-8.3V71c-32.3,1.1-64.5,3.9-96.5,8.3L438.4,89.4z"/>
						<path class="st7" d="M438.4,107.6c32-4.5,64.2-7.3,96.5-8.3v-10l0,0c-32.3,1.1-64.5,3.9-96.5,8.3L438.4,107.6z"/>
						<path class="st7" d="M438.4,125.7c16.5-2.3,33.5-4.2,50.9-5.7v-10c-17.3,1.4-34.3,3.3-50.9,5.7V125.7z"/>
					</g>
				</g>
			</g>
			<g>
				<g>
					<defs>
						<path id="SVGID_00000026885013810221548460000001880597617848525716_" d="M990.8,237.4v300.4c0,102.3-189.2,185.3-422.6,185.3
							s-422.6-82.9-422.6-185.3V237.4c0,102.3,189.2,185.3,422.6,185.3S990.8,339.7,990.8,237.4z"/>
					</defs>
					<clipPath id="SVGID_00000155847382449787078180000002221205068900695738_">
						<use xlink:href="#SVGID_00000026885013810221548460000001880597617848525716_"  style="overflow:visible;"/>
					</clipPath>
					<g style="clip-path:url(#SVGID_00000155847382449787078180000002221205068900695738_);">
						<path class="st2" d="M159,320.9v10c8.1,13.8,19.8,27,34.6,39.4v-10C178.8,347.9,167.1,334.7,159,320.9z"/>
						<path class="st2" d="M159,339.1v10c8.1,13.8,19.8,27,34.6,39.4v-10C178.8,366.1,167.1,352.9,159,339.1z"/>
						<path class="st2" d="M159,357.2v10c8.1,13.8,19.8,27,34.6,39.4v-10C178.8,384.2,167.1,371,159,357.2z"/>
						<path class="st2" d="M159,396v10c13.5,19.9,13.9,20.3,34.6,39.4v-10C178.8,423,167.1,409.8,159,396z"/>
						<path class="st2" d="M159,414.1v10c8.1,13.8,19.8,27,34.6,39.4v-10C178.8,441.2,167.1,428,159,414.1z"/>
						<path class="st2" d="M166.1,443v10c8.2,10.9,8.6,11.2,27.5,28.7v-10C183.3,463.3,174.1,453.6,166.1,443z"/>
						<path class="st2" d="M148.2,461.9v10c5.9,23.3,21.6,45.3,45.4,65.2v-10C169.8,507.2,154.1,485.2,148.2,461.9z"/>
						<path class="st2" d="M148.2,480v10c5.9,23.3,21.6,45.3,45.4,65.2v-10C169.8,525.3,154.1,503.3,148.2,480z"/>
						<path class="st2" d="M166.1,534.7L166.1,534.7v10c8,10.6,17.3,20.3,27.5,28.7v-10C183.3,554.9,174.1,545.3,166.1,534.7z"/>
					</g>
				</g>
			</g>
		</g>
		<path class="st12" d="M424.6,245.7c-5.3-1.9-15.6-2.6-19.2-6.2s-4.9-9.4-8.9-13.3s-11.1-3-3.3,4.8s7,30.8,1.1,28.7
			s-7.3-2.7-9.4-0.5s18.5,11.2,23.4,27.8l21.6-3.5c0,0-5.3-10.8-5.3-16.6S429.9,247.7,424.6,245.7z"/>
		<path class="st12" d="M318.6,377.9c-3.1,1.1-5,5.5-4.9,8s-11.4-7.7-19.1-14.7s-24.4-9.2-26.4-8s-1.7,6.9,10.6,9.1
			c-4.3,1.2-8.5,2.7-12.5,4.4c-4.6,2.2-4.5,19.1,3.6,20.3s17.6,8.1,24,12.4s19.5,10.6,19.5,10.6l16.6-16.3
			C323,396.3,321.7,376.8,318.6,377.9z"/>
		<path class="st13" d="M650.4,1005.5c0-0.1-0.1-0.2-0.2-0.3c-0.2-1.4-0.6-2.7-1.2-4c-4.2-9.8-18.7-33.5-18.7-33.5l-29.4,4.2
			c5.1,20.8-9.6,34.8-18.1,40.6s-20.1,5-26.9,16.1s23.7,13.2,36.1,10.2c11.7-2.9,21.7-15.8,36.2-18.3c1.2,2.9,2.9,6.8,3.9,9.5
			c1.7,4.6,18.1-0.9,18-4.1C650.2,1021.5,651.7,1009.8,650.4,1005.5z"/>
		<g>
			<defs>
				<path id="SVGID_00000166645815692748878100000000719470963348410753_" d="M650.4,1005.5c0-0.1-0.1-0.2-0.2-0.3
					c-0.2-1.4-0.6-2.7-1.2-4c-4.2-9.8-18.7-33.5-18.7-33.5l-29.4,4.2c5.1,20.8-9.6,34.8-18.1,40.6s-20.1,5-26.9,16.1
					s23.7,13.2,36.1,10.2c11.7-2.9,21.7-15.8,36.2-18.3c1.2,2.9,2.9,6.8,3.9,9.5c1.7,4.6,18.1-0.9,18-4.1
					C650.2,1021.5,651.7,1009.8,650.4,1005.5z"/>
			</defs>
			<clipPath id="SVGID_00000013900791866559532560000012841922456538463385_">
				<use xlink:href="#SVGID_00000166645815692748878100000000719470963348410753_"  style="overflow:visible;"/>
			</clipPath>
			<g style="clip-path:url(#SVGID_00000013900791866559532560000012841922456538463385_);">
				<path class="st13" d="M612.8,975.1c0,32.2-19.3,44.1-28.6,47.5s-35.5,0-35.5,0l6.5,39.4l130-22L638,946.9L612.8,975.1z"/>
			</g>
		</g>
		<path class="st12" d="M539.8,652.4c-23.1,91.8-16.2,97.1-9.1,118.1c8.4,25,23,55.8,24,59.9s42.1,117.4,46.3,141.4
			c2.1,12.1,30.1,2.3,29.4-4.2c-2.1-19.5-6.7-108.4-11.5-133.7s-33.1-64.4-38.5-78.5s44-97,51.7-112.5
			c19.6-39.4-14.4-55.3-32.3-94.3S552.2,603.2,539.8,652.4z"/>
		<g>
			<defs>
				<path id="SVGID_00000018222733716331548080000005982272783519385489_" d="M539.8,652.4c-23.1,91.8-16.2,97.1-9.1,118.1
					c8.4,25,23,55.8,24,59.9s42.1,117.4,46.3,141.4c2.1,12.1,30.1,2.3,29.4-4.2c-2.1-19.5-6.7-108.4-11.5-133.7
					s-33.1-64.4-38.5-78.5s44-97,51.7-112.5c19.6-39.4-14.4-55.3-32.3-94.3S552.2,603.2,539.8,652.4z"/>
			</defs>
			<clipPath id="SVGID_00000115477594616393658720000013533705476958884784_">
				<use xlink:href="#SVGID_00000018222733716331548080000005982272783519385489_"  style="overflow:visible;"/>
			</clipPath>
			<g style="clip-path:url(#SVGID_00000115477594616393658720000013533705476958884784_);">
				<path class="st0" d="M703,652.7c-7.1-21-43.6-37.3-63.3,2.1c-6.7,13.4-72.3,50.3-92,83.2c-4.3,7.3-3.3,16.6,2.6,22.7
					c29.6,30.6,47.6,70.6,52,93.9c4.7,25.3,9.3,114.2,11.5,133.7c0.7,6.5,77.9,12.1,75.8,0C685.5,964.1,711.4,677.7,703,652.7z"/>
			</g>
		</g>
		<path class="st16" d="M634.4,861.6c17.9,8.6,29.6,41.5,26.2,62.8c-1.3,8.2-11.7,33.7-0.1,31.8c16.5-2.6,31.8-37.8,31.5-58
			c-0.1-12.8-0.3-9.3,8.7-18.1c9.7-9.4,9.4-17.1-7-22.3c-15.7-5-44.1-20.1-44.1-20.1l-17.6,6.7L634.4,861.6z"/>
		<g>
			<defs>
				<path id="SVGID_00000142157434192491965840000017295104261809167027_" d="M634.4,861.6c17.9,8.6,29.6,41.5,26.2,62.8
					c-1.3,8.2-11.7,33.7-0.1,31.8c16.5-2.6,31.8-37.8,31.5-58c-0.1-12.8-0.3-9.3,8.7-18.1c9.7-9.4,9.4-17.1-7-22.3
					c-15.7-5-44.1-20.1-44.1-20.1l-17.6,6.7L634.4,861.6z"/>
			</defs>
			<clipPath id="SVGID_00000087394201303765019070000015031066153835181215_">
				<use xlink:href="#SVGID_00000142157434192491965840000017295104261809167027_"  style="overflow:visible;"/>
			</clipPath>
			<g style="clip-path:url(#SVGID_00000087394201303765019070000015031066153835181215_);">
				<path class="st18" d="M683.8,892.1c-4.7,9.8-11.8,38.3-22.6,53.3c-13.2,18.3,18.3,20.5,20.6,23.4s10.5-12.8,10.5-12.8l25.3-62.4
					L691.3,876C687.2,882.6,685.3,889,683.8,892.1z"/>
				<path class="st13" d="M723.8,843.3c-15.7-5-83.7-14.1-83.7-14.1l-17.6,6.7l2.3,25.7c17.1,0,38.5,51.7,13.3,77
					c-17,17-9.1,50.8,51.6,50.8C692.9,998,731.2,845.7,723.8,843.3z"/>
			</g>
		</g>
		<path class="st12" d="M649.8,570c40.1,59-153.2,198.8-135.6,202.8s29-1,72.5,23.4s52.5,35.7,63.2,41.5
			c-13.2,5.1-15.3,23.9-15.3,23.9c-7.8-4.5-99.2-31.5-130.1-41s-49.3-15.4-59-27.6c-20-25.2,80.4-189.7,80.4-189.7L649.8,570z"/>
		<g>
			<defs>
				<path id="SVGID_00000150073925458773211540000014139548286913387650_" d="M649.8,570c40.1,59-153.2,198.8-135.6,202.8
					s29-1,72.5,23.4s52.5,35.7,63.2,41.5c-13.2,5.1-15.3,23.9-15.3,23.9c-7.8-4.5-99.2-31.5-130.1-41s-49.3-15.4-59-27.6
					c-20-25.2,80.4-189.7,80.4-189.7L649.8,570z"/>
			</defs>
			<clipPath id="SVGID_00000106110992807356018500000013356094134725100983_">
				<use xlink:href="#SVGID_00000150073925458773211540000014139548286913387650_"  style="overflow:visible;"/>
			</clipPath>
			<g style="opacity:0.1;clip-path:url(#SVGID_00000106110992807356018500000013356094134725100983_);enable-background:new    ;">
				<path class="st20" d="M602,542.2c27.4,93.2-44.6,155.2-53.8,165.6s-10,8.8-20.5,12.2s-28.3,3.7-31.2,6.8s-22,50.9-19.6,55.7
					c4.1,8.1,5.6,7,27,28.3c31.4,31.4,156.6,145.3,156.6,145.3l56.6-45.1l20.3-287.3l-82.2-116.6L602,542.2z"/>
			</g>
		</g>
		<path class="st21" d="M433.9,291.7c-7.1-20.4-18.9-14.1-24.3-9s8,40.4,12.2,65.6s12.3,44.3,19.4,47s35.3,5.9,35.3,5.9l26.5-35
			c0,0-31.9,3.2-37-4.6C459.5,351.7,433.9,291.7,433.9,291.7z"/>
		<g>
			<defs>
				<path id="SVGID_00000154421366259010724180000016506895786136939953_" d="M433.9,291.7c-7.1-20.4-18.9-14.1-24.3-9
					s8,40.4,12.2,65.6s12.3,44.3,19.4,47s35.3,5.9,35.3,5.9l26.5-35c0,0-31.9,3.2-37-4.6C459.5,351.7,433.9,291.7,433.9,291.7z"/>
			</defs>
			<clipPath id="SVGID_00000068651370951261205530000012830564019274386878_">
				<use xlink:href="#SVGID_00000154421366259010724180000016506895786136939953_"  style="overflow:visible;"/>
			</clipPath>
			<g style="clip-path:url(#SVGID_00000068651370951261205530000012830564019274386878_);">
				<path class="st9" d="M362.5,284.6l43.4-15.1c6.1,9.3,12.1,25.5,23.8,58c15.3,42.6,25.8,52.1,31.4,54.2s52.1,8.7,52.1,8.7
					l64.1,16.2L500,171.7L362.5,284.6z"/>
			</g>
		</g>
		<path class="st18" d="M517.4,353c0,0,2.4-0.2,10.5-9.1c4.3-4.8,2.5-26.6,4.2-37.2s23.2-19.6,27.8-11.3s17.5,38,25.5,39.4
			s12.8,2.7,15.8,25.5c2.6,19.3-20.2,28.4-32.1,15.2S534.7,353.3,523,352L517.4,353z"/>
		<g>
			<defs>
				<path id="SVGID_00000140694399539238726460000017693335187486289069_" d="M517.4,353c0,0,2.4-0.2,10.5-9.1
					c4.3-4.8,2.5-26.6,4.2-37.2s23.2-19.6,27.8-11.3s17.5,38,25.5,39.4s12.8,2.7,15.8,25.5c2.6,19.3-20.2,28.4-32.1,15.2
					S534.7,353.3,523,352L517.4,353z"/>
			</defs>
			<clipPath id="SVGID_00000041986935704989707090000016285830328423458188_">
				<use xlink:href="#SVGID_00000140694399539238726460000017693335187486289069_"  style="overflow:visible;"/>
			</clipPath>
			<g style="clip-path:url(#SVGID_00000041986935704989707090000016285830328423458188_);">
				<path class="st18" d="M551.6,285.7l-14.9-3l-14.7,13l14.2,16.2c8.3,13.3,7.8,45.8-6.9,49.4c-15.1,3.6,67.2,34.4,67.2,34.4
					l19.4-36.1c0,0-29.7-6.2-41.9-14.5C553.5,331.2,551.6,285.7,551.6,285.7z"/>
			</g>
		</g>
		
			<linearGradient id="SVGID_00000125591975134765144500000013694408772762564010_" gradientUnits="userSpaceOnUse" x1="312.1134" y1="534.1121" x2="660.339" y2="534.1121" gradientTransform="matrix(1 0 0 -1 0 1082)">
			<stop  offset="0" style="stop-color:#00FAFA"/>
			<stop  offset="1" style="stop-color:#3264FA"/>
		</linearGradient>
		<path style="fill:url(#SVGID_00000125591975134765144500000013694408772762564010_);" d="M330.1,400.3c10.1,7.5,59.4,27.2,80,47
			c5.1,4.8,25.6-19.6,38.4-32.6s32.2-52.8,55-58.5c14-3.5,19.1-3.8,30.2-6.1c14.6-3,30.2,2.8,46.3,0.4c4.4-0.6,4-15.5,7.5-15.1
			c16.5,1.9,33.9,12.7,42.1,26.7s19.9,39.6,16.1,78.8s-21.2,60,0.7,97.4c23.4,39.9,12.3,85.7,4.7,142.9c-4.2,31.7-5.3,75.1-5.3,75.1
			c-20.4,20.4-69.6-41.6-121.3-9.2c-59.3,37-120.2-26.9-126.3-38.5c-50.4-94.8,47.6-57.4,105-116c6.3-6.4,32.3-39.7,36.9-48.4
			c14.7-27.7-1.5-55.9-14.2-65.3c-16.1-11.9-19.4-24.1-18.5-32.3c1.9-19.2,3.5-20.6,3.5-20.6c-4.8,7.1-42.5,28.9-56.7,40.1
			s-24.9,18-28.5,20.9s-7.2,9.2-28.2-6.2c-11.4-8.4-65.8-43.8-79.9-55.1C305,415.9,317,390.6,330.1,400.3z"/>
		<g>
			<defs>
				<path id="SVGID_00000031914560353746342750000008235164727900532657_" d="M330.1,400.3c10.1,7.5,59.4,27.2,80,47
					c5.1,4.8,25.6-19.6,38.4-32.6s32.2-52.8,55-58.5c14-3.5,19.1-3.8,30.2-6.1c14.6-3,30.2,2.8,46.3,0.4c4.4-0.6,4-15.5,7.5-15.1
					c16.5,1.9,33.9,12.7,42.1,26.7s19.9,39.6,16.1,78.8s-21.2,60,0.7,97.4c23.4,39.9,12.3,85.7,4.7,142.9
					c-4.2,31.7-5.3,75.1-5.3,75.1c-20.4,20.4-69.6-41.6-121.3-9.2c-59.3,37-120.2-26.9-126.3-38.5c-50.4-94.8,47.6-57.4,105-116
					c6.3-6.4,32.3-39.7,36.9-48.4c14.7-27.7-1.5-55.9-14.2-65.3c-16.1-11.9-19.4-24.1-18.5-32.3c1.9-19.2,3.5-20.6,3.5-20.6
					c-4.8,7.1-42.5,28.9-56.7,40.1s-24.9,18-28.5,20.9s-7.2,9.2-28.2-6.2c-11.4-8.4-65.8-43.8-79.9-55.1
					C305,415.9,317,390.6,330.1,400.3z"/>
			</defs>
			<clipPath id="SVGID_00000106116757203692987230000008717013642475005856_">
				<use xlink:href="#SVGID_00000031914560353746342750000008235164727900532657_"  style="overflow:visible;"/>
			</clipPath>
			<g style="clip-path:url(#SVGID_00000106116757203692987230000008717013642475005856_);">
				<polygon class="st26" points="503.4,356.1 503.4,356.1 503.4,356.1 				"/>
				<path class="st9" d="M562.2,338.5h-0.6H562.2z"/>
				<path class="st9" d="M561.6,338.4h-0.3H561.6z"/>
				<path class="st9" d="M562.7,338.5h-0.4H562.7z"/>
				<path class="st9" d="M561.3,338.4l-2.8-0.2L561.3,338.4z"/>
				<path class="st9" d="M563.3,338.5H563H563.3z"/>
				<path class="st9" d="M563,338.5h-0.4H563z"/>
				<path class="st9" d="M556.8,338.1"/>
				<path class="st9" d="M556.9,338.1L556.9,338.1z"/>
				<path class="st9" d="M558.5,338.2H558H558.5z"/>
				<path class="st9" d="M683.7,436.1c23.1-7.8-57.2-93.5-120.4-97.6L540,348c0,0-7.5,10.1-37.1,18.1c-15.4,4.1-42.2,44-46.9,49.2
					s-31.9,52.6-49.5,54s-95.7-62.3-108.5-60.9s89.6,122,89.6,122s65.5-33.6,122.9-104.5c7.1-8.8-7.6,27.7,19.3,40.9
					c47,23,49.7,39.4,48.3,56.7c-2.6,33.6,13.7,66.5-66.7,99.4c-47.7,19.5-138.4,140.5-121.4,135.5c15.3-4.5,85.6,25.4,134.2-11.6
					c47.8-36.4,74.9-142,74.9-9.9c0,66.7,86.6,77.4,108.1,65.7c31.6-17.2-27.7-163.3-37.6-239.6C657,465.2,623.3,456.6,683.7,436.1z
					"/>
				<path class="st9" d="M558,338.2l-0.7,0L558,338.2z"/>
				<path class="st9" d="M557.4,338.1H557H557.4z"/>
				<path class="st9" d="M557,338.1L557,338.1z"/>
				<path class="st9" d="M562.2,338.5h-0.6H562.2z"/>
				<path class="st9" d="M562.7,338.5h-0.4H562.7z"/>
				<path class="st9" d="M563,338.5h-0.4H563z"/>
				<path class="st9" d="M561.6,338.4h-0.3H561.6z"/>
				<path class="st9" d="M563.3,338.5H563H563.3z"/>
				<path class="st9" d="M557,338.1L557,338.1z"/>
				<path class="st9" d="M556.8,338.1"/>
				<path class="st9" d="M683.7,436.1c23.1-7.8-57.2-93.5-120.4-97.6L540,348c0,0-7.5,10.1-37.1,18.1c-15.4,4.1-42.2,44-46.9,49.2
					s-31.9,52.6-49.5,54s-95.7-62.3-108.5-60.9s89.6,122,89.6,122s65.5-33.6,122.9-104.5c7.1-8.8-7.6,27.7,19.3,40.9
					c47,23,49.7,39.4,48.3,56.7c-2.6,33.6,13.7,66.5-66.7,99.4c-47.7,19.5-138.4,140.5-121.4,135.5c15.3-4.5,85.6,25.4,134.2-11.6
					c47.8-36.4,74.9-9.9,74.9-9.9c0,66.7,86.6,77.4,108.1,65.7c31.6-17.2-27.7-163.3-37.6-239.6C657,465.2,623.3,456.6,683.7,436.1z
					"/>
				<path class="st9" d="M561.3,338.4l-2.8-0.2L561.3,338.4z"/>
				<path class="st9" d="M556.9,338.1L556.9,338.1z"/>
				<path class="st9" d="M557.4,338.1H557H557.4z"/>
				<path class="st9" d="M558.5,338.2H558H558.5z"/>
				<path class="st9" d="M558,338.2l-0.7,0L558,338.2z"/>
			</g>
		</g>
		<path class="st8" d="M504.9,266.8c-16.4-17-14.7-27.2-7.6-37.6c8.1-11.7,38.6-37.2,73-23.2s28.1,16.6,47.3,26s53.4,11.4,58.5,29.2
			c21.3,74.6,29.8,33.6,62,64.6c23.4,22.5,25.8,65.5,0.9,65.4c-42.5-0.2-29.7,30.8-55.3,45c-21,11.7-39.5-3.8-72.9-56.5
			c-12.4-19.5-44.1-18.8-53.2-30.6c-12.3-15.9-13.7-20.1-18.8-39.2C535.9,299.2,509.1,271.2,504.9,266.8z"/>
		<g>
			<defs>
				<path id="SVGID_00000056425206691115472880000003170769942437169574_" d="M504.9,266.8c-16.4-17-14.7-27.2-7.6-37.6
					c8.1-11.7,38.6-37.2,73-23.2s28.1,16.6,47.3,26s53.4,11.4,58.5,29.2c21.3,74.6,29.8,33.6,62,64.6c23.4,22.5,25.8,65.5,0.9,65.4
					c-42.5-0.2-29.7,30.8-55.3,45c-21,11.7-39.5-3.8-72.9-56.5c-12.4-19.5-44.1-18.8-53.2-30.6c-12.3-15.9-13.7-20.1-18.8-39.2
					C535.9,299.2,509.1,271.2,504.9,266.8z"/>
			</defs>
			<clipPath id="SVGID_00000089574970659457024130000017853080970185617076_">
				<use xlink:href="#SVGID_00000056425206691115472880000003170769942437169574_"  style="overflow:visible;"/>
			</clipPath>
			<g style="clip-path:url(#SVGID_00000089574970659457024130000017853080970185617076_);">
				<path class="st28" d="M723.9,371.1c-51.8-2-37.5-46.7-82-50.2c-69.8-5.6-38-40-100.3-64.4c-19.8-7.8-13.6-21.2-32-19.5
					c-15.9,1.4-13,18.8-6.7,17.6l8,18.9c0,0,26.3,8.7,36.3,31.2c4.8,10.8,14.6,40.8,43,48.7c42.8,11.9,45,131.3,51.7,126.1
					C786.2,369.3,796.4,373.8,723.9,371.1z"/>
				<path class="st29" d="M474.4,216.1l-14.9,31.6c0,0,20.2,22.4,25.7,24.1s19.6-5.1,19.6-5.1c-19.5-28.5-6.8-37.5,0.6-41.6
					c65.6-36.6,97.6,47,108.6,41.8c39-18.6,56.4,17.8,62.1-5.8c7.3-30.7-31.9-106.3-31.9-106.3L474.4,216.1z"/>
			</g>
		</g>
		<path class="st12" d="M533,279.1c2.3,5.6,5.5,13.8,0.8,19.9c7.3,8.7,7.8,21.8,6.9,22.2c-13.2,5.4-16.5,6.2-21.4,6.4
			c-10.5,0.3-16.1-31.7-16.8-37.7c-1.2-9.5,3.1-10.8,4.1-20.1c0.6-5.3-3.8-15.1-3.8-15.1c7.6-3.7,9-2.7,17.4,18.8
			C522.3,278.5,525.8,262,533,279.1z"/>
		<g>
			<defs>
				<path id="SVGID_00000178175557270352143590000000403370260297995408_" d="M533,279.1c2.3,5.6,5.5,13.8,0.8,19.9
					c7.3,8.7,7.8,21.8,6.9,22.2c-13.2,5.4-16.5,6.2-21.4,6.4c-10.5,0.3-16.1-31.7-16.8-37.7c-1.2-9.5,3.1-10.8,4.1-20.1
					c0.6-5.3-3.8-15.1-3.8-15.1c7.6-3.7,9-2.7,17.4,18.8C522.3,278.5,525.8,262,533,279.1z"/>
			</defs>
			<clipPath id="SVGID_00000121997362539036204360000002146547437997835406_">
				<use xlink:href="#SVGID_00000178175557270352143590000000403370260297995408_"  style="overflow:visible;"/>
			</clipPath>
			<g style="clip-path:url(#SVGID_00000121997362539036204360000002146547437997835406_);">
				<path class="st12" d="M529.2,218.5l-27.2,6.1c3.6,4.1-2.2,17.4,1,29.9c3.8,15.1,14.8,16.9,11,20.7c-16.9,17.1,7,60,23.7,68.2
					C617.1,382.6,530.9,218.5,529.2,218.5z"/>
			</g>
		</g>
		<path class="st12" d="M524,284.7c0.2,2.5,1.1,7.8,3.8,9c6.2,2.8,3.1-12.6,1.1-15.9S523.3,275.2,524,284.7z"/>
		<path class="st31" d="M704.8,864.2c-3.7-2.7-21.4,16.7-13.8,23.3c2.7,2.3,8.5,4.1,12.6,6.7s15.2-8.7,13.2-11.2
			C714.2,879.6,708.5,866.9,704.8,864.2z"/>
		<path class="st13" d="M704.8,864.2c-3.7-2.7-21.4,16.7-13.8,23.3c2.7,2.3,8.5,4.1,12.6,6.7s15.2-8.7,13.2-11.2
			C714.2,879.6,708.5,866.9,704.8,864.2z"/>
		<path class="st18" d="M703.7,894.2c3.7,2.9,13.9-7.3,13.5-10.5C716.3,877.6,701.5,892.5,703.7,894.2z"/>
		<path class="st2" d="M545.2,513.8l-1.2,19.8c22.4,43.1,97.8-4.1,97.8-4.1c-2.2-4.4-5.2-15.8-5.2-15.8
			C577.1,550.3,545.2,527.9,545.2,513.8z"/>
		<path class="st32" d="M545.2,513.8l-1.2,19.8c7.2,13.9,20,18.4,33.9,18.1v-18.1C556.4,533.5,545.2,522.2,545.2,513.8z"/>
	</g>
</g>
</svg>
